<svg width="271" height="230" viewBox="0 0 271 230" fill="none" xmlns="http://www.w3.org/2000/svg">
<path d="M11.334 228.134H257.538V230H11.334V228.134Z" fill="#010101"/>
<path d="M65.0786 144.672H41.9805V132.028H65.0786V144.672ZM43.2879 143.367H63.7712V133.364H43.2879V143.367Z" fill="#ABB7C2"/>
<path d="M49.241 155.994H26.1211V143.35H49.241V155.994ZM27.4503 154.689H47.9336V144.685H27.4503V154.689ZM122.096 36.0096H98.9761V23.3657H122.096V36.0096ZM100.305 34.7048H120.789V24.701H100.305V34.7048ZM162.749 175.597H139.616V162.953H162.749V175.597ZM140.958 174.292H161.441V164.288H140.958V174.292Z" fill="#ABB7C2"/>
<path d="M140.915 175.597H117.816V162.953H140.915V175.597ZM119.124 174.292H139.607V164.288H119.124V174.292Z" fill="#ABB7C2"/>
<path d="M159.729 105.023H136.601V92.3788H159.721L159.729 105.023ZM137.939 103.718H158.422V93.7141H137.939V103.718ZM234.903 50.8631H211.805V38.2192H234.903V50.8631ZM213.112 49.5583H233.595V39.5545H213.112V49.5583Z" fill="#ABB7C2"/>
<path d="M213.081 50.8631H189.961V38.2192H213.081V50.8631ZM191.29 49.5583H211.773V39.5545H191.29V49.5583Z" fill="#ABB7C2"/>
<path d="M224.007 62.1849H200.882V49.541H224.007V62.1849ZM202.216 60.8801H222.699V50.8763H202.216V60.8801ZM94.9404 129.41H127.735V221.384H94.9404V129.41Z" fill="#ABB7C2"/>
<path d="M94.9412 170.9H127.736V186.262H94.9412V170.9ZM159.154 228.182C156.674 222.063 133.589 217.265 105.457 217.265C77.3256 217.265 54.2362 222.05 51.7607 228.182H159.154Z" fill="#010101"/>
<path d="M237.68 13.7283V166.498C237.683 167.26 237.612 168.02 237.467 168.769C236.932 171.817 235.325 174.586 232.925 176.598C230.524 178.609 227.48 179.737 224.319 179.787C224.239 179.793 224.159 179.793 224.08 179.787H14.2338C10.6276 179.785 7.16974 178.382 4.61974 175.888C2.06975 173.394 0.636137 170.012 0.633789 166.485V13.7283C0.633496 10.3702 1.93223 7.13634 4.26918 4.67618C6.60612 2.21601 9.80819 0.711739 13.2323 0.465464C13.5603 0.439458 13.8882 0.439459 14.2338 0.439459H224.071C225.896 0.437708 227.703 0.796953 229.383 1.49561C231.063 2.19426 232.581 3.2179 233.846 4.505C236.308 6.97105 237.684 10.282 237.68 13.7283Z" fill="#ABB7C2"/>
<path d="M21.9816 7.99463H212.485C215.628 7.99463 218.644 9.24106 220.867 11.4597C223.09 13.6784 224.339 16.6875 224.339 19.8252V160.474C224.339 163.612 223.09 166.621 220.867 168.839C218.644 171.058 215.628 172.304 212.485 172.304H21.9816C18.8389 172.304 15.8248 171.058 13.6026 168.841C11.3803 166.623 10.1318 163.615 10.1318 160.478V19.8208C10.133 16.6847 11.3818 13.6773 13.6038 11.4597C15.8258 9.24212 18.8392 7.99578 21.9816 7.99463Z" fill="white"/>
<path d="M212.484 8.3163C215.541 8.31975 218.472 9.53352 220.633 11.6912C222.794 13.8489 224.009 16.7742 224.011 19.825V160.474C224.009 163.524 222.794 166.45 220.633 168.607C218.472 170.765 215.541 171.979 212.484 171.982H21.9811C18.9253 171.978 15.996 170.764 13.8352 168.608C11.6744 166.451 10.4584 163.528 10.4538 160.478V19.8206C10.4584 16.7709 11.6744 13.8474 13.8352 11.6909C15.996 9.53444 18.9253 8.3209 21.9811 8.3163H212.484ZM212.484 7.66823H21.9811C18.7493 7.66823 15.6494 8.94773 13.3617 11.226C11.0739 13.5043 9.78525 16.5952 9.77832 19.8206V160.478C9.77889 162.076 10.0951 163.658 10.709 165.133C11.3228 166.609 12.2221 167.949 13.3556 169.077C14.489 170.206 15.8342 171.1 17.3143 171.709C18.7944 172.318 20.3802 172.629 21.9811 172.626H212.484C215.713 172.626 218.811 171.346 221.094 169.067C223.378 166.788 224.661 163.697 224.661 160.474V19.825C224.661 16.5996 223.379 13.5059 221.096 11.2227C218.813 8.93954 215.716 7.6534 212.484 7.64648V7.66823Z" fill="#010101"/>
<path opacity="0.5" d="M179.58 36.7489L159.834 19.5859L114.343 71.7056L68.8532 19.5859L49.1064 36.7489L96.9806 91.6L49.1064 146.447L68.8532 163.614L114.343 111.494L159.834 163.614L179.58 146.447L131.706 91.6L179.58 36.7489Z" fill="#ABB7C2"/>
<path d="M242.21 150.401V166.803C242.208 168.14 242.012 169.471 241.626 170.752L233.581 169.082L224.721 167.229L222.869 166.842L197.831 161.622L170.698 155.968L143.83 150.362L127.757 147.008L116.692 144.69L94.9402 140.162L89.7889 139.088L62.6551 133.433L35.761 127.81L9.77783 122.399L9.08925 122.255L8.62292 122.151L0.65625 120.481V100.012L5.55044 101.017L9.0936 101.756L9.78219 101.9L32.4445 106.623L59.5695 112.278L86.481 117.919L99.9913 120.737L113.571 123.573L140.448 129.18L167.573 134.834H167.599L194.476 140.44L221.614 146.095L224.595 146.712L233.786 148.639L242.21 150.401Z" fill="white"/>
<path d="M241.745 170.912H241.579L222.839 166.998L0.5 120.611V99.8159L242.377 150.27V166.798C242.375 168.15 242.175 169.495 241.784 170.79L241.745 170.912ZM0.822503 120.35L9.82642 122.242L241.509 170.564C241.866 169.342 242.047 168.075 242.05 166.802V150.531L0.822503 100.212V120.35Z" fill="#010101"/>
<path d="M167.639 134.843L143.8 150.348L116.662 144.685L140.501 129.18L167.639 134.843ZM113.611 123.569L89.772 139.075L62.6426 133.416L86.4816 117.91L113.611 123.569ZM59.5919 112.299L35.7529 127.805L8.62345 122.146L32.4625 106.641L59.5919 112.299ZM5.56404 101.021V101.034H5.55096L0.661133 104.209V99.999L5.56404 101.021ZM242.211 155.82V166.785C242.209 168.123 242.012 169.453 241.627 170.734L233.582 169.064L224.722 167.211L233.787 161.326L242.211 155.82ZM221.658 146.112L197.819 161.618L170.681 155.955L194.529 140.453L221.658 146.112Z" fill="black"/>
<path d="M235.761 2.07977L230.03 4.2545L217.757 8.87363L213.739 10.3742L188.026 20.0474L162.082 29.8076L136.413 39.4678L110.451 49.2584L84.7383 58.9142L58.8073 68.6744L33.1205 78.3346L24.4957 81.5836L9.77828 87.0988L9.0897 87.3554L7.1634 88.0904L0.652344 90.5392V69.1268L9.09842 65.9517L9.787 65.6951L18.9391 62.2503L44.87 52.4901L70.583 42.8169L96.5052 33.0567L122.218 23.3878L148.162 13.6276L163.978 7.66884L173.849 3.95439L183.925 0.161653H228.814C230.642 0.157656 232.452 0.52773 234.131 1.24902C234.693 1.48782 235.238 1.76541 235.761 2.07977Z" fill="white"/>
<path d="M0.5 90.7693V69.022L18.9306 62.0889L183.951 0.000298774H228.84C231.309 -0.0162578 233.733 0.655605 235.839 1.94016L236.118 2.10979L230.017 4.40196L0.5 90.7693ZM0.822503 69.2351V90.3039L110.399 49.0884L235.395 2.04455C233.407 0.900129 231.152 0.299958 228.858 0.30476H183.982L0.822503 69.2351Z" fill="#010101"/>
<path d="M148.166 13.6233L136.395 39.4765L110.451 49.2367L122.222 23.3834L148.166 13.6233ZM96.5224 33.0567L84.7467 58.9099L58.8114 68.6657L70.5871 42.8125L96.5224 33.0567ZM44.8828 52.4857L33.1072 78.3389L7.17188 88.0948L18.9476 62.2416L44.8828 52.4857ZM234.174 1.24902C234.843 1.54336 234.769 2.45618 234.085 2.71559L230.03 4.2545L217.757 8.87363L213.739 10.3742L214.868 7.9037L218.398 0.161653H228.857C230.685 0.157656 232.495 0.52773 234.174 1.24902ZM197.078 0.161653L193.67 7.66884L188.026 20.0474L162.082 29.8076L172.175 7.66884L173.875 3.95439L183.951 0.161653H197.078Z" fill="black"/>
<path d="M264.751 69.8787C264.473 69.8705 264.201 69.7912 263.963 69.6482C262.298 68.7 260.816 66.908 261.522 64.6811C261.433 64.5732 261.37 64.447 261.336 64.3116C261.302 64.1762 261.299 64.035 261.326 63.8982C261.618 62.0714 262.934 57.3218 265.436 57.3218C265.636 57.323 265.836 57.3522 266.028 57.4088C266.183 57.4486 266.324 57.5301 266.435 57.6444C266.547 57.7587 266.625 57.9014 266.66 58.0568C266.701 58.2567 266.692 58.4635 266.632 58.6587C266.573 58.8539 266.466 59.0312 266.32 59.1746L266.159 59.3312C265.664 59.726 265.275 60.2371 265.026 60.8187L264.987 60.9536C265.305 60.6926 265.549 60.4882 265.64 60.4012L265.732 60.3055H266.076L266.224 60.5143C266.625 61.2102 267.066 67.1168 265.915 69.1088C265.813 69.3344 265.65 69.5271 265.445 69.6654C265.239 69.8037 264.999 69.8821 264.751 69.8917V69.8787Z" fill="white"/>
<path d="M265.44 57.6442C265.608 57.6459 265.776 57.6708 265.937 57.7181C266.521 57.8877 266.443 58.6141 266.098 58.9403C265.54 59.4796 264.983 59.9537 264.721 60.7149C264.618 61.0586 264.545 61.4109 264.503 61.7675C265.14 61.2455 265.719 60.7801 265.867 60.6279C265.871 60.626 265.876 60.625 265.88 60.625C265.885 60.625 265.889 60.626 265.893 60.6279C266.281 60.6279 267.04 69.5617 264.752 69.5617C264.53 69.5549 264.313 69.4904 264.124 69.3747C262.525 68.4656 261.073 66.7345 261.897 64.5903C261.796 64.5218 261.718 64.4247 261.673 64.3115C261.628 64.1983 261.618 64.0742 261.644 63.9552C261.906 62.3459 263.161 57.6485 265.44 57.6485V57.6442ZM265.44 57.0004C262.15 57.0004 261.017 63.7813 261.004 63.8508C260.956 64.1512 261.014 64.4589 261.169 64.7207C260.516 67.0607 262.041 68.9223 263.784 69.9097C264.072 70.081 264.399 70.1754 264.734 70.1837C266.207 70.1837 266.957 68.3091 266.961 64.6077C266.961 60.2582 266.342 59.9711 265.95 59.9537C266.077 59.8189 266.216 59.6884 266.364 59.5492L266.53 59.3926C266.719 59.211 266.858 58.9842 266.934 58.7337C267.01 58.4832 267.021 58.2175 266.966 57.9617C266.912 57.7517 266.803 57.56 266.65 57.4068C266.496 57.2537 266.304 57.1448 266.094 57.0918C265.873 57.0284 265.644 56.9961 265.414 56.9961L265.44 57.0004Z" fill="#010101"/>
<path d="M167.896 123.565C159.536 138.293 154.049 162.711 154.049 162.711C154.049 162.711 149.64 142.912 158.558 112.54C166.516 85.5657 206.214 99.5576 208.014 100.999C213.609 105.47 217.997 119.714 217.997 119.714C210.788 128.609 175.603 109.999 167.896 123.565Z" fill="#010101"/>
<path d="M227.463 210.497L230.274 216.795L233.412 216.012L233.081 208.353L227.463 210.497Z" fill="white"/>
<path d="M230.087 217.173L227.036 210.314L233.395 207.887L233.756 216.26L230.087 217.173ZM227.908 210.675L230.466 216.412L233.081 215.76L232.78 208.801L227.908 210.675Z" fill="#010101"/>
<path d="M199.963 106.793C199.963 106.793 198.22 130.736 204.997 164.641C208.962 184.435 227.615 209.714 227.615 209.714H233.42C233.42 209.714 225.576 188.319 226.221 160.674C226.752 137.461 236.375 120.111 232.845 109.981C231.106 105.009 199.963 106.793 199.963 106.793Z" fill="#010101"/>
<path d="M226.243 211.732C226.063 211.664 225.899 211.559 225.762 211.425C225.625 211.29 225.517 211.129 225.444 210.951C225.372 210.774 225.337 210.583 225.342 210.391C225.346 210.199 225.39 210.01 225.471 209.836C225.333 209.389 225.287 208.918 225.336 208.453C225.471 208.018 234.571 207.218 235.068 208.453C235.565 209.688 234.68 210.053 234.68 210.053C234.68 210.053 235.787 210.923 234.628 211.219C233.468 211.515 229.276 212.602 226.243 211.732ZM229.359 215.129C229.359 215.129 216.45 220.662 216.72 228.3L237.787 219.266C237.787 219.266 237.53 213.925 233.115 213.742C233.137 213.742 232.196 215.643 229.359 215.129Z" fill="#010101"/>
<path d="M237.617 218.509L223.122 224.72C222.523 223.266 221.581 221.979 220.376 220.966C220.259 220.866 220.119 221.062 220.233 221.158C221.404 222.145 222.321 223.4 222.904 224.815L216.602 227.517C216.588 227.523 216.575 227.532 216.564 227.543C216.554 227.554 216.545 227.568 216.539 227.582C216.534 227.597 216.531 227.612 216.531 227.628C216.532 227.643 216.535 227.659 216.541 227.673C216.548 227.687 216.557 227.7 216.568 227.711C216.579 227.722 216.593 227.73 216.607 227.736C216.622 227.742 216.637 227.744 216.653 227.744C216.669 227.744 216.684 227.74 216.698 227.734L222.996 225.037C223.061 225.203 223.14 225.359 223.196 225.529C223.253 225.698 223.466 225.581 223.414 225.433C223.362 225.285 223.279 225.107 223.214 224.942L237.709 218.726C237.738 218.714 237.761 218.691 237.772 218.662C237.784 218.633 237.784 218.601 237.772 218.572C237.76 218.543 237.737 218.52 237.708 218.508C237.679 218.496 237.646 218.497 237.617 218.509ZM226.413 216.582C226.43 216.571 226.444 216.555 226.452 216.537C226.461 216.518 226.464 216.498 226.46 216.478C226.238 215.047 222.647 211.754 221.418 213.842C220.982 214.551 221.444 215.534 221.993 216.108C221.972 216.817 222.791 217.413 223.405 217.587C223.888 217.701 224.395 217.66 224.852 217.469C224.852 217.488 224.858 217.506 224.87 217.52C224.882 217.535 224.899 217.544 224.918 217.548C225.378 217.681 225.8 217.922 226.15 218.249C226.5 218.576 226.767 218.981 226.931 219.431C226.983 219.574 227.206 219.479 227.149 219.335C226.979 218.873 226.706 218.455 226.35 218.114C225.995 217.772 225.566 217.516 225.096 217.365C225.464 217.191 225.815 216.986 226.147 216.752H226.182C226.182 216.752 226.182 216.778 226.221 216.782C226.74 216.898 227.221 217.145 227.618 217.498C228.015 217.851 228.316 218.299 228.491 218.8C228.544 218.944 228.762 218.848 228.714 218.704C228.532 218.191 228.227 217.729 227.826 217.359C227.425 216.989 226.94 216.723 226.413 216.582ZM221.544 214.677C221.388 212.754 223.558 213.603 224.373 214.242C225.035 214.755 225.881 215.403 226.151 216.243C225.641 215.613 224.925 215.184 224.129 215.029C223.432 214.864 222.307 215.06 222.041 215.847C221.742 215.528 221.566 215.113 221.544 214.677ZM226.042 216.521C224.905 216.591 223.201 216.734 222.246 216.017C222.297 215.843 222.392 215.686 222.522 215.56C222.652 215.434 222.812 215.344 222.987 215.299C223.486 215.14 224.026 215.171 224.504 215.386C225.133 215.574 225.677 215.976 226.042 216.521ZM224.299 217.391C223.597 217.504 222.595 217.182 222.316 216.443V216.36C223.187 216.991 224.582 216.882 225.693 216.795C225.27 217.09 224.789 217.291 224.281 217.387L224.299 217.391Z" fill="#010101"/>
<path d="M149.479 160.604V167.242L152.712 167.355L154.259 160.996L149.479 160.604Z" fill="white"/>
<path d="M152.965 167.69L149.156 167.555V160.252L154.661 160.687L152.965 167.69ZM149.806 166.928L152.46 167.024L153.854 161.287L149.801 160.952L149.806 166.928Z" fill="#010101"/>
<path d="M149.169 165.584C149.169 165.584 134.739 165.584 131.98 172.7L154.909 172.726C154.909 172.726 156.787 167.716 152.808 165.806C152.808 165.824 151.57 167.172 149.169 165.584Z" fill="#010101"/>
<path d="M155.031 171.952H139.259C139.285 170.379 138.931 168.823 138.226 167.416C138.156 167.281 137.951 167.416 138.017 167.537C138.703 168.905 139.047 170.418 139.019 171.948H132.164C132.132 171.948 132.102 171.96 132.08 171.982C132.058 172.004 132.046 172.034 132.046 172.065C132.046 172.096 132.058 172.126 132.08 172.148C132.102 172.17 132.132 172.183 132.164 172.183H139.015V172.718C139.015 172.896 139.237 172.87 139.25 172.718C139.263 172.565 139.25 172.361 139.25 172.183H155.031C155.055 172.174 155.076 172.159 155.091 172.138C155.105 172.118 155.113 172.093 155.113 172.067C155.113 172.042 155.105 172.017 155.091 171.997C155.076 171.976 155.055 171.96 155.031 171.952ZM145.504 165.758C145.525 165.756 145.544 165.747 145.56 165.733C145.576 165.719 145.587 165.701 145.591 165.68C145.957 164.28 143.961 159.839 142.004 161.265C141.337 161.753 141.359 162.836 141.634 163.575C141.333 164.219 141.847 165.097 142.349 165.489C142.744 165.788 143.225 165.951 143.721 165.954C143.715 165.972 143.714 165.99 143.719 166.008C143.724 166.026 143.734 166.042 143.748 166.054C144.118 166.359 144.412 166.746 144.604 167.186C144.796 167.625 144.882 168.103 144.854 168.581C144.854 168.734 145.085 168.734 145.094 168.581C145.118 168.091 145.031 167.602 144.839 167.15C144.648 166.698 144.356 166.296 143.987 165.972C144.393 165.955 144.797 165.906 145.194 165.824H145.229C145.229 165.824 145.229 165.854 145.255 165.863C145.686 166.175 146.03 166.59 146.255 167.071C146.48 167.552 146.578 168.082 146.541 168.612C146.541 168.764 146.768 168.764 146.781 168.612C146.818 168.068 146.72 167.524 146.498 167.027C146.275 166.529 145.934 166.094 145.504 165.758ZM141.795 162.088C142.41 160.261 144.066 161.896 144.567 162.796C144.972 163.527 145.491 164.458 145.408 165.332C145.185 164.555 144.698 163.88 144.031 163.423C143.456 162.988 142.34 162.731 141.786 163.345C141.638 162.938 141.641 162.492 141.795 162.088ZM145.19 165.567C144.118 165.184 142.497 164.645 141.904 163.61C142.019 163.469 142.168 163.361 142.338 163.296C142.508 163.231 142.692 163.212 142.872 163.24C143.393 163.292 143.876 163.535 144.227 163.923C144.729 164.337 145.07 164.915 145.19 165.554V165.567ZM143.233 165.672C142.54 165.498 141.747 164.802 141.786 164.014C141.786 163.98 141.786 163.962 141.808 163.932C142.362 164.858 143.682 165.306 144.737 165.672C144.24 165.767 143.729 165.763 143.233 165.658V165.672ZM147.565 162.04C147.419 161.916 147.299 161.762 147.215 161.59C147.131 161.418 147.083 161.23 147.076 161.038C147.068 160.846 147.1 160.655 147.17 160.476C147.24 160.298 147.346 160.135 147.482 160C147.504 159.532 147.619 159.074 147.822 158.651C148.097 158.29 156.931 160.609 156.974 161.94C157.018 163.271 156.068 163.318 156.068 163.318C156.068 163.318 156.809 164.51 155.632 164.393C154.455 164.275 150.11 163.888 147.565 162.04Z" fill="#010101"/>
<path d="M192.323 27.8936C192.985 27.8675 193.962 29.1462 193.282 29.9378C192.9 30.2703 192.434 30.4915 191.935 30.5772C191.935 30.6251 192.75 31.5645 191.669 32.1648C190.706 32.6997 189.42 31.8168 188.392 31.6472C185.315 31.1383 182.94 31.9038 182.848 32.5171C182.757 33.1303 184.112 33.7001 184.818 33.6218C185.013 33.5923 185.211 33.6174 185.392 33.6942C185.573 33.771 185.729 33.8966 185.842 34.0568C186.104 34.4917 185.842 34.7875 185.559 35.018C185.054 35.4095 182.718 35.4791 181.763 34.7483C177.841 31.7559 177.558 36.623 175.466 31.5384C175.169 30.8121 177.732 28.3372 181.131 26.3713C183.838 25.136 189.412 23.6137 190 25.7276C191.756 25.2622 193.256 26.7758 192.323 27.8936Z" fill="white"/>
<path d="M184.038 35.6226C183.17 35.663 182.31 35.4434 181.567 34.9919C179.898 33.7175 178.974 33.9698 178.225 34.1699C176.991 34.5091 176.285 34.3656 175.174 31.6472C174.695 30.4772 178.225 27.6631 180.975 26.0799C182.897 25.21 187.446 23.7051 189.421 24.6272C189.755 24.7678 190.032 25.0178 190.205 25.3361C190.675 25.2503 191.159 25.2992 191.602 25.477C192.044 25.6549 192.428 25.9544 192.707 26.3409C192.839 26.5372 192.92 26.7635 192.942 26.999C192.964 27.2345 192.926 27.4718 192.833 27.6892C193.193 27.8892 193.484 28.1922 193.67 28.5591C193.809 28.8027 193.871 29.0827 193.848 29.3622C193.825 29.6418 193.717 29.9077 193.539 30.1249C193.229 30.4262 192.848 30.6459 192.432 30.7643C192.508 30.9114 192.554 31.0726 192.565 31.2379C192.576 31.4032 192.552 31.5689 192.496 31.7249C192.44 31.8808 192.353 32.0235 192.239 32.1441C192.125 32.2647 191.988 32.3606 191.835 32.4258C191.055 32.8607 190.149 32.5345 189.351 32.2431C189.024 32.1169 188.687 32.0166 188.344 31.943C185.376 31.4558 183.315 32.2039 183.175 32.5388C183.198 32.5973 183.233 32.6495 183.28 32.6911C183.702 33.0519 184.237 33.2536 184.792 33.2609C185.049 33.2245 185.311 33.2611 185.547 33.3665C185.784 33.4719 185.986 33.6418 186.13 33.8567C186.335 34.1916 186.44 34.7266 185.769 35.2355C185.24 35.5249 184.64 35.6591 184.038 35.6226ZM179.244 33.3522C179.942 33.3522 180.818 33.5914 181.981 34.4787C182.853 35.1398 185.032 35.0267 185.376 34.7484C185.721 34.47 185.673 34.3613 185.581 34.2134C185.502 34.1051 185.393 34.0209 185.269 33.9702C185.144 33.9195 185.008 33.9043 184.875 33.9263C184.109 33.9563 183.362 33.6827 182.796 33.1652C182.696 33.078 182.619 32.9679 182.571 32.8445C182.524 32.721 182.507 32.5877 182.522 32.4562C182.545 32.346 182.591 32.2418 182.656 32.1498C182.721 32.0579 182.805 31.9801 182.901 31.9212C183.72 31.3297 185.952 30.9208 188.436 31.3297C188.816 31.4089 189.189 31.5195 189.551 31.6602C190.253 31.9125 190.977 32.1778 191.504 31.8864C191.592 31.8472 191.671 31.7908 191.737 31.7206C191.803 31.6504 191.854 31.5678 191.887 31.4776C191.906 31.2386 191.834 31.0014 191.687 30.8121L191.639 30.7382L191.604 30.5946V30.2728H191.927C192.338 30.195 192.723 30.0156 193.047 29.7508C193.137 29.6253 193.189 29.4762 193.196 29.3217C193.203 29.1672 193.165 29.0141 193.086 28.8809C192.903 28.5025 192.55 28.2242 192.345 28.2329L191.608 28.2633L192.084 27.7022C192.207 27.5692 192.282 27.3982 192.295 27.2172C192.309 27.0362 192.26 26.856 192.158 26.7062C191.921 26.3971 191.596 26.1679 191.225 26.0496C190.854 25.9314 190.455 25.9298 190.083 26.0451L189.778 26.1234L189.691 25.8189C189.652 25.6861 189.584 25.5639 189.49 25.462C189.396 25.3602 189.28 25.2813 189.15 25.2317C187.625 24.5184 183.59 25.6101 181.271 26.6714C177.676 28.7505 175.684 30.9948 175.78 31.4254C176.8 33.9089 177.227 33.7915 178.063 33.5653C178.439 33.4407 178.831 33.369 179.227 33.3522H179.244Z" fill="#010101"/>
<path d="M161.11 72.2491C147.517 70.0439 151.958 56.4779 159.415 46.6177C162.871 42.0507 167.321 35.3091 172.394 32.508C175.858 30.5855 175.836 32.3645 179.258 34.039C176.333 38.4146 173.553 43.0511 171.531 47.9138C168.863 54.3336 169.535 56.4562 178.068 53.6899C185.581 51.2498 199.449 44.2516 205.406 52.82C217.187 69.7394 169.116 73.6539 161.11 72.2491Z" fill="#C0C0C0"/>
<path d="M177.209 71.784C177.209 71.784 177.501 61.5366 188.976 54.012C188.976 54.012 193.713 47.6357 201.924 49.1624C201.924 49.1624 202.19 67.5998 192.99 69.8397C187.821 71.0867 182.526 71.739 177.209 71.784Z" fill="#010101"/>
<path d="M235.001 110.694C230.366 111.433 225.988 111.99 221.84 112.361C221.228 112.426 220.64 112.491 220.048 112.521C214.498 113.012 208.922 113.227 203.346 113.165C202.72 113.165 202.094 113.165 201.487 113.134C192.902 112.923 170.931 100.309 170.931 100.309C171.379 97.2166 173.017 86.5371 173.874 81.8559C173.98 81.2945 174.086 80.7503 174.178 80.2192C175.502 73.3744 176.947 67.6525 178.845 63.0188C179.062 62.5049 179.274 61.991 179.505 61.4944C183.672 52.3911 189.916 47.8524 200.986 47.4378C208.443 47.1441 214.291 49.4372 218.853 53.3023C219.205 53.5916 219.566 53.9112 219.903 54.235C223.588 57.6898 226.397 62.1853 228.526 67.1558C228.719 67.6352 228.936 68.1318 229.114 68.6284C231.421 74.4152 232.852 80.7201 233.729 86.6493C233.801 87.1589 233.873 87.6728 233.96 88.1738C234.533 92.5786 234.837 96.7329 234.981 100.227C235.02 100.788 235.034 101.336 235.054 101.863C235.213 107.201 235.001 110.694 235.001 110.694Z" fill="#C0C0C0"/>
<path d="M230.737 111.699L234.868 111.016C234.868 111.016 235.687 81.3047 229.242 69.1958L223.803 73.6149C223.803 73.6149 226.535 83.2359 228.161 90.4516L230.737 111.699Z" fill="#010101"/>
<path d="M214.737 49.462C214.737 49.462 215.73 64.6852 225.663 80.0301L227.07 85.8932C227.07 85.8932 225.645 84.3013 221.444 77.403C215.778 68.0691 214.092 49.1924 214.092 49.1924L214.737 49.462Z" fill="#010101"/>
<path d="M199.58 47.8313C199.58 47.8313 202.012 52.1503 209.399 47.6443C209.399 47.6443 207.891 43.7298 209.076 39.6108L201.537 41.4289C201.537 41.4289 202.282 44.2517 199.58 47.8313Z" fill="white"/>
<path d="M203.458 50.0232C202.954 50.024 202.452 49.9612 201.963 49.8362C200.869 49.5859 199.913 48.9237 199.296 47.9877L199.191 47.805L199.318 47.6353C201.88 44.2384 201.244 41.5461 201.24 41.52L201.157 41.2025L209.542 39.1626L209.381 39.6889C208.243 43.6338 209.681 47.4831 209.695 47.5179L209.795 47.7658L209.564 47.9094C207.276 49.3186 205.227 50.0232 203.458 50.0232ZM199.972 47.8485C200.522 48.5389 201.29 49.0245 202.151 49.2273C203.99 49.697 206.3 49.1229 209.01 47.5179C208.23 45.1094 208.098 42.5385 208.627 40.0629L201.928 41.694C202.037 42.5291 202.098 44.9082 199.976 47.8354L199.972 47.8485Z" fill="#010101"/>
<path d="M265.497 80.5481C265.584 79.974 265.675 79.3955 265.745 78.8083C266.044 76.4104 266.189 73.9959 266.181 71.5795L264.817 70.379L263.422 69.1612L261.082 67.1126C259.999 69.8354 258.687 72.4617 257.159 74.9634C256.876 75.4288 256.575 75.9029 256.253 76.3552C254.253 79.3389 253.429 82.0095 251.167 80.8917C249.341 80.0001 247.711 78.443 246.207 76.6466C245.863 76.2117 245.532 75.8072 245.201 75.3722C243.527 73.1323 234.977 61.5714 234.977 61.5714C230.91 56.9827 226.191 52.8507 221.75 51.4241C215.892 49.5408 213.635 48.9971 213.635 48.9971C214.685 54.3904 214.872 61.6105 216.786 65.873C217.059 66.5225 217.349 67.1546 217.657 67.7694C220.44 73.5137 224.132 78.7729 228.592 83.3448C229.054 83.8232 229.516 84.2785 229.978 84.7105C236.206 90.6432 242.364 93.7748 245.667 94.7665C247.618 95.3528 249.625 95.7347 251.655 95.9061C252.226 95.9539 252.775 95.9757 253.311 95.98C260.031 96.0104 264.542 86.0763 265.497 80.5481Z" fill="#C0C0C0"/>
<path d="M268.342 69.2656C265.688 67.6918 262.763 66.6268 259.717 66.1253L258.192 68.5001C258.192 68.5001 267.81 72.6538 268.385 73.1453L268.342 69.2656ZM180.05 34.2307C180.05 34.2307 175.444 29.8812 173.217 30.2031L171.099 32.2908L178.669 36.4967L180.05 34.2307Z" fill="#010101"/>
<path d="M206.483 24.9011C210.318 25.7492 212.466 30.7816 211.277 36.1444C210.087 41.5073 206.021 45.1696 202.185 44.3301C198.35 43.4907 196.202 38.4497 197.392 33.0868C198.581 27.7239 202.647 24.0573 206.483 24.9011Z" fill="white"/>
<path d="M203.28 44.7695C202.885 44.7694 202.492 44.7256 202.108 44.639C198.102 43.7692 195.841 38.5498 197.065 33.0129C198.29 27.4761 202.539 23.7007 206.544 24.5837C210.549 25.4536 212.811 30.6729 211.586 36.2098C210.493 41.1986 206.919 44.7695 203.28 44.7695ZM205.359 25.1013C202.029 25.1013 198.734 28.4634 197.697 33.1521C196.551 38.3323 198.595 43.2037 202.247 44.0258C205.899 44.8478 209.808 41.2682 210.963 36.088C212.118 30.9078 210.065 26.0364 206.413 25.2143C206.07 25.1402 205.719 25.1023 205.367 25.1013H205.359Z" fill="#010101"/>
<path d="M199.358 32.7954C199.358 32.7954 196.774 36.0184 195.941 37.906C195.911 37.9732 195.895 38.046 195.896 38.1197C195.896 38.1934 195.912 38.2661 195.943 38.3329C195.974 38.3998 196.019 38.4592 196.075 38.5071C196.131 38.555 196.197 38.5903 196.268 38.6106C197.183 38.876 199.031 39.3762 199.824 39.324C200.896 39.2544 199.358 32.7954 199.358 32.7954Z" fill="white"/>
<path d="M199.706 39.65C198.508 39.5337 197.326 39.2888 196.18 38.9193C196.065 38.8867 195.957 38.8296 195.866 38.752C195.775 38.6744 195.701 38.5781 195.65 38.4696C195.599 38.3611 195.572 38.2429 195.571 38.1232C195.57 38.0034 195.595 37.8848 195.644 37.7754C196.485 35.8703 199 32.7257 199.104 32.5908L199.518 32.0732L199.671 32.7213C199.989 34.0522 200.978 38.4713 200.281 39.3977C200.232 39.4692 200.167 39.5287 200.092 39.5716C200.016 39.6145 199.932 39.6399 199.845 39.6457L199.706 39.65ZM199.196 33.5303C198.433 34.522 196.842 36.6619 196.237 38.0364C196.224 38.0606 196.218 38.0875 196.218 38.1146C196.218 38.1418 196.224 38.1687 196.237 38.1929C196.248 38.2185 196.264 38.2411 196.286 38.2592C196.307 38.2773 196.332 38.2903 196.359 38.2973C197.474 38.6682 198.63 38.9048 199.802 39.0019C200.063 38.7105 199.793 36.2748 199.196 33.5303Z" fill="#010101"/>
<path d="M210.144 32.1863C209.597 32.1644 209.071 31.9648 208.648 31.6178C208.225 31.2708 207.927 30.7954 207.799 30.2638C207.18 28.2935 204.613 28.437 202.752 29.3939C200.891 30.3508 197.88 30.7466 195.779 29.5505C194.184 28.6371 192.293 25.4055 195.243 23.1916C197.937 21.1821 204.87 20.5514 207.036 20.9559C210.959 21.6954 215.626 26.8408 214.811 31.6121C214.236 34.9786 212.336 40.3111 209.582 40.2632C210.318 36.7445 211.251 34.4349 210.144 32.1863Z" fill="#010101"/>
<path d="M209.321 34.183C209.321 34.183 210.785 32.6042 211.905 33.8698C213.025 35.1355 211.303 39.1501 209.39 37.8192C207.477 36.4882 209.321 34.183 209.321 34.183Z" fill="white"/>
<path d="M209.215 41.4293C209.9 40.2854 210.026 39.5764 210.087 38.1541C209.405 35.9355 209.193 33.5998 209.464 31.295C209.547 30.6469 208.531 31.0253 208.531 31.0253C208.531 31.0253 204.665 43.6605 197.422 38.937C197.422 38.937 197.021 42.4166 197.989 43.5909C200.364 46.4833 205.659 45.3307 207.276 44.0607C208.056 43.2896 208.71 42.4017 209.215 41.4293Z" fill="#010101"/>
<path d="M198.616 31.8604L199.749 39.8155L201.846 39.5415L201.907 37.7887L201.92 31.6733L198.616 31.8604ZM270.482 60.5973C270.527 60.3244 270.485 60.0441 270.36 59.797L270.273 59.6317C269.924 59.5469 269.568 59.4974 269.209 59.4838C267.671 59.4403 267.627 60.4276 268.891 61.0366C269.227 61.1975 269.541 61.3671 269.824 61.5281C269.997 61.4327 270.146 61.2993 270.26 61.1381C270.374 60.9769 270.45 60.792 270.482 60.5973ZM269.846 62.0239C269.818 61.9549 269.783 61.8893 269.741 61.8282L269.161 61.5194C268.447 61.1236 266.782 60.6495 266.49 61.1888C265.928 62.1892 268.006 63.1461 269.275 63.7985C269.43 63.7207 269.569 63.6128 269.682 63.481C269.795 63.3492 269.881 63.1961 269.934 63.0309C269.987 62.8656 270.006 62.6915 269.991 62.5185C269.976 62.3456 269.927 62.1775 269.846 62.0239ZM269.493 65.2556C269.547 64.9175 269.481 64.571 269.305 64.2769L269.192 64.0942C268.429 64.0073 267.248 63.6593 266.882 63.755C264.86 64.2552 267.287 65.5513 268.669 66.3429C268.885 66.2427 269.073 66.0912 269.216 65.9016C269.36 65.7121 269.455 65.4902 269.493 65.2556ZM268.621 66.73C268.577 66.6691 268.547 66.6343 268.547 66.6343C267.636 66.4865 266.533 66.1559 266.926 67.2215C267.083 67.6347 267.558 67.9609 268.172 68.2523C269.192 67.7522 268.795 66.991 268.621 66.73Z" fill="white"/>
</svg>
