<svg width="270" height="255" viewBox="0 0 270 255" fill="none" xmlns="http://www.w3.org/2000/svg">
<path d="M126.093 254.086C166.045 255.395 237.943 242.753 259.363 167.184C280.784 91.6151 203.157 109.034 176.065 25.7103C155.869 -36.3958 -23.9785 17.1048 17.3211 176.658C35.4765 246.806 91.4207 252.951 126.093 254.086Z" fill="url(#paint0_linear_100_8944)"/>
<path d="M220.944 72.8669C191.807 52.539 192.146 36.5349 196.554 23.6945C201.547 9.13457 256.619 34.824 268.088 81.4131C279.556 128.002 236.342 83.6238 220.944 72.8669Z" fill="url(#paint1_linear_100_8944)"/>
<path d="M17.3213 252.685H256.568V254.501H17.3213V252.685Z" fill="#374151"/>
<path d="M111.236 156.512H143.108V246.061H111.236V156.512Z" fill="#ABB7C2"/>
<path d="M111.236 196.91H143.109V211.872H111.236V196.91ZM80.7104 252.684C83.1159 246.726 105.553 242.059 132.89 242.059C160.227 242.059 182.664 246.717 185.069 252.684H80.7104Z" fill="#4B5563"/>
<path d="M226.521 79.7106V192.92C226.522 194.626 226.186 196.315 225.533 197.891C224.881 199.467 223.924 200.899 222.718 202.104C221.511 203.31 220.079 204.267 218.503 204.919C216.927 205.571 215.238 205.906 213.532 205.905H12.9929C11.2872 205.905 9.59813 205.57 8.02206 204.918C6.44598 204.265 5.01381 203.309 3.8073 202.103C2.60079 200.898 1.64359 199.466 0.990329 197.89C0.337072 196.315 0.000558828 194.626 2.77183e-06 192.92V79.7106C-0.00111237 78.0044 0.334261 76.3147 0.986927 74.7383C1.63959 73.1619 2.59674 71.7297 3.80358 70.5237C5.01042 69.3176 6.44325 68.3614 8.02009 67.7098C9.59691 67.0581 11.2868 66.7239 12.9929 66.7261H213.532C213.795 66.7261 214.057 66.7261 214.312 66.7515C217.614 66.951 220.716 68.4029 222.985 70.811C225.254 73.2191 226.518 76.402 226.521 79.7106Z" fill="#374151"/>
<path d="M234.724 79.7105V192.92C234.724 193.946 234.6 194.969 234.356 195.965C233.676 198.801 232.061 201.325 229.77 203.13C227.48 204.935 224.648 205.915 221.731 205.913H21.1835C21.1102 205.917 21.0367 205.917 20.9633 205.913C17.5565 205.859 14.3078 204.466 11.9188 202.037C9.52977 199.608 8.19217 196.336 8.19483 192.929V79.7105C8.19595 76.2665 9.5649 72.9638 12.0006 70.5289C14.4364 68.0939 17.7394 66.7261 21.1835 66.7261H221.731C222.053 66.7261 222.375 66.7261 222.693 66.7642C225.962 67.0057 229.019 68.4743 231.25 70.8755C233.481 73.2766 234.723 76.4326 234.724 79.7105Z" fill="#ABB7C2"/>
<path d="M214.019 74.3579H28.8821C22.5226 74.3579 17.3672 79.5133 17.3672 85.8728V186.759C17.3672 193.118 22.5226 198.274 28.8821 198.274H214.019C220.378 198.274 225.534 193.118 225.534 186.759V85.8728C225.534 79.5133 220.378 74.3579 214.019 74.3579Z" fill="white"/>
<path d="M214.019 74.6754C216.989 74.6788 219.836 75.86 221.936 77.96C224.036 80.06 225.217 82.9072 225.22 85.877V186.759C225.217 189.728 224.036 192.576 221.936 194.676C219.836 196.776 216.989 197.957 214.019 197.96H28.8863C25.9161 197.958 23.0683 196.777 20.9681 194.677C18.8678 192.577 17.687 189.729 17.6847 186.759V85.877C17.687 82.9068 18.8678 80.059 20.9681 77.9588C23.0683 75.8586 25.9161 74.6777 28.8863 74.6754H214.019ZM214.019 74.0444H28.8863C25.7481 74.0444 22.7384 75.2911 20.5194 77.5101C18.3004 79.7291 17.0537 82.7388 17.0537 85.877V186.759C17.0537 188.313 17.3598 189.851 17.9544 191.287C18.5491 192.722 19.4206 194.027 20.5194 195.126C21.6181 196.224 22.9226 197.096 24.3581 197.69C25.7937 198.285 27.3324 198.591 28.8863 198.591H214.019C215.573 198.591 217.111 198.285 218.547 197.69C219.982 197.096 221.287 196.224 222.386 195.126C223.484 194.027 224.356 192.722 224.951 191.287C225.545 189.851 225.851 188.313 225.851 186.759V85.877C225.851 82.7388 224.605 79.7291 222.386 77.5101C220.167 75.2911 217.157 74.0444 214.019 74.0444Z" fill="#010101"/>
<g opacity="0.3">
<path d="M30.6182 126.117L26.0825 138.75L33.7987 142.321C33.2977 146.244 33.4898 150.224 34.3662 154.081L27.0185 158.333L32.7357 170.462L40.7017 167.498C43.1199 170.628 46.0684 173.31 49.4131 175.421L47.2405 183.633L59.8735 188.173L63.4266 180.457C67.3432 180.958 71.3172 180.773 75.1703 179.91L79.4391 187.254L91.5724 181.537L88.6079 173.571C91.7368 171.152 94.4172 168.204 96.5273 164.859L104.743 167.032L109.279 154.399L101.567 150.846C102.063 146.922 101.871 142.942 100.999 139.085L108.343 134.816L102.626 122.687L94.6597 125.63C92.2393 122.503 89.2912 119.823 85.9483 117.711L88.1209 109.495L75.4879 104.959L71.9686 112.676C68.0471 112.173 64.0678 112.364 60.2123 113.239L55.9392 105.9L43.8314 111.613L46.7958 119.579C43.6699 122 40.99 124.948 38.8764 128.29L30.6182 126.117ZM75.8902 123.776C80.3992 125.395 84.3266 128.316 87.1757 132.168C90.0248 136.02 91.6676 140.63 91.8965 145.416C92.1254 150.201 90.93 154.948 88.4616 159.054C85.9931 163.16 82.3624 166.442 78.0286 168.485C73.6948 170.528 68.8526 171.24 64.1142 170.53C59.3759 169.821 54.9543 167.723 51.4085 164.501C47.8628 161.278 45.3521 157.077 44.1941 152.428C43.0361 147.779 43.2827 142.891 44.9028 138.382C47.077 132.337 51.5624 127.403 57.373 124.664C63.1836 121.925 69.844 121.606 75.8902 123.776Z" fill="#ABB7C2"/>
</g>
<g opacity="0.3">
<path d="M126.698 96.1592L123.335 105.514L129.053 108.148C128.685 111.055 128.828 114.003 129.476 116.86L124.034 120.019L128.269 129.006L134.173 126.825C135.962 129.143 138.146 131.128 140.623 132.69L139.013 138.776L148.373 142.138L151.003 136.421C153.909 136.787 156.857 136.643 159.714 135.998L162.878 141.44L171.86 137.205L169.675 131.31C171.994 129.515 173.98 127.326 175.54 124.843L181.626 126.452L184.988 117.097L179.271 114.463C179.637 111.556 179.493 108.609 178.848 105.751L184.29 102.588L180.055 93.6055L174.151 95.7865C172.359 93.4705 170.176 91.4855 167.701 89.9211L169.31 83.8354L159.96 80.4897L157.33 86.19C154.425 85.822 151.478 85.9653 148.623 86.6135L145.472 81.1673L136.485 85.4023L138.666 91.3059C136.338 93.0948 134.341 95.2777 132.767 97.7558L126.698 96.1592ZM160.231 94.4271C163.571 95.6273 166.48 97.7909 168.59 100.644C170.7 103.498 171.917 106.913 172.086 110.458C172.255 114.003 171.369 117.519 169.54 120.56C167.712 123.602 165.022 126.033 161.811 127.545C158.601 129.058 155.014 129.585 151.504 129.059C147.994 128.533 144.719 126.979 142.093 124.591C139.467 122.204 137.608 119.092 136.75 115.648C135.893 112.204 136.076 108.583 137.277 105.243C138.073 103.025 139.298 100.985 140.882 99.2401C142.467 97.4953 144.379 96.0796 146.511 95.074C148.642 94.0684 150.951 93.4926 153.305 93.3794C155.659 93.2662 158.012 93.6179 160.231 94.4144V94.4271Z" fill="#ABB7C2"/>
</g>
<g opacity="0.3">
<path d="M169.798 159.684L167.329 166.553L171.526 168.484C171.252 170.618 171.357 172.782 171.835 174.879L167.837 177.2L170.946 183.798L175.282 182.197C176.596 183.899 178.199 185.357 180.017 186.504L178.836 190.972L185.705 193.437L187.636 189.24C189.771 189.507 191.936 189.403 194.035 188.931L196.356 192.924L202.95 189.816L201.349 185.484C203.051 184.17 204.509 182.567 205.656 180.749L210.124 181.93L212.588 175.061L208.396 173.126C208.667 170.993 208.563 168.828 208.087 166.731L212.08 164.41L208.972 157.812L204.639 159.417C203.325 157.715 201.722 156.256 199.905 155.106L201.086 150.642L194.213 148.173L192.282 152.37C190.15 152.097 187.987 152.2 185.891 152.675L183.587 148.673L176.989 151.782L178.594 156.114C176.886 157.431 175.423 159.038 174.27 160.861L169.798 159.684ZM194.416 158.414C196.867 159.295 199.001 160.884 200.549 162.979C202.097 165.074 202.989 167.58 203.112 170.182C203.236 172.784 202.585 175.364 201.243 177.595C199.9 179.827 197.926 181.611 195.569 182.721C193.213 183.831 190.581 184.218 188.005 183.832C185.429 183.446 183.026 182.305 181.098 180.553C179.171 178.801 177.806 176.517 177.176 173.99C176.547 171.463 176.68 168.805 177.561 166.354C178.146 164.726 179.046 163.228 180.21 161.948C181.373 160.668 182.778 159.629 184.343 158.891C185.908 158.154 187.604 157.732 189.332 157.65C191.06 157.568 192.788 157.828 194.416 158.414Z" fill="#ABB7C2"/>
</g>
<path d="M237.172 90.8147C237.062 90.7893 236.884 90.641 236.719 90.2938C236.503 89.8483 236.43 89.3466 236.511 88.8581C236.799 88.689 237.123 88.589 237.456 88.5659C237.607 88.5603 237.756 88.6057 237.878 88.6948C238 88.7839 238.088 88.9116 238.129 89.0572C238.221 89.26 238.261 89.4828 238.244 89.7049C238.227 89.927 238.154 90.1413 238.032 90.3276C237.949 90.4625 237.836 90.5768 237.703 90.6619C237.569 90.747 237.418 90.8007 237.261 90.8189L237.172 90.8147Z" fill="white"/>
<path d="M57.5153 221.163C53.0982 221.163 38.6865 220.994 38.6865 218.783C38.6865 216.573 53.0855 216.403 57.5153 216.403C61.9451 216.403 76.3398 216.573 76.3398 218.783C76.3398 220.994 61.9281 221.163 57.5153 221.163ZM39.9867 218.783C41.5197 219.393 47.8172 220.122 57.5153 220.122C67.2134 220.122 73.5066 219.393 75.0397 218.783C73.5066 218.174 67.2092 217.445 57.5153 217.445C47.8214 217.445 41.5197 218.174 39.9867 218.783Z" fill="#010101"/>
<path d="M38.9678 211.149C38.6538 208.229 39.0337 205.277 40.0747 202.534H74.9652C76.0061 205.277 76.3861 208.229 76.072 211.149C75.746 214.182 74.6816 217.088 72.9722 219.613C71.2628 222.139 68.9605 224.207 66.2666 225.636C63.5728 227.066 60.5696 227.813 57.5199 227.813C54.4703 227.813 51.4671 227.066 48.7732 225.636C46.0794 224.207 43.777 222.139 42.0676 219.613C40.3582 217.088 39.2939 214.182 38.9678 211.149Z" fill="white" stroke="black"/>
<path d="M75.298 202.034C75.298 203.588 67.3362 204.85 57.5111 204.85C47.6859 204.85 39.7241 203.58 39.7241 202.034C39.7241 200.488 47.6859 199.218 57.5111 199.218C67.3362 199.218 75.298 200.454 75.298 202.034Z" fill="#010101"/>
<path d="M73.5445 202.034C73.5445 203.181 66.3705 204.113 57.5151 204.113C48.6597 204.113 41.4814 203.181 41.4814 202.034C41.4814 200.886 48.6809 199.95 57.5151 199.95C66.3493 199.95 73.5445 200.861 73.5445 202.034Z" fill="#84605A"/>
<path opacity="0.42" d="M73.5534 208.475C73.5111 207.044 71.2793 207.035 71.3216 208.475C71.4232 211.863 70.9828 215.281 68.5223 217.839C67.5271 218.876 69.1025 220.456 70.1019 219.418C72.9648 216.433 73.672 212.481 73.5534 208.475Z" fill="white"/>
<path d="M57.5153 221.163C53.0982 221.163 38.6865 220.994 38.6865 218.783H39.7283C39.7302 218.72 39.7108 218.657 39.6733 218.605C40.3 219.241 46.8516 220.122 57.5153 220.122C68.179 220.122 74.7263 219.241 75.3573 218.605C75.3159 218.655 75.2948 218.719 75.298 218.783H76.3398C76.3398 220.994 61.9281 221.163 57.5153 221.163Z" fill="#010101"/>
<path d="M36.0014 252.833L34.9639 252.761L38.9448 219.059L39.9823 219.131L36.0014 252.833ZM78.1057 252.837L74.777 219.262L75.8146 219.186L79.1433 252.761L78.1057 252.837Z" fill="#010101"/>
<path d="M59.605 220.651L60.6466 220.63L61.3039 252.818L60.2624 252.839L59.605 220.651Z" fill="#010101"/>
<path d="M57.5148 203.728C56.0368 203.728 54.6011 203.698 53.2459 203.652L52.2253 203.614C45.1021 203.288 42.0868 202.453 41.8623 202.004C42.0656 201.67 44.632 200.903 50.6668 200.531L51.7298 200.476C53.3264 200.391 55.0628 200.344 56.888 200.332H57.896C58.9971 200.332 60.0685 200.353 61.1019 200.378L62.0717 200.416C62.6095 200.416 63.1389 200.467 63.6598 200.492L64.6592 200.543C71.2319 200.967 73.0318 201.814 73.1673 202.068C72.9641 202.407 70.3299 203.186 64.1172 203.55C63.7572 203.571 63.448 203.588 63.1304 203.597C62.6561 203.626 62.1945 203.643 61.7159 203.652C61.3898 203.673 61.0722 203.681 60.7419 203.69C60.0219 203.69 59.2808 203.72 58.5227 203.72H57.536L57.5148 203.728Z" fill="white"/>
<path d="M57.8959 200.691C58.8827 200.691 59.9287 200.691 61.0933 200.742H62.0547C62.5925 200.763 63.1219 200.793 63.6597 200.819L64.1383 200.844C64.3119 200.844 64.4813 200.865 64.6211 200.865C69.1271 201.17 71.3674 201.653 72.3118 201.979C71.3251 202.322 68.9238 202.826 64.0748 203.114L63.0923 203.16C62.6391 203.19 62.1817 203.207 61.6778 203.216C61.3686 203.216 61.0552 203.245 60.7291 203.254C60.0134 203.254 59.2765 203.283 58.5015 203.283H57.5148C56.1299 203.283 54.6943 203.258 53.2544 203.207H52.7377L52.2507 203.186C46.9527 202.944 43.9078 202.407 42.7135 201.992C43.6791 201.653 45.9914 201.145 50.6837 200.865H50.7981L51.751 200.814C53.3391 200.73 55.067 200.683 56.888 200.67L57.8959 200.691ZM57.8959 199.929H56.888C55.0712 199.929 53.3264 199.988 51.7086 200.073L50.6414 200.128C45.2291 200.463 41.4854 201.187 41.4854 202.013C41.4854 202.928 45.9702 203.707 52.2126 203.974C52.5471 203.974 52.8902 204.003 53.2332 204.012C54.5926 204.058 56.0325 204.088 57.5148 204.088H58.5142C59.2765 204.088 60.0177 204.088 60.7418 204.058C61.0764 204.058 61.3983 204.058 61.7117 204.02C62.1987 204.02 62.6645 203.995 63.1304 203.965C63.4734 203.965 63.808 203.935 64.1298 203.919C69.6819 203.592 73.5357 202.868 73.5357 202.021C73.5357 201.174 69.9275 200.501 64.6634 200.149C64.3416 200.149 64.007 200.111 63.6725 200.099C63.1515 200.073 62.6179 200.044 62.0759 200.022C61.7498 200.022 61.4364 199.997 61.106 199.984C60.0685 199.959 58.9886 199.938 57.8875 199.938L57.8959 199.929Z" fill="#010101"/>
<path d="M68.5091 183.908C66.7304 187.339 70.0887 190.684 73.2988 191.662C75.3548 192.288 77.522 192.462 79.6513 192.171C78.7366 190.993 77.8613 189.785 77.0256 188.545C76.1786 187.275 75.1834 186.089 74.2983 184.831C73.6927 183.984 73.0278 182.879 73.2692 181.782C73.4089 181.138 73.9214 180.228 74.6667 180.177C76.3353 180.067 77.1696 183.303 77.5677 184.476C78.5672 187.406 80.2696 189.558 82.5184 191.506C83.6829 191.117 84.7919 190.579 85.8175 189.905C87.3531 188.885 88.6627 187.56 89.6651 186.012C90.6676 184.465 91.3414 182.728 91.6448 180.91C91.7549 180.203 91.8566 179.262 91.9159 178.17C90.2026 179.054 88.353 179.644 86.4442 179.915C85.4617 180.042 83.6661 180.215 82.8614 179.491C81.917 178.644 83.2299 177.628 84.0684 177.505C85.0636 177.357 86.0885 177.59 87.0795 177.683C88.6687 177.817 90.2668 177.566 91.738 176.95C91.7728 176.935 91.8103 176.928 91.8481 176.928C91.8859 176.928 91.9233 176.935 91.9582 176.95C92.0344 173.223 91.5686 168.184 89.5231 163.822C87.6724 165.939 85.4617 167.595 83.2299 169.327C82.2601 170.081 81.142 171.076 79.8927 171.305C79.4057 171.394 78.3724 171.394 78.1987 170.775C77.826 169.607 80.7185 168.234 81.4893 167.862C83.9753 166.591 88.1552 165.465 88.5702 162.195C88.5771 162.152 88.593 162.11 88.6168 162.073C87.4378 160.057 85.814 158.338 83.8694 157.046C82.7679 156.315 81.5837 155.718 80.3416 155.267C80.1849 156.444 80.096 159.438 78.8043 159.362C77.826 159.303 77.3687 157.583 77.4915 156.821C77.6555 156.016 78.0942 155.293 78.7323 154.776C76.6962 154.309 74.5795 154.322 72.5492 154.814C71.6951 155.967 71.0092 157.236 70.5122 158.583C69.9828 160.158 69.9786 161.547 69.949 163.174C69.949 163.834 70.021 165.291 69.3052 165.715C69.0813 165.813 68.8305 165.833 68.5942 165.769C68.3578 165.706 68.15 165.564 68.0051 165.367C66.976 164.046 68.0856 161.175 68.5048 159.824C68.9001 158.403 69.3998 157.013 69.9998 155.665C66.8405 157.008 63.9946 159.337 61.6272 162.018C61.8397 162.884 62.1158 163.733 62.453 164.559C62.9485 165.685 63.6007 166.731 64.1682 167.824C64.2198 167.855 64.2599 167.903 64.2825 167.959C64.308 168.027 64.3249 168.095 64.3461 168.162C64.3658 168.2 64.376 168.243 64.3757 168.285C64.5282 169.06 64.3207 170.013 63.2873 169.649C62.3175 169.306 61.5002 167.701 60.992 166.854C60.494 166.05 60.0769 165.199 59.7469 164.313C57.045 167.951 55.2408 171.847 54.7072 174.583C54.2414 176.95 54.4701 179.665 55.8507 181.626C56.8584 181.254 57.7538 180.63 58.451 179.813C58.9465 179.173 59.2175 178.352 59.8485 177.814C60.56 177.208 61.623 177.437 61.6357 178.462C61.6357 179.711 60.3652 181.037 59.5817 181.85C59.0365 182.432 58.4188 182.941 57.7437 183.366C60.8226 185.183 65.0576 184.67 68.5091 183.908ZM85.1864 172.812C85.2489 172.455 85.415 172.123 85.6642 171.859C85.9134 171.595 86.2347 171.409 86.5882 171.326C87.1854 171.22 87.4352 171.788 87.4352 172.287C87.4325 172.5 87.4069 172.711 87.359 172.918C87.3806 172.949 87.395 172.985 87.4008 173.022C87.4067 173.06 87.404 173.098 87.3929 173.134C87.3075 173.553 87.0746 173.927 86.7365 174.189C86.6941 174.24 86.6518 174.286 86.6052 174.333C86.5775 174.359 86.5448 174.378 86.509 174.391C86.4732 174.403 86.4352 174.407 86.3975 174.404C86.3599 174.4 86.3234 174.388 86.2906 174.37C86.2578 174.351 86.2293 174.325 86.2071 174.295C86.1605 174.295 86.1139 174.295 86.0631 174.274C85.7755 174.162 85.5332 173.958 85.3744 173.693C85.2157 173.429 85.1496 173.119 85.1864 172.812ZM65.0575 173.494C65.2945 173.326 65.5716 173.224 65.8608 173.197C66.15 173.17 66.4412 173.22 66.705 173.342C66.705 173.342 66.705 173.342 66.7261 173.342C66.7669 173.354 66.8037 173.377 66.8327 173.409C66.8617 173.44 66.8819 173.478 66.8913 173.52C66.9798 173.809 66.987 174.116 66.9123 174.409C66.8376 174.702 66.6839 174.969 66.4678 175.18C66.373 175.271 66.2599 175.341 66.1361 175.384C66.0123 175.428 65.8805 175.446 65.7496 175.435C65.6187 175.424 65.4916 175.385 65.3766 175.322C65.2617 175.258 65.1616 175.171 65.083 175.066C64.7188 174.617 64.5832 173.914 65.0575 173.49V173.494Z" fill="#ABB7C2"/>
<path d="M30.5423 164.982C28.8052 165.638 26.995 166.082 25.1512 166.303C25.1512 166.337 25.1724 166.371 25.1851 166.409C25.3847 166.987 25.618 167.553 25.8839 168.103C28.1357 168.369 30.4142 167.925 32.4015 166.833C34.115 165.884 36.0611 165.436 38.0171 165.541C38.0666 165.541 38.1151 165.554 38.1578 165.579C38.2004 165.604 38.2354 165.64 38.2593 165.684C38.2831 165.727 38.2948 165.776 38.2932 165.825C38.2916 165.875 38.2767 165.923 38.25 165.965C37.4581 167.684 34.862 168.124 33.2019 168.412C30.9296 168.776 28.6338 168.972 26.3328 169.001C27.558 171.22 29.271 173.131 31.3428 174.591C31.6223 174.786 31.9018 174.968 32.1898 175.138C34.8874 175.277 37.6021 174.096 39.9186 172.821C40.592 172.448 42.43 171.305 42.6586 172.719C42.9212 174.358 41.1341 175.163 39.8509 175.417C38.6735 175.65 37.4623 175.718 36.2765 175.917C35.6709 176.014 35.0738 176.124 34.4767 176.239C40.4353 178.454 50.1207 178.356 50.0529 168.878C50.0529 168.836 59.0819 174.197 58.921 163.83C58.5229 164.021 58.1248 164.207 57.714 164.376C56.7061 164.8 54.7284 165.736 53.6781 164.969C52.3695 164.021 53.8814 162.17 54.7665 161.581C56.0073 160.756 57.2482 160.273 58.3239 159.184C59.3579 158.114 60.2921 156.952 61.1147 155.712C61.3281 153.978 61.2234 152.22 60.8056 150.524C59.8061 146.712 56.7061 144.171 53.4409 142.232L53.2842 142.147C53.6645 143.259 53.891 144.417 53.9576 145.59C54.0974 147.593 54.3811 149.647 53.9068 151.629C53.6019 152.959 52.1789 156.533 50.3579 156.216C48.198 155.843 50.8745 152.451 51.3319 151.722C53.4494 148.389 53.6696 144.857 52.0392 141.452C47.711 139.144 42.989 137.785 38.1696 136.836C39.6497 138.76 40.795 140.919 41.5576 143.223C42.0192 144.713 43.1499 149.177 40.7571 149.821C38.4957 150.426 39.0886 145.463 39.0081 144.514C38.7413 141.181 37.0896 138.505 34.7731 136.231C32.6556 135.883 30.5169 135.587 28.4206 135.295C28.3517 135.279 28.2792 135.29 28.2179 135.325C28.1566 135.36 28.111 135.418 28.0903 135.485C27.6033 137.603 27.1162 139.72 26.6589 141.859C26.7791 142.267 26.9205 142.668 27.0824 143.062C27.3492 143.714 28.0014 144.264 28.1792 144.938C28.2936 145.383 28.0818 146.056 27.5143 145.967C26.9468 145.878 26.4641 144.874 26.2438 144.404L26.1676 144.256C25.6298 146.937 25.1597 149.63 24.8166 152.345C24.7785 152.646 24.7447 152.95 24.7065 153.255C25.9134 154.723 27.5219 155.808 29.3354 156.377C31.0294 156.902 32.9309 156.8 34.3623 157.969C34.4105 158.021 34.4374 158.089 34.4374 158.159C34.4374 158.23 34.4105 158.298 34.3623 158.35C33.041 159.887 30.5 158.723 29.022 158.032C27.3395 157.215 25.8198 156.099 24.5371 154.738C24.1475 158.409 23.9866 162.246 25.0072 165.77C26.8573 165.557 28.6738 165.116 30.4153 164.457C30.7245 164.343 30.8642 164.863 30.5423 164.982ZM33.3459 146.454C33.0835 146.525 32.8076 146.53 32.5429 146.468C32.2782 146.406 32.0332 146.279 31.8298 146.098C30.7795 145.251 31.6604 143.752 32.9182 143.943C33.1429 143.965 33.3542 144.06 33.5206 144.213C33.687 144.365 33.7996 144.568 33.8414 144.79C33.8756 144.805 33.9051 144.829 33.9267 144.86C33.9484 144.89 33.9613 144.926 33.9642 144.963C34.0532 145.556 33.9769 146.234 33.3459 146.454ZM45.3013 169.268C45.3608 169.167 45.4427 169.08 45.5406 169.016C45.6386 168.951 45.75 168.909 45.8664 168.894C45.9829 168.879 46.1012 168.891 46.2125 168.928C46.3237 168.966 46.4249 169.029 46.5083 169.111C46.7418 169.382 46.8696 169.728 46.8682 170.085C46.9055 170.101 46.9379 170.127 46.9623 170.159C46.9867 170.191 47.0022 170.23 47.0074 170.27C47.0125 170.31 47.0071 170.351 46.9916 170.388C46.9761 170.426 46.9511 170.458 46.919 170.483C46.7298 170.628 46.4954 170.701 46.2573 170.69C46.0193 170.678 45.7931 170.582 45.6189 170.42C45.4373 170.297 45.3056 170.114 45.2473 169.903C45.1891 169.691 45.2082 169.466 45.3013 169.268ZM45.2759 147.957C46.0551 147.504 47.008 147.75 47.1308 148.707C47.1899 149.387 47.0423 150.069 46.7073 150.664C46.7159 150.703 46.7159 150.743 46.7073 150.782C46.6184 151.345 46.3134 152.281 45.5554 151.913C44.9286 151.604 44.6237 150.672 44.522 150.041C44.4119 149.274 44.5475 148.381 45.2759 147.957ZM37.6529 158.524C37.7464 158.432 37.8586 158.363 37.9818 158.319C38.1049 158.275 38.2361 158.259 38.3662 158.271C38.4963 158.283 38.6222 158.324 38.7352 158.389C38.8482 158.455 38.9457 158.544 39.0208 158.651C39.0635 158.631 39.1102 158.622 39.1572 158.623C39.2041 158.625 39.25 158.638 39.2912 158.661C39.3324 158.683 39.3677 158.715 39.3943 158.754C39.4209 158.793 39.438 158.837 39.4443 158.884C39.5013 159.172 39.4607 159.472 39.3288 159.735C39.1969 159.998 38.9813 160.209 38.7159 160.336C38.4992 160.44 38.2555 160.474 38.0187 160.433C37.7819 160.392 37.5637 160.278 37.3946 160.108C37.0007 159.638 37.2717 158.901 37.6698 158.524H37.6529ZM75.8525 204.863C75.3375 205.925 74.9577 207.048 74.7217 208.204L74.654 208.179C74.2792 208.024 73.9131 207.848 73.5571 207.654C73.4937 206.211 73.9026 204.786 74.7217 203.597C75.4301 202.57 75.8231 201.358 75.8525 200.111C75.8532 200.08 75.846 200.05 75.8316 200.022C75.8172 199.995 75.7961 199.972 75.7703 199.955C75.7444 199.938 75.7147 199.928 75.6839 199.926C75.6531 199.923 75.6222 199.929 75.5942 199.942C74.4126 200.365 73.9976 201.983 73.7308 203.012C73.3716 204.428 73.1238 205.869 72.9896 207.323C71.5916 206.446 70.4079 205.267 69.5254 203.872C69.4111 203.686 69.3052 203.495 69.2078 203.309C69.2459 201.615 70.1564 199.921 71.1135 198.536C71.393 198.112 72.2358 197.024 71.3126 196.812C70.2411 196.562 69.6186 197.659 69.3899 198.447C69.1612 199.235 69.0723 199.946 68.8902 200.687C68.7942 201.06 68.6925 201.433 68.5852 201.805C67.4079 197.926 67.9288 191.806 74.2093 192.327C74.2432 192.327 71.1262 186.352 77.9827 186.974C77.8387 187.216 77.6947 187.461 77.5592 187.711C77.2331 188.325 76.5131 189.528 76.9705 190.252C77.538 191.125 78.8339 190.252 79.2659 189.731C79.8715 188.99 80.2526 188.228 81.0234 187.614C81.7864 187.013 82.6013 186.482 83.4585 186.026C84.617 185.98 85.7746 186.135 86.8804 186.483C89.3706 187.309 90.8867 189.397 92.0174 191.565L92.064 191.667C91.3435 191.371 90.5876 191.17 89.8152 191.07C88.4982 190.879 87.1514 190.608 85.8174 190.794C84.9196 190.921 82.4845 191.641 82.6073 192.806C82.7513 194.195 85.1229 192.675 85.6268 192.416C86.6778 191.845 87.8575 191.551 89.0538 191.564C90.2502 191.576 91.4234 191.895 92.4621 192.488C93.7167 195.35 94.5224 198.389 94.8506 201.496C93.6398 200.457 92.2663 199.624 90.785 199.031C89.8237 198.663 86.9185 197.727 86.3807 199.205C85.8682 200.607 89.1842 200.475 89.8068 200.577C92.0005 200.916 93.6987 202.093 95.092 203.673C95.2191 205.032 95.3122 206.396 95.4012 207.743C95.4054 207.765 95.4052 207.788 95.4004 207.81C95.3956 207.832 95.3865 207.853 95.3734 207.872C95.3604 207.89 95.3438 207.906 95.3245 207.918C95.3053 207.93 95.2838 207.938 95.2614 207.942C93.8342 208.145 92.4028 208.365 90.9714 208.526C90.7088 208.429 90.4505 208.319 90.1964 208.2C89.7729 207.997 89.4426 207.556 89.0064 207.408C88.7141 207.315 88.2568 207.408 88.2906 207.781C88.3245 208.154 88.964 208.497 89.2647 208.666L89.3621 208.721C87.558 208.924 85.7539 209.089 83.9371 209.145L83.3272 209.17C82.4234 208.346 81.7826 207.273 81.485 206.087C81.2182 204.99 81.3876 203.791 80.6761 202.826C80.6434 202.792 80.5997 202.772 80.553 202.768C80.5064 202.764 80.4599 202.777 80.422 202.805C79.3379 203.563 79.9985 205.227 80.3712 206.193C80.8369 207.308 81.5045 208.327 82.3405 209.2C79.8884 209.259 77.339 209.166 75.0521 208.353C75.287 207.192 75.6684 206.067 76.187 205.003C76.2887 204.782 75.9499 204.664 75.8525 204.863ZM88.261 204.016C88.2016 204.178 88.1852 204.353 88.2134 204.524C88.2416 204.695 88.3135 204.855 88.4219 204.99C88.5368 205.12 88.6891 205.212 88.858 205.253C89.0269 205.294 89.2043 205.282 89.3661 205.219C89.528 205.155 89.6664 205.044 89.7627 204.899C89.8589 204.754 89.9083 204.584 89.9042 204.41C89.8946 204.262 89.838 204.122 89.7427 204.009C89.6474 203.896 89.5185 203.817 89.3748 203.783C89.3658 203.76 89.3508 203.74 89.3314 203.725C89.312 203.711 89.289 203.701 89.2647 203.698C88.8878 203.626 88.4346 203.639 88.261 204.029V204.016ZM73.7308 195.313C73.7995 195.282 73.8599 195.236 73.9071 195.177C73.9543 195.119 73.9869 195.05 74.0022 194.976C74.0175 194.903 74.0151 194.826 73.9951 194.754C73.9752 194.681 73.9383 194.615 73.8875 194.559C73.7198 194.393 73.4965 194.295 73.2607 194.284C73.2524 194.258 73.2376 194.236 73.2177 194.218C73.1978 194.2 73.1736 194.187 73.1474 194.182C73.1212 194.176 73.094 194.178 73.0686 194.186C73.0431 194.194 73.0203 194.209 73.0023 194.229C72.8997 194.342 72.8428 194.489 72.8428 194.642C72.8428 194.794 72.8997 194.942 73.0023 195.055C73.0779 195.172 73.1905 195.262 73.3224 195.308C73.4542 195.355 73.5979 195.357 73.7308 195.313ZM87.8417 196.406C87.932 196.309 87.9942 196.19 88.0215 196.06C88.0488 195.931 88.0401 195.797 87.9965 195.672C87.9529 195.547 87.8759 195.437 87.774 195.353C87.672 195.268 87.549 195.214 87.4182 195.194C86.9738 195.123 86.5182 195.18 86.1054 195.36C86.0804 195.353 86.0542 195.353 86.0292 195.36C85.6523 195.385 85.0128 195.533 85.2203 196.029C85.3939 196.452 85.9995 196.681 86.4103 196.778C86.6592 196.863 86.9275 196.873 87.182 196.807C87.4364 196.741 87.6659 196.601 87.8417 196.406ZM80.4771 200.683C80.5432 200.631 80.5966 200.565 80.6333 200.489C80.67 200.414 80.6891 200.331 80.6891 200.247C80.6891 200.163 80.67 200.08 80.6333 200.004C80.5966 199.929 80.5432 199.863 80.4771 199.811C80.4908 199.784 80.4981 199.755 80.4985 199.725C80.4988 199.695 80.4921 199.666 80.4789 199.639C80.4657 199.612 80.4464 199.589 80.4225 199.571C80.3987 199.553 80.371 199.541 80.3416 199.535C80.1558 199.484 79.9586 199.495 79.7793 199.565C79.6 199.635 79.4481 199.761 79.3463 199.925C79.2671 200.057 79.233 200.211 79.249 200.363C79.2651 200.516 79.3305 200.66 79.4353 200.772C79.5938 200.876 79.7827 200.924 79.9716 200.907C80.1604 200.891 80.3384 200.812 80.4771 200.683Z" fill="#374151"/>
<path d="M23.7329 186.132C23.9319 186.305 24.1564 186.466 24.3554 186.623C25.3863 186.913 26.4584 187.029 27.5274 186.966C28.7979 186.877 30.0091 186.479 31.2627 186.276C32.2029 186.123 34.9895 186.242 34.3288 188.075C33.935 189.172 32.1647 189.388 30.962 189.49C31.582 189.723 32.1886 189.99 32.7788 190.29C34.3119 191.086 35.3579 192.23 36.4378 193.522C37.359 193.938 38.3538 194.167 39.3642 194.195C40.2493 194.195 40.7448 193.771 41.5198 193.454C42.1508 193.212 43.0487 193.267 42.7141 194.254C42.3795 195.241 40.9058 195.351 40.0461 195.381C39.3761 195.401 38.7055 195.377 38.0387 195.309C38.7573 196.024 39.681 196.498 40.6813 196.664C43.5484 197.087 45.7633 194.661 45.6362 191.717C48.6007 194 52.3868 193.187 54.8135 190.667C55.3563 190.15 55.7747 189.517 56.0373 188.815C56.2999 188.113 56.3999 187.361 56.3296 186.614C54.733 188.308 51.8913 190.629 50.6378 188.639C50.0364 187.677 51.2815 186.915 51.9083 186.555C53.255 185.784 54.7161 185.429 55.9569 184.552C55.5773 182.785 55.0691 181.048 54.4365 179.356C53.8082 177.643 52.9719 176.015 51.9464 174.506C51.8816 177.015 51.5321 179.509 50.9046 181.939C50.6928 182.697 50.0957 184.514 49.0835 183.561C47.6097 182.176 49.1216 179.686 49.6595 178.365C50.4091 176.527 50.5065 174.46 50.2312 172.436C49.653 171.842 49.0222 171.302 48.3466 170.822C46.318 169.448 44.0267 168.509 41.6172 168.065C41.8883 168.76 42.1254 169.463 42.3541 170.123C42.8962 171.703 43.6797 173.816 43.3578 175.497C43.1757 176.416 41.9857 177.352 41.3462 176.217C40.9227 175.497 41.2615 174.481 41.1937 173.715C41.0074 171.648 39.9487 169.581 39.017 167.786C38.9961 167.753 38.9844 167.715 38.9831 167.675C38.6273 167.637 38.2758 167.599 37.9286 167.574C35.9684 167.414 33.9976 167.438 32.0419 167.646C33.1303 168.438 34.0281 169.696 33.9265 171.102C33.8418 172.309 33.0202 173.837 31.7116 173.49C29.8524 172.995 29.5433 170.013 29.8313 167.985C28.5469 168.249 27.2986 168.665 26.113 169.225C24.5389 169.991 23.2734 171.272 22.5259 172.855C24.0463 174.782 25.9817 176.061 27.9594 177.378C28.4422 177.7 30.0091 178.767 29.1113 179.432C28.294 180.037 26.6847 178.538 26.0621 178.038C24.5037 176.768 23.4534 175.049 22.2506 173.431C21.8114 174.534 21.5416 175.698 21.4502 176.882C21.292 178.489 21.329 180.108 21.5603 181.706C23.6778 181.621 25.8885 179.766 27.8832 181.448C27.9113 181.475 27.9337 181.508 27.949 181.545C27.9643 181.581 27.9721 181.62 27.9721 181.659C27.9721 181.699 27.9643 181.738 27.949 181.774C27.9337 181.811 27.9113 181.844 27.8832 181.871C26.816 182.752 25.0076 182.536 23.7202 182.642C23.0849 182.693 22.4497 182.735 21.8102 182.773C22.0971 184.061 22.7674 185.232 23.7329 186.132ZM43.1461 182.655C43.082 182.315 43.0927 181.966 43.1776 181.631C43.2624 181.296 43.4193 180.983 43.6373 180.715C43.7246 180.607 43.8402 180.526 43.9711 180.48C44.1021 180.435 44.2431 180.427 44.3785 180.457C44.7554 180.563 44.9502 180.986 45.073 181.342C45.0827 181.384 45.0827 181.427 45.073 181.469C45.2895 181.92 45.3705 182.425 45.3059 182.921C45.2424 183.434 44.9714 184.111 44.4039 184.133C43.7601 184.158 43.2562 183.248 43.1461 182.655ZM35.9 177.695C35.6068 177.488 35.3949 177.184 35.3006 176.837C35.2064 176.49 35.2356 176.122 35.3833 175.794C35.4376 175.665 35.5215 175.552 35.6281 175.462C35.7348 175.372 35.8612 175.308 35.997 175.276C36.1329 175.245 36.2743 175.245 36.4098 175.279C36.5453 175.312 36.671 175.377 36.7766 175.468C36.8342 175.472 36.8891 175.494 36.9333 175.531C37.1938 175.742 37.3767 176.033 37.4534 176.359C37.5301 176.685 37.4961 177.027 37.3568 177.331C37.2974 177.463 37.2089 177.579 37.0981 177.672C36.9872 177.765 36.8568 177.831 36.7166 177.866C36.5764 177.901 36.4302 177.904 36.2887 177.874C36.1473 177.845 36.0144 177.784 35.9 177.695ZM40.279 188.592C40.3075 188.616 40.3305 188.646 40.3462 188.68C40.362 188.714 40.3701 188.752 40.3701 188.789C40.3701 188.826 40.362 188.863 40.3462 188.897C40.3305 188.931 40.3075 188.962 40.279 188.986C40.3891 189.23 40.43 189.5 40.3972 189.766C40.3643 190.032 40.259 190.284 40.0926 190.494C39.6268 191.002 38.8222 190.752 38.4622 190.163C38.3154 189.917 38.26 189.627 38.3056 189.344C38.3513 189.061 38.4951 188.803 38.7119 188.616C38.9287 188.429 39.2045 188.323 39.4911 188.319C39.7776 188.315 40.0566 188.411 40.279 188.592Z" fill="#ABB7C2"/>
<path d="M53.233 204.012C52.89 204.012 52.547 203.986 52.2124 203.974C51.8609 202.949 51.4797 201.928 51.0224 200.929C50.8996 200.662 50.7767 200.395 50.6412 200.128C48.1784 195.089 44.6065 190.673 40.1935 187.212C39.698 186.788 40.401 186.115 40.8965 186.504C45.3962 190.042 49.0374 194.552 51.5475 199.696C51.6026 199.819 51.6619 199.946 51.7084 200.069C52.3068 201.347 52.8162 202.664 53.233 204.012ZM58.5225 204.08H57.5231C57.3452 202.691 57.125 201.301 56.8878 199.921C56.4643 197.524 55.9942 195.135 55.4691 192.764C54.3468 187.758 53.0213 182.799 51.6915 177.84C50.3871 172.995 48.9853 168.171 45.9997 164.059C45.6185 163.547 46.4825 163.051 46.8467 163.563C49.7222 167.502 51.1579 172.101 52.4241 176.764C53.9276 182.295 55.3886 187.843 56.621 193.441C57.0869 195.593 57.5231 197.753 57.8915 199.921C58.1329 201.31 58.3447 202.699 58.5225 204.08ZM70.372 181.283C69.0806 183.921 67.9947 186.655 67.1238 189.46C66.9925 189.859 66.8782 190.261 66.7638 190.659C65.8628 193.772 65.1626 196.939 64.6675 200.141C64.46 201.386 64.2864 202.652 64.1339 203.91C63.812 203.91 63.4775 203.948 63.1344 203.957C63.2996 202.661 63.469 201.378 63.6765 200.09C64.123 197.236 64.7238 194.409 65.4764 191.62C65.6204 191.104 65.7601 190.583 65.9253 190.066C66.8648 186.886 68.0646 183.788 69.5123 180.804C69.7918 180.207 70.6515 180.711 70.372 181.283Z" fill="#010101"/>
<path d="M79.5877 196.528C77.0171 194.834 74.4592 193.081 71.8673 191.408C70.419 190.477 68.996 189.782 67.2639 190.417C67.0966 190.482 66.9339 190.559 66.7769 190.646C66.2997 190.894 65.8628 191.212 65.481 191.59C64.9816 192.077 64.5474 192.627 64.1893 193.225C62.9993 195.194 62.4064 197.549 62.0718 200.001C61.8897 201.327 61.7838 202.678 61.7076 203.999C61.3942 204.02 61.0724 204.029 60.7378 204.037C60.8225 202.707 60.9199 201.327 61.102 199.963C61.5255 196.596 62.4233 193.34 64.5832 191.125C64.9827 190.71 65.4306 190.344 65.9172 190.036C66.2953 189.794 66.7003 189.596 67.1242 189.448C68.195 189.065 69.3678 189.082 70.4274 189.494C71.9224 190.074 73.3199 191.235 74.6624 192.12C76.4623 193.323 78.2579 194.513 80.0578 195.711C80.5787 196.054 80.1002 196.884 79.5877 196.528Z" fill="#010101"/>
<path d="M28.196 127.636H24.9006L29.9219 113.09H33.885L38.8992 127.636H35.6037L31.9602 116.414H31.8466L28.196 127.636ZM27.9901 121.918H35.7742V124.319H27.9901V121.918ZM55.6001 118.183H52.4893C52.4325 117.78 52.3165 117.423 52.1413 117.11C51.9661 116.793 51.7412 116.523 51.4666 116.301C51.1919 116.078 50.8747 115.908 50.5149 115.789C50.1597 115.671 49.7739 115.612 49.3572 115.612C48.6043 115.612 47.9486 115.799 47.3899 116.173C46.8311 116.542 46.3979 117.082 46.0901 117.792C45.7824 118.497 45.6285 119.354 45.6285 120.363C45.6285 121.4 45.7824 122.271 46.0901 122.977C46.4026 123.682 46.8382 124.215 47.397 124.575C47.9557 124.935 48.602 125.114 49.3359 125.114C49.7478 125.114 50.129 125.06 50.4793 124.951C50.8345 124.842 51.1493 124.684 51.4239 124.475C51.6986 124.262 51.9258 124.004 52.1058 123.701C52.2904 123.398 52.4183 123.052 52.4893 122.664L55.6001 122.678C55.5196 123.346 55.3184 123.99 54.9964 124.61C54.6792 125.226 54.2507 125.777 53.7109 126.265C53.1758 126.748 52.5366 127.131 51.7933 127.416C51.0546 127.695 50.2189 127.835 49.2862 127.835C47.9888 127.835 46.8288 127.541 45.806 126.954C44.7881 126.367 43.9831 125.517 43.3913 124.404C42.8042 123.292 42.5106 121.944 42.5106 120.363C42.5106 118.777 42.8089 117.427 43.4055 116.315C44.0021 115.202 44.8117 114.354 45.8345 113.772C46.8572 113.185 48.0078 112.891 49.2862 112.891C50.129 112.891 50.9102 113.01 51.6299 113.247C52.3543 113.483 52.9959 113.829 53.5546 114.283C54.1133 114.733 54.5679 115.285 54.9183 115.938C55.2734 116.592 55.5007 117.34 55.6001 118.183ZM73.4391 118.183H70.3283C70.2715 117.78 70.1555 117.423 69.9803 117.11C69.8051 116.793 69.5802 116.523 69.3056 116.301C69.031 116.078 68.7138 115.908 68.3539 115.789C67.9988 115.671 67.6129 115.612 67.1962 115.612C66.4434 115.612 65.7876 115.799 65.2289 116.173C64.6702 116.542 64.237 117.082 63.9292 117.792C63.6214 118.497 63.4676 119.354 63.4676 120.363C63.4676 121.4 63.6214 122.271 63.9292 122.977C64.2417 123.682 64.6773 124.215 65.236 124.575C65.7947 124.935 66.441 125.114 67.1749 125.114C67.5869 125.114 67.968 125.06 68.3184 124.951C68.6735 124.842 68.9884 124.684 69.263 124.475C69.5376 124.262 69.7649 124.004 69.9448 123.701C70.1295 123.398 70.2573 123.052 70.3283 122.664L73.4391 122.678C73.3587 123.346 73.1574 123.99 72.8355 124.61C72.5182 125.226 72.0897 125.777 71.5499 126.265C71.0149 126.748 70.3757 127.131 69.6323 127.416C68.8937 127.695 68.058 127.835 67.1252 127.835C65.8279 127.835 64.6678 127.541 63.6451 126.954C62.6271 126.367 61.8222 125.517 61.2303 124.404C60.6432 123.292 60.3497 121.944 60.3497 120.363C60.3497 118.777 60.648 117.427 61.2445 116.315C61.8411 115.202 62.6508 114.354 63.6735 113.772C64.6962 113.185 65.8468 112.891 67.1252 112.891C67.968 112.891 68.7493 113.01 69.469 113.247C70.1934 113.483 70.835 113.829 71.3937 114.283C71.9524 114.733 72.4069 115.285 72.7573 115.938C73.1124 116.592 73.3397 117.34 73.4391 118.183ZM78.4444 127.636V113.09H88.2455V115.626H81.5197V119.092H87.7413V121.627H81.5197V125.1H88.2739V127.636H78.4444ZM101.381 117.274C101.324 116.701 101.08 116.256 100.65 115.938C100.219 115.621 99.634 115.462 98.8953 115.462C98.3934 115.462 97.9697 115.533 97.624 115.676C97.2784 115.813 97.0132 116.005 96.8286 116.251C96.6486 116.497 96.5587 116.776 96.5587 117.089C96.5492 117.349 96.6037 117.577 96.722 117.771C96.8451 117.965 97.0132 118.133 97.2263 118.275C97.4394 118.412 97.6856 118.533 97.9649 118.637C98.2443 118.737 98.5426 118.822 98.8598 118.893L100.167 119.205C100.801 119.347 101.383 119.537 101.914 119.774C102.444 120.01 102.903 120.301 103.292 120.647C103.68 120.993 103.981 121.4 104.194 121.869C104.411 122.337 104.523 122.875 104.527 123.481C104.523 124.371 104.295 125.143 103.846 125.796C103.401 126.445 102.757 126.949 101.914 127.309C101.076 127.664 100.065 127.842 98.8811 127.842C97.7069 127.842 96.6841 127.662 95.8129 127.302C94.9465 126.942 94.2694 126.409 93.7817 125.704C93.2987 124.994 93.0454 124.115 93.0217 123.069H95.9976C96.0307 123.557 96.1704 123.964 96.4166 124.291C96.6676 124.613 97.0014 124.856 97.418 125.022C97.8395 125.183 98.3153 125.264 98.8456 125.264C99.3664 125.264 99.8186 125.188 100.202 125.036C100.59 124.885 100.891 124.674 101.104 124.404C101.317 124.134 101.424 123.824 101.424 123.474C101.424 123.147 101.327 122.872 101.133 122.65C100.943 122.427 100.664 122.238 100.294 122.082C99.9299 121.926 99.4824 121.783 98.9521 121.656L97.3683 121.258C96.142 120.96 95.1737 120.493 94.4635 119.859C93.7533 119.224 93.4005 118.37 93.4053 117.295C93.4005 116.414 93.6349 115.645 94.1084 114.987C94.5866 114.328 95.2424 113.815 96.0757 113.445C96.9091 113.076 97.856 112.891 98.9166 112.891C99.9962 112.891 100.938 113.076 101.743 113.445C102.553 113.815 103.183 114.328 103.633 114.987C104.082 115.645 104.314 116.407 104.329 117.274H101.381ZM117.287 117.274C117.23 116.701 116.986 116.256 116.555 115.938C116.124 115.621 115.539 115.462 114.801 115.462C114.299 115.462 113.875 115.533 113.529 115.676C113.184 115.813 112.919 116.005 112.734 116.251C112.554 116.497 112.464 116.776 112.464 117.089C112.455 117.349 112.509 117.577 112.627 117.771C112.751 117.965 112.919 118.133 113.132 118.275C113.345 118.412 113.591 118.533 113.87 118.637C114.15 118.737 114.448 118.822 114.765 118.893L116.072 119.205C116.707 119.347 117.289 119.537 117.819 119.774C118.35 120.01 118.809 120.301 119.197 120.647C119.585 120.993 119.886 121.4 120.099 121.869C120.317 122.337 120.428 122.875 120.433 123.481C120.428 124.371 120.201 125.143 119.751 125.796C119.306 126.445 118.662 126.949 117.819 127.309C116.981 127.664 115.97 127.842 114.787 127.842C113.612 127.842 112.59 127.662 111.718 127.302C110.852 126.942 110.175 126.409 109.687 125.704C109.204 124.994 108.951 124.115 108.927 123.069H111.903C111.936 123.557 112.076 123.964 112.322 124.291C112.573 124.613 112.907 124.856 113.324 125.022C113.745 125.183 114.221 125.264 114.751 125.264C115.272 125.264 115.724 125.188 116.108 125.036C116.496 124.885 116.797 124.674 117.01 124.404C117.223 124.134 117.329 123.824 117.329 123.474C117.329 123.147 117.232 122.872 117.038 122.65C116.849 122.427 116.569 122.238 116.2 122.082C115.835 121.926 115.388 121.783 114.858 121.656L113.274 121.258C112.047 120.96 111.079 120.493 110.369 119.859C109.659 119.224 109.306 118.37 109.311 117.295C109.306 116.414 109.54 115.645 110.014 114.987C110.492 114.328 111.148 113.815 111.981 113.445C112.815 113.076 113.761 112.891 114.822 112.891C115.902 112.891 116.844 113.076 117.649 113.445C118.458 113.815 119.088 114.328 119.538 114.987C119.988 115.645 120.22 116.407 120.234 117.274H117.287ZM137.887 127.636H132.73V113.09H137.929C139.392 113.09 140.652 113.381 141.708 113.964C142.763 114.542 143.576 115.372 144.144 116.457C144.717 117.541 145.003 118.838 145.003 120.349C145.003 121.864 144.717 123.166 144.144 124.255C143.576 125.344 142.759 126.18 141.693 126.762C140.633 127.345 139.364 127.636 137.887 127.636ZM135.806 125.001H137.759C138.668 125.001 139.433 124.84 140.053 124.518C140.678 124.191 141.147 123.687 141.459 123.005C141.776 122.319 141.935 121.433 141.935 120.349C141.935 119.274 141.776 118.396 141.459 117.714C141.147 117.032 140.68 116.53 140.06 116.208C139.44 115.886 138.675 115.725 137.766 115.725H135.806V125.001ZM150.081 127.636V113.09H159.882V115.626H153.156V119.092H159.378V121.627H153.156V125.1H159.911V127.636H150.081ZM177.293 113.09V127.636H174.637L168.309 118.481H168.202V127.636H165.127V113.09H167.826L174.104 122.238H174.232V113.09H177.293ZM185.71 113.09V127.636H182.634V113.09H185.71ZM191.04 127.636V113.09H200.841V115.626H194.115V119.092H200.337V121.627H194.115V125.1H200.869V127.636H191.04ZM211.242 127.636H206.086V113.09H211.285C212.748 113.09 214.007 113.381 215.063 113.964C216.119 114.542 216.931 115.372 217.499 116.457C218.072 117.541 218.359 118.838 218.359 120.349C218.359 121.864 218.072 123.166 217.499 124.255C216.931 125.344 216.114 126.18 215.049 126.762C213.988 127.345 212.719 127.636 211.242 127.636ZM209.161 125.001H211.114C212.023 125.001 212.788 124.84 213.408 124.518C214.033 124.191 214.502 123.687 214.815 123.005C215.132 122.319 215.29 121.433 215.29 120.349C215.29 119.274 215.132 118.396 214.815 117.714C214.502 117.032 214.036 116.53 213.415 116.208C212.795 115.886 212.03 115.725 211.121 115.725H209.161V125.001Z" fill="black"/>
<defs>
<linearGradient id="paint0_linear_100_8944" x1="137.118" y1="0.498535" x2="137.118" y2="254.174" gradientUnits="userSpaceOnUse">
<stop stop-color="#E7EBEF"/>
<stop offset="1" stop-color="#848789"/>
</linearGradient>
<linearGradient id="paint1_linear_100_8944" x1="232.182" y1="19.6216" x2="232.182" y2="102.295" gradientUnits="userSpaceOnUse">
<stop stop-color="#E7EBEF"/>
<stop offset="1" stop-color="#848789"/>
</linearGradient>
</defs>
</svg>
