<svg width="334" height="143" viewBox="0 0 334 143" fill="none" xmlns="http://www.w3.org/2000/svg">
<path d="M167.5 143C200.637 143 227.5 116.137 227.5 83C227.5 49.8629 200.637 23 167.5 23C134.363 23 107.5 49.8629 107.5 83C107.5 116.137 134.363 143 167.5 143Z" fill="url(#paint0_linear_96_29300)"/>
<path d="M203.5 143H131.5V65.4001C134.894 65.3963 138.147 64.0465 140.547 61.6469C142.946 59.2472 144.296 55.9937 144.3 52.6001H190.7C190.696 54.2812 191.026 55.9463 191.67 57.4991C192.315 59.0519 193.26 60.4616 194.453 61.6465C195.638 62.8394 197.047 63.7854 198.6 64.4297C200.153 65.074 201.819 65.4038 203.5 65.4001V143Z" fill="white"/>
<path d="M167.5 104.6C178.104 104.6 186.7 96.0041 186.7 85.4002C186.7 74.7963 178.104 66.2002 167.5 66.2002C156.896 66.2002 148.3 74.7963 148.3 85.4002C148.3 96.0041 156.896 104.6 167.5 104.6Z" fill="black"/>
<path d="M174.288 94.4512L167.5 87.663L160.712 94.4512L158.449 92.1885L165.237 85.4002L158.449 78.612L160.712 76.3493L167.5 83.1375L174.288 76.3493L176.551 78.612L169.763 85.4002L176.551 92.1885L174.288 94.4512Z" fill="white"/>
<path d="M177.9 109.4H157.1C155.775 109.4 154.7 110.474 154.7 111.8C154.7 113.125 155.775 114.2 157.1 114.2H177.9C179.226 114.2 180.3 113.125 180.3 111.8C180.3 110.474 179.226 109.4 177.9 109.4Z" fill="#9CA3AF"/>
<path d="M185.1 119H149.9C148.574 119 147.5 120.075 147.5 121.4C147.5 122.725 148.574 123.8 149.9 123.8H185.1C186.425 123.8 187.5 122.725 187.5 121.4C187.5 120.075 186.425 119 185.1 119Z" fill="#9CA3AF"/>
<path d="M70.008 114.272H0.5V82.817L70.0084 0H103.264V84.6008H120.5V114.272H103.264V140H70.0084V114.272H70.008ZM70.008 84.6008V41.2808L33.2811 84.6008H70.008Z" fill="url(#paint1_linear_96_29300)"/>
<path d="M283.008 114.272H213.5V82.817L283.008 0H316.264V84.6008H333.5V114.272H316.264V140H283.008V114.272H283.008ZM283.008 84.6008V41.2808L246.281 84.6008H283.008Z" fill="url(#paint2_linear_96_29300)"/>
<defs>
<linearGradient id="paint0_linear_96_29300" x1="167.5" y1="23" x2="167.5" y2="143" gradientUnits="userSpaceOnUse">
<stop stop-color="#F5F5F5"/>
<stop offset="1" stop-color="#BFC0C4"/>
</linearGradient>
<linearGradient id="paint1_linear_96_29300" x1="60.5" y1="0" x2="60.5" y2="140" gradientUnits="userSpaceOnUse">
<stop stop-color="#E1E1E2"/>
<stop offset="1" stop-color="#B2B2B2"/>
</linearGradient>
<linearGradient id="paint2_linear_96_29300" x1="273.5" y1="0" x2="273.5" y2="140" gradientUnits="userSpaceOnUse">
<stop stop-color="#E1E1E2"/>
<stop offset="1" stop-color="#B2B2B2"/>
</linearGradient>
</defs>
</svg>
