<svg width="400" height="239" viewBox="0 0 400 239" fill="none" xmlns="http://www.w3.org/2000/svg">
<path d="M231.699 236.069L163.163 236.055L165.332 213.692L165.394 213.057L167.04 196.08C167.064 195.844 167.154 195.676 167.257 195.676H228.067C228.172 195.676 228.264 195.851 228.284 196.093L229.735 213.07V213.074L229.788 213.692L231.699 236.069Z" fill="#6B7280"/>
<g style="mix-blend-mode:multiply" opacity="0.5">
<path d="M229.789 213.692H165.333L165.395 213.057L167.041 196.08C167.064 195.844 167.155 195.676 167.257 195.676H228.067C228.173 195.676 228.265 195.851 228.285 196.093L229.736 213.07V213.074L229.789 213.692Z" fill="#1F2937"/>
</g>
<path d="M330.542 11.4012V186.12C330.542 192.303 326.179 197.313 320.799 197.313H74.0628C68.6819 197.313 64.3198 192.303 64.3198 186.12V11.4012C64.3198 5.22024 68.6819 0.208984 74.0628 0.208984H320.799C326.179 0.208984 330.542 5.22024 330.542 11.4012Z" fill="#9CA3AF"/>
<g style="mix-blend-mode:multiply" opacity="0.3">
<path d="M330.541 11.4016V186.121C330.541 192.302 326.179 197.313 320.798 197.313H169.253C291.604 197.097 298.546 0.209473 298.546 0.209473H320.798C326.179 0.209473 330.541 5.22045 330.541 11.4016Z" fill="#4B5563"/>
</g>
<path d="M322.266 13.3632V163.163C321.546 164.182 320.65 164.999 319.64 165.557C318.63 166.115 317.531 166.401 316.42 166.393H78.8695C77.693 166.402 76.5309 166.082 75.4745 165.459C74.4182 164.835 73.4966 163.924 72.7822 162.798V13.7725C74.1094 11.3695 76.4468 9.77118 79.1033 9.77118H316.186C317.361 9.76229 318.522 10.0821 319.577 10.7054C320.632 11.3287 321.553 12.2385 322.266 13.3632Z" fill="white"/>
<path d="M322.267 13.3632V163.163C321.547 164.182 320.65 164.999 319.64 165.557C318.63 166.115 317.531 166.401 316.42 166.393H224.402C224.735 165.891 225.072 165.394 225.414 164.903C225.704 164.487 225.997 164.074 226.293 163.665C229.179 159.674 232.392 156.044 235.883 152.828C236.824 151.961 237.786 151.128 238.767 150.328C240.551 148.874 242.397 147.534 244.298 146.316C246.753 144.745 249.282 143.363 251.839 142.05C252.529 141.694 253.221 141.344 253.915 140.998C257.851 139.024 261.818 137.13 265.643 134.868C272.637 130.733 279.362 125.075 283.128 116.861C286.895 108.646 286.972 97.461 281.677 90.5795C276.536 83.8977 268.125 82.9113 260.566 83.2401C253.007 83.5689 245.053 84.6872 238.206 80.8149C237.634 80.4916 237.081 80.142 236.549 79.766C235.989 79.3734 235.449 78.9549 234.93 78.5104C225.039 70.0694 221.782 52.6838 213.099 41.7274C206.46 33.3475 196.998 29.2102 187.741 26.0719C178.484 22.9335 168.883 20.4265 160.69 14.3607C159.904 13.7794 159.134 13.1565 158.38 12.4919C157.822 12.0007 157.275 11.4883 156.739 10.9546C156.353 10.5717 155.974 10.1772 155.601 9.77118H316.186C317.362 9.76229 318.522 10.0821 319.578 10.7054C320.633 11.3287 321.553 12.2385 322.267 13.3632Z" fill="#E5E7EB"/>
<path d="M127.685 132.65C127.654 132.593 127.606 132.552 127.551 132.535C127.484 132.517 127.415 132.508 127.347 132.51H126.692C126.625 132.505 126.558 132.532 126.506 132.585C126.483 132.608 126.466 132.637 126.454 132.67C126.442 132.702 126.436 132.738 126.437 132.773C126.434 132.812 126.44 132.851 126.454 132.886C126.469 132.921 126.491 132.951 126.518 132.972C126.594 133.016 126.678 133.036 126.763 133.03H127.208V133.586C127.095 133.661 126.976 133.722 126.853 133.767C126.731 133.809 126.604 133.83 126.477 133.829C126.357 133.837 126.236 133.812 126.125 133.756C126.014 133.699 125.915 133.613 125.835 133.505C125.682 133.288 125.606 132.979 125.606 132.576C125.604 132.405 125.624 132.234 125.665 132.07C125.699 131.928 125.757 131.797 125.835 131.683C125.909 131.579 126.001 131.497 126.105 131.443C126.218 131.385 126.339 131.357 126.462 131.36C126.571 131.355 126.68 131.379 126.781 131.429C126.857 131.469 126.924 131.528 126.979 131.602C127.045 131.699 127.105 131.8 127.16 131.906C127.185 131.948 127.218 131.981 127.256 132.005C127.293 132.028 127.334 132.04 127.376 132.039C127.448 132.041 127.517 132.008 127.569 131.948C127.595 131.919 127.615 131.885 127.628 131.846C127.642 131.808 127.649 131.766 127.649 131.724C127.645 131.626 127.621 131.53 127.579 131.446C127.526 131.332 127.455 131.232 127.372 131.149C127.265 131.046 127.143 130.967 127.013 130.917C126.849 130.852 126.677 130.82 126.505 130.824C126.292 130.82 126.08 130.862 125.879 130.948C125.704 131.023 125.544 131.144 125.411 131.301C125.281 131.46 125.181 131.653 125.121 131.865C124.988 132.341 124.989 132.857 125.123 133.332C125.187 133.542 125.286 133.733 125.416 133.893C125.546 134.05 125.703 134.17 125.876 134.245C126.067 134.329 126.27 134.37 126.474 134.367C126.649 134.369 126.823 134.343 126.993 134.29C127.166 134.232 127.333 134.149 127.49 134.044C127.542 134.011 127.591 133.971 127.636 133.924C127.672 133.885 127.699 133.836 127.715 133.782C127.731 133.714 127.738 133.643 127.736 133.572V132.916C127.741 132.823 127.724 132.731 127.685 132.65Z" fill="white"/>
<path d="M127.726 132.616C127.687 132.547 127.629 132.497 127.562 132.477C127.491 132.457 127.419 132.448 127.347 132.449H126.692C126.612 132.445 126.533 132.477 126.472 132.539C126.444 132.568 126.422 132.605 126.407 132.645C126.392 132.686 126.385 132.73 126.386 132.774C126.383 132.823 126.391 132.873 126.41 132.917C126.429 132.961 126.458 132.998 126.493 133.024C126.576 133.075 126.669 133.098 126.763 133.092H127.159V133.551C127.057 133.616 126.949 133.669 126.839 133.709C126.721 133.75 126.599 133.771 126.477 133.77C126.364 133.778 126.251 133.755 126.146 133.702C126.041 133.649 125.948 133.569 125.873 133.466C125.729 133.262 125.655 132.963 125.655 132.577C125.654 132.412 125.673 132.247 125.713 132.088C125.745 131.955 125.8 131.83 125.873 131.722C125.942 131.626 126.028 131.549 126.124 131.497C126.231 131.444 126.346 131.418 126.462 131.42C126.564 131.415 126.665 131.438 126.759 131.485C126.829 131.521 126.891 131.575 126.942 131.642C127.007 131.737 127.066 131.838 127.12 131.943C127.149 131.992 127.189 132.031 127.234 132.058C127.278 132.085 127.326 132.1 127.375 132.1C127.417 132.1 127.459 132.091 127.498 132.073C127.537 132.054 127.572 132.027 127.602 131.991C127.633 131.958 127.658 131.917 127.675 131.871C127.691 131.825 127.7 131.775 127.699 131.725C127.695 131.617 127.669 131.511 127.623 131.418C127.567 131.298 127.493 131.191 127.404 131.103C127.292 130.996 127.165 130.914 127.029 130.861C126.86 130.794 126.682 130.761 126.505 130.765C126.286 130.761 126.068 130.804 125.862 130.891C125.68 130.97 125.514 131.096 125.377 131.259C125.241 131.424 125.137 131.624 125.074 131.844C125.004 132.086 124.97 132.34 124.972 132.596C124.969 132.854 125.005 133.111 125.077 133.354C125.143 133.571 125.246 133.77 125.38 133.935C125.516 134.098 125.679 134.223 125.858 134.303C126.055 134.388 126.264 134.431 126.473 134.428C126.653 134.43 126.832 134.403 127.006 134.349C127.182 134.289 127.353 134.204 127.514 134.097C127.57 134.062 127.622 134.019 127.67 133.968C127.712 133.923 127.744 133.865 127.763 133.801C127.78 133.727 127.789 133.65 127.787 133.573V132.917C127.792 132.811 127.771 132.706 127.726 132.616ZM127.687 133.573C127.688 133.637 127.682 133.701 127.668 133.763C127.655 133.808 127.632 133.848 127.602 133.88C127.561 133.924 127.515 133.962 127.466 133.992C127.313 134.094 127.15 134.175 126.98 134.232C126.815 134.284 126.644 134.309 126.473 134.307C126.276 134.31 126.079 134.271 125.893 134.19C125.726 134.117 125.575 134 125.45 133.848C125.325 133.696 125.229 133.513 125.17 133.311C125.102 133.082 125.069 132.84 125.071 132.596C125.069 132.354 125.102 132.113 125.167 131.885C125.226 131.682 125.322 131.497 125.447 131.343C125.575 131.193 125.728 131.077 125.896 131.004C126.092 130.921 126.298 130.881 126.505 130.886C126.671 130.882 126.838 130.912 126.996 130.974C127.121 131.023 127.237 131.097 127.34 131.195C127.419 131.273 127.485 131.368 127.536 131.475C127.573 131.551 127.595 131.637 127.599 131.725C127.599 131.759 127.594 131.792 127.583 131.823C127.572 131.854 127.555 131.881 127.534 131.904C127.513 131.929 127.489 131.948 127.461 131.961C127.434 131.975 127.405 131.981 127.375 131.98C127.342 131.98 127.308 131.97 127.279 131.951C127.249 131.933 127.222 131.907 127.202 131.875C127.146 131.766 127.085 131.662 127.017 131.564C126.958 131.483 126.884 131.419 126.802 131.375C126.694 131.321 126.578 131.296 126.462 131.3C126.332 131.298 126.204 131.328 126.084 131.388C125.974 131.446 125.876 131.534 125.797 131.645C125.715 131.765 125.654 131.903 125.617 132.052C125.575 132.222 125.554 132.399 125.556 132.577C125.556 132.992 125.637 133.318 125.797 133.544C125.881 133.66 125.986 133.751 126.104 133.811C126.222 133.871 126.349 133.898 126.477 133.891C126.609 133.892 126.74 133.869 126.866 133.824C126.993 133.778 127.116 133.716 127.233 133.64L127.258 133.623V132.971H126.763C126.687 132.977 126.612 132.959 126.544 132.921C126.524 132.906 126.507 132.884 126.497 132.857C126.487 132.831 126.483 132.802 126.486 132.774C126.485 132.747 126.49 132.719 126.499 132.694C126.508 132.669 126.522 132.647 126.539 132.63C126.582 132.587 126.637 132.565 126.692 132.57H127.347C127.411 132.569 127.475 132.577 127.538 132.594C127.581 132.607 127.619 132.639 127.644 132.684C127.677 132.755 127.692 132.836 127.687 132.917V133.573Z" fill="white"/>
<path d="M130.777 131.655C130.672 131.396 130.505 131.182 130.296 131.04C130.063 130.89 129.801 130.815 129.536 130.824C129.337 130.82 129.14 130.862 128.954 130.947C128.789 131.025 128.641 131.146 128.52 131.301C128.397 131.463 128.304 131.654 128.247 131.862C128.182 132.095 128.15 132.34 128.152 132.586C128.15 132.829 128.181 133.072 128.243 133.303C128.298 133.513 128.389 133.707 128.51 133.872C128.632 134.033 128.782 134.158 128.951 134.237C129.141 134.327 129.343 134.372 129.548 134.367C129.751 134.371 129.954 134.328 130.144 134.241C130.312 134.162 130.461 134.037 130.582 133.876C130.703 133.713 130.794 133.521 130.85 133.313C130.912 133.08 130.942 132.836 130.939 132.591C130.946 132.268 130.89 131.948 130.777 131.655ZM128.97 133.506C128.892 133.391 128.833 133.258 128.798 133.115C128.755 132.943 128.735 132.765 128.736 132.586C128.735 132.409 128.755 132.233 128.798 132.064C128.832 131.925 128.889 131.795 128.965 131.681C129.034 131.584 129.12 131.506 129.217 131.454C129.337 131.393 129.468 131.368 129.598 131.379C129.728 131.39 129.854 131.437 129.966 131.518C130.095 131.618 130.196 131.763 130.255 131.934C130.325 132.141 130.359 132.363 130.355 132.586C130.361 132.821 130.324 133.055 130.246 133.271C130.16 133.493 130.005 133.666 129.815 133.753C129.625 133.841 129.414 133.835 129.227 133.739C129.128 133.685 129.04 133.606 128.97 133.506Z" fill="white"/>
<path d="M130.301 131.91C130.238 131.728 130.131 131.573 129.993 131.466C129.856 131.365 129.698 131.312 129.537 131.315C129.42 131.314 129.305 131.343 129.198 131.4C129.094 131.455 129.001 131.538 128.927 131.643C128.847 131.762 128.787 131.899 128.751 132.046C128.707 132.221 128.686 132.403 128.688 132.586C128.686 132.771 128.708 132.955 128.751 133.133C128.787 133.284 128.85 133.424 128.934 133.545C129.009 133.651 129.102 133.736 129.207 133.793C129.314 133.849 129.429 133.878 129.545 133.876C129.697 133.877 129.846 133.828 129.977 133.733C130.116 133.629 130.225 133.477 130.291 133.296C130.44 132.852 130.443 132.357 130.301 131.91ZM129.545 133.756C129.443 133.757 129.341 133.732 129.248 133.683C129.156 133.633 129.074 133.559 129.009 133.467C128.935 133.358 128.879 133.232 128.847 133.097C128.806 132.931 128.786 132.759 128.788 132.586C128.786 132.416 128.806 132.246 128.847 132.082C128.878 131.95 128.932 131.827 129.003 131.72C129.068 131.63 129.148 131.558 129.238 131.509C129.332 131.46 129.434 131.435 129.537 131.436C129.679 131.433 129.819 131.478 129.94 131.568C130.061 131.662 130.155 131.799 130.21 131.959C130.341 132.374 130.338 132.833 130.201 133.245C130.147 133.399 130.055 133.531 129.938 133.622C129.821 133.713 129.684 133.759 129.545 133.756ZM130.301 131.91C130.238 131.728 130.131 131.573 129.993 131.466C129.856 131.365 129.698 131.312 129.537 131.315C129.42 131.314 129.305 131.343 129.198 131.4C129.094 131.455 129.001 131.538 128.927 131.643C128.847 131.762 128.787 131.899 128.751 132.046C128.707 132.221 128.686 132.403 128.688 132.586C128.686 132.771 128.708 132.955 128.751 133.133C128.787 133.284 128.85 133.424 128.934 133.545C129.009 133.651 129.102 133.736 129.207 133.793C129.314 133.849 129.429 133.878 129.545 133.876C129.697 133.877 129.846 133.828 129.977 133.733C130.116 133.629 130.225 133.477 130.291 133.296C130.44 132.852 130.443 132.357 130.301 131.91ZM129.545 133.756C129.443 133.757 129.341 133.732 129.248 133.683C129.156 133.633 129.074 133.559 129.009 133.467C128.935 133.358 128.879 133.232 128.847 133.097C128.806 132.931 128.786 132.759 128.788 132.586C128.786 132.416 128.806 132.246 128.847 132.082C128.878 131.95 128.932 131.827 129.003 131.72C129.068 131.63 129.148 131.558 129.238 131.509C129.332 131.46 129.434 131.435 129.537 131.436C129.679 131.433 129.819 131.478 129.94 131.568C130.061 131.662 130.155 131.799 130.21 131.959C130.341 132.374 130.338 132.833 130.201 133.245C130.147 133.399 130.055 133.531 129.938 133.622C129.821 133.713 129.684 133.759 129.545 133.756ZM130.301 131.91C130.238 131.728 130.131 131.573 129.993 131.466C129.856 131.365 129.698 131.312 129.537 131.315C129.42 131.314 129.305 131.343 129.198 131.4C129.094 131.455 129.001 131.538 128.927 131.643C128.847 131.762 128.787 131.899 128.751 132.046C128.707 132.221 128.686 132.403 128.688 132.586C128.686 132.771 128.708 132.955 128.751 133.133C128.787 133.284 128.85 133.424 128.934 133.545C129.009 133.651 129.102 133.736 129.207 133.793C129.314 133.849 129.429 133.878 129.545 133.876C129.697 133.877 129.846 133.828 129.977 133.733C130.116 133.629 130.225 133.477 130.291 133.296C130.44 132.852 130.443 132.357 130.301 131.91ZM129.545 133.756C129.443 133.757 129.341 133.732 129.248 133.683C129.156 133.633 129.074 133.559 129.009 133.467C128.935 133.358 128.879 133.232 128.847 133.097C128.806 132.931 128.786 132.759 128.788 132.586C128.786 132.416 128.806 132.246 128.847 132.082C128.878 131.95 128.932 131.827 129.003 131.72C129.068 131.63 129.148 131.558 129.238 131.509C129.332 131.46 129.434 131.435 129.537 131.436C129.679 131.433 129.819 131.478 129.94 131.568C130.061 131.662 130.155 131.799 130.21 131.959C130.341 132.374 130.338 132.833 130.201 133.245C130.147 133.399 130.055 133.531 129.938 133.622C129.821 133.713 129.684 133.759 129.545 133.756ZM130.301 131.91C130.238 131.728 130.131 131.573 129.993 131.466C129.856 131.365 129.698 131.312 129.537 131.315C129.42 131.314 129.305 131.343 129.198 131.4C129.094 131.455 129.001 131.538 128.927 131.643C128.847 131.762 128.787 131.899 128.751 132.046C128.707 132.221 128.686 132.403 128.688 132.586C128.686 132.771 128.708 132.955 128.751 133.133C128.787 133.284 128.85 133.424 128.934 133.545C129.009 133.651 129.102 133.736 129.207 133.793C129.314 133.849 129.429 133.878 129.545 133.876C129.697 133.877 129.846 133.828 129.977 133.733C130.116 133.629 130.225 133.477 130.291 133.296C130.44 132.852 130.443 132.357 130.301 131.91ZM129.545 133.756C129.443 133.757 129.341 133.732 129.248 133.683C129.156 133.633 129.074 133.559 129.009 133.467C128.935 133.358 128.879 133.232 128.847 133.097C128.806 132.931 128.786 132.759 128.788 132.586C128.786 132.416 128.806 132.246 128.847 132.082C128.878 131.95 128.932 131.827 129.003 131.72C129.068 131.63 129.148 131.558 129.238 131.509C129.332 131.46 129.434 131.435 129.537 131.436C129.679 131.433 129.819 131.478 129.94 131.568C130.061 131.662 130.155 131.799 130.21 131.959C130.341 132.374 130.338 132.833 130.201 133.245C130.147 133.399 130.055 133.531 129.938 133.622C129.821 133.713 129.684 133.759 129.545 133.756ZM130.821 131.629C130.713 131.358 130.539 131.135 130.321 130.988C130.08 130.833 129.81 130.756 129.537 130.764C129.332 130.761 129.128 130.804 128.937 130.891C128.765 130.971 128.61 131.097 128.484 131.26C128.356 131.428 128.26 131.626 128.2 131.842C128.134 132.082 128.101 132.333 128.104 132.586C128.102 132.836 128.133 133.085 128.197 133.323C128.254 133.541 128.348 133.742 128.473 133.912C128.6 134.079 128.757 134.209 128.932 134.293C129.128 134.385 129.338 134.431 129.548 134.427C129.758 134.431 129.967 134.387 130.163 134.297C130.338 134.214 130.494 134.084 130.62 133.917C130.745 133.747 130.84 133.548 130.898 133.332C130.961 133.093 130.992 132.843 130.989 132.592C130.996 132.259 130.938 131.93 130.821 131.629ZM129.548 134.306C129.351 134.31 129.154 134.268 128.97 134.182C128.809 134.105 128.664 133.986 128.547 133.832C128.431 133.673 128.344 133.487 128.291 133.285C128.232 133.059 128.202 132.823 128.204 132.586C128.201 132.347 128.232 132.108 128.295 131.881C128.35 131.681 128.439 131.498 128.556 131.342C128.673 131.193 128.815 131.077 128.973 131.003C129.153 130.921 129.344 130.881 129.537 130.885C129.793 130.876 130.046 130.948 130.272 131.093C130.472 131.228 130.632 131.433 130.733 131.681C130.842 131.966 130.896 132.278 130.89 132.592C130.892 132.83 130.863 133.066 130.804 133.294C130.75 133.494 130.662 133.679 130.546 133.836C130.43 133.99 130.286 134.11 130.125 134.186C129.941 134.27 129.745 134.311 129.548 134.306ZM129.993 131.466C129.856 131.365 129.698 131.312 129.537 131.315C129.42 131.314 129.305 131.343 129.198 131.4C129.094 131.455 129.001 131.538 128.927 131.643C128.847 131.762 128.787 131.899 128.751 132.046C128.707 132.221 128.686 132.403 128.688 132.586C128.686 132.771 128.708 132.955 128.751 133.133C128.787 133.284 128.85 133.424 128.934 133.545C129.009 133.651 129.102 133.736 129.207 133.793C129.314 133.849 129.429 133.878 129.545 133.876C129.697 133.877 129.846 133.828 129.977 133.733C130.116 133.629 130.225 133.477 130.291 133.296C130.44 132.852 130.443 132.357 130.301 131.91C130.238 131.728 130.131 131.573 129.993 131.466ZM129.545 133.756C129.443 133.757 129.341 133.732 129.248 133.683C129.156 133.633 129.074 133.559 129.009 133.467C128.935 133.358 128.879 133.232 128.847 133.097C128.806 132.931 128.786 132.759 128.788 132.586C128.786 132.416 128.806 132.246 128.847 132.082C128.878 131.95 128.932 131.827 129.003 131.72C129.068 131.63 129.148 131.558 129.238 131.509C129.332 131.46 129.434 131.435 129.537 131.436C129.679 131.433 129.819 131.478 129.94 131.568C130.061 131.662 130.155 131.799 130.21 131.959C130.341 132.374 130.338 132.833 130.201 133.245C130.147 133.399 130.055 133.531 129.938 133.622C129.821 133.713 129.684 133.759 129.545 133.756ZM130.301 131.91C130.238 131.728 130.131 131.573 129.993 131.466C129.856 131.365 129.698 131.312 129.537 131.315C129.42 131.314 129.305 131.343 129.198 131.4C129.094 131.455 129.001 131.538 128.927 131.643C128.847 131.762 128.787 131.899 128.751 132.046C128.707 132.221 128.686 132.403 128.688 132.586C128.686 132.771 128.708 132.955 128.751 133.133C128.787 133.284 128.85 133.424 128.934 133.545C129.009 133.651 129.102 133.736 129.207 133.793C129.314 133.849 129.429 133.878 129.545 133.876C129.697 133.877 129.846 133.828 129.977 133.733C130.116 133.629 130.225 133.477 130.291 133.296C130.44 132.852 130.443 132.357 130.301 131.91ZM129.545 133.756C129.443 133.757 129.341 133.732 129.248 133.683C129.156 133.633 129.074 133.559 129.009 133.467C128.935 133.358 128.879 133.232 128.847 133.097C128.806 132.931 128.786 132.759 128.788 132.586C128.786 132.416 128.806 132.246 128.847 132.082C128.878 131.95 128.932 131.827 129.003 131.72C129.068 131.63 129.148 131.558 129.238 131.509C129.332 131.46 129.434 131.435 129.537 131.436C129.679 131.433 129.819 131.478 129.94 131.568C130.061 131.662 130.155 131.799 130.21 131.959C130.341 132.374 130.338 132.833 130.201 133.245C130.147 133.399 130.055 133.531 129.938 133.622C129.821 133.713 129.684 133.759 129.545 133.756ZM130.301 131.91C130.238 131.728 130.131 131.573 129.993 131.466C129.856 131.365 129.698 131.312 129.537 131.315C129.42 131.314 129.305 131.343 129.198 131.4C129.094 131.455 129.001 131.538 128.927 131.643C128.847 131.762 128.787 131.899 128.751 132.046C128.707 132.221 128.686 132.403 128.688 132.586C128.686 132.771 128.708 132.955 128.751 133.133C128.787 133.284 128.85 133.424 128.934 133.545C129.009 133.651 129.102 133.736 129.207 133.793C129.314 133.849 129.429 133.878 129.545 133.876C129.697 133.877 129.846 133.828 129.977 133.733C130.116 133.629 130.225 133.477 130.291 133.296C130.44 132.852 130.443 132.357 130.301 131.91ZM129.545 133.756C129.443 133.757 129.341 133.732 129.248 133.683C129.156 133.633 129.074 133.559 129.009 133.467C128.935 133.358 128.879 133.232 128.847 133.097C128.806 132.931 128.786 132.759 128.788 132.586C128.786 132.416 128.806 132.246 128.847 132.082C128.878 131.95 128.932 131.827 129.003 131.72C129.068 131.63 129.148 131.558 129.238 131.509C129.332 131.46 129.434 131.435 129.537 131.436C129.679 131.433 129.819 131.478 129.94 131.568C130.061 131.662 130.155 131.799 130.21 131.959C130.341 132.374 130.338 132.833 130.201 133.245C130.147 133.399 130.055 133.531 129.938 133.622C129.821 133.713 129.684 133.759 129.545 133.756ZM130.301 131.91C130.238 131.728 130.131 131.573 129.993 131.466C129.856 131.365 129.698 131.312 129.537 131.315C129.42 131.314 129.305 131.343 129.198 131.4C129.094 131.455 129.001 131.538 128.927 131.643C128.847 131.762 128.787 131.899 128.751 132.046C128.707 132.221 128.686 132.403 128.688 132.586C128.686 132.771 128.708 132.955 128.751 133.133C128.787 133.284 128.85 133.424 128.934 133.545C129.009 133.651 129.102 133.736 129.207 133.793C129.314 133.849 129.429 133.878 129.545 133.876C129.697 133.877 129.846 133.828 129.977 133.733C130.116 133.629 130.225 133.477 130.291 133.296C130.44 132.852 130.443 132.357 130.301 131.91ZM129.545 133.756C129.443 133.757 129.341 133.732 129.248 133.683C129.156 133.633 129.074 133.559 129.009 133.467C128.935 133.358 128.879 133.232 128.847 133.097C128.806 132.931 128.786 132.759 128.788 132.586C128.786 132.416 128.806 132.246 128.847 132.082C128.878 131.95 128.932 131.827 129.003 131.72C129.068 131.63 129.148 131.558 129.238 131.509C129.332 131.46 129.434 131.435 129.537 131.436C129.679 131.433 129.819 131.478 129.94 131.568C130.061 131.662 130.155 131.799 130.21 131.959C130.341 132.374 130.338 132.833 130.201 133.245C130.147 133.399 130.055 133.531 129.938 133.622C129.821 133.713 129.684 133.759 129.545 133.756ZM130.301 131.91C130.238 131.728 130.131 131.573 129.993 131.466C129.856 131.365 129.698 131.312 129.537 131.315C129.42 131.314 129.305 131.343 129.198 131.4C129.094 131.455 129.001 131.538 128.927 131.643C128.847 131.762 128.787 131.899 128.751 132.046C128.707 132.221 128.686 132.403 128.688 132.586C128.686 132.771 128.708 132.955 128.751 133.133C128.787 133.284 128.85 133.424 128.934 133.545C129.009 133.651 129.102 133.736 129.207 133.793C129.314 133.849 129.429 133.878 129.545 133.876C129.697 133.877 129.846 133.828 129.977 133.733C130.116 133.629 130.225 133.477 130.291 133.296C130.44 132.852 130.443 132.357 130.301 131.91ZM129.545 133.756C129.443 133.757 129.341 133.732 129.248 133.683C129.156 133.633 129.074 133.559 129.009 133.467C128.935 133.358 128.879 133.232 128.847 133.097C128.806 132.931 128.786 132.759 128.788 132.586C128.786 132.416 128.806 132.246 128.847 132.082C128.878 131.95 128.932 131.827 129.003 131.72C129.068 131.63 129.148 131.558 129.238 131.509C129.332 131.46 129.434 131.435 129.537 131.436C129.679 131.433 129.819 131.478 129.94 131.568C130.061 131.662 130.155 131.799 130.21 131.959C130.341 132.374 130.338 132.833 130.201 133.245C130.147 133.399 130.055 133.531 129.938 133.622C129.821 133.713 129.684 133.759 129.545 133.756Z" fill="white"/>
<path d="M134.746 130.928C134.719 130.894 134.687 130.867 134.65 130.849C134.614 130.831 134.575 130.822 134.536 130.824C134.497 130.822 134.458 130.831 134.423 130.849C134.387 130.867 134.355 130.895 134.329 130.93C134.272 131.019 134.244 131.131 134.251 131.244V132.227H133.007V131.244C133.014 131.13 132.986 131.017 132.926 130.928C132.899 130.894 132.867 130.866 132.83 130.849C132.794 130.831 132.755 130.822 132.715 130.824C132.676 130.822 132.637 130.83 132.601 130.848C132.565 130.867 132.533 130.894 132.507 130.93C132.451 131.02 132.424 131.132 132.431 131.244V133.944C132.424 134.058 132.451 134.17 132.508 134.261C132.534 134.296 132.566 134.324 132.602 134.342C132.638 134.361 132.676 134.369 132.715 134.368C132.755 134.369 132.793 134.36 132.83 134.342C132.866 134.324 132.898 134.297 132.925 134.262C132.985 134.172 133.014 134.059 133.007 133.944V132.791H134.251V133.944C134.244 134.058 134.271 134.17 134.328 134.261C134.354 134.296 134.386 134.324 134.422 134.342C134.458 134.361 134.497 134.369 134.536 134.368C134.575 134.369 134.614 134.36 134.65 134.342C134.686 134.324 134.718 134.297 134.745 134.262C134.805 134.172 134.834 134.059 134.827 133.944V131.244C134.835 131.13 134.806 131.017 134.746 130.928Z" fill="white"/>
<path d="M134.783 130.888C134.751 130.847 134.713 130.815 134.67 130.794C134.628 130.773 134.582 130.763 134.535 130.765C134.49 130.763 134.444 130.773 134.402 130.794C134.36 130.816 134.323 130.848 134.292 130.889C134.226 130.99 134.193 131.117 134.2 131.245V132.167H133.056V131.245C133.064 131.116 133.03 130.988 132.963 130.888C132.931 130.847 132.893 130.815 132.85 130.794C132.807 130.773 132.761 130.763 132.715 130.765C132.669 130.762 132.623 130.772 132.581 130.794C132.538 130.815 132.5 130.848 132.47 130.889C132.405 130.991 132.373 131.117 132.38 131.245V133.944C132.373 134.073 132.405 134.2 132.471 134.301C132.501 134.343 132.539 134.375 132.581 134.397C132.623 134.419 132.669 134.429 132.715 134.427C132.761 134.429 132.807 134.419 132.85 134.397C132.892 134.375 132.93 134.343 132.962 134.302C133.03 134.202 133.064 134.074 133.056 133.944V132.853H134.2V133.944C134.193 134.072 134.225 134.199 134.29 134.301C134.321 134.342 134.359 134.375 134.401 134.397C134.443 134.419 134.489 134.429 134.535 134.427C134.581 134.429 134.627 134.419 134.67 134.397C134.712 134.375 134.751 134.343 134.782 134.302C134.85 134.202 134.884 134.074 134.876 133.944V131.245C134.884 131.116 134.851 130.988 134.783 130.888ZM134.777 133.944C134.784 134.044 134.759 134.143 134.708 134.221C134.686 134.249 134.659 134.272 134.63 134.286C134.6 134.301 134.568 134.308 134.535 134.307C134.503 134.309 134.472 134.302 134.442 134.287C134.413 134.272 134.387 134.25 134.366 134.221C134.317 134.141 134.293 134.043 134.3 133.944V132.732H132.957V133.944C132.964 134.044 132.94 134.142 132.889 134.221C132.867 134.249 132.84 134.272 132.81 134.287C132.78 134.301 132.748 134.308 132.715 134.307C132.683 134.309 132.652 134.302 132.622 134.287C132.593 134.272 132.567 134.249 132.546 134.221C132.497 134.141 132.473 134.043 132.48 133.944V131.245C132.474 131.147 132.497 131.049 132.545 130.97C132.566 130.941 132.592 130.918 132.622 130.904C132.651 130.889 132.683 130.883 132.715 130.885C132.747 130.883 132.78 130.89 132.81 130.905C132.84 130.919 132.867 130.941 132.889 130.97C132.94 131.048 132.964 131.146 132.957 131.245V132.287H134.3V131.245C134.294 131.146 134.317 131.049 134.366 130.97C134.387 130.942 134.413 130.919 134.443 130.905C134.472 130.89 134.504 130.883 134.535 130.885C134.568 130.883 134.6 130.89 134.63 130.905C134.66 130.919 134.687 130.942 134.709 130.97C134.76 131.048 134.784 131.146 134.777 131.245V133.944Z" fill="white"/>
<path d="M137.937 131.655C137.833 131.395 137.665 131.181 137.456 131.04C137.223 130.89 136.962 130.815 136.697 130.824C136.498 130.82 136.3 130.862 136.114 130.947C135.949 131.025 135.801 131.146 135.68 131.301C135.558 131.463 135.465 131.654 135.407 131.862C135.343 132.095 135.311 132.34 135.314 132.586C135.312 132.829 135.342 133.071 135.403 133.303C135.458 133.514 135.549 133.708 135.671 133.872C135.792 134.033 135.943 134.157 136.111 134.237C136.301 134.327 136.504 134.372 136.709 134.367C136.912 134.371 137.114 134.328 137.304 134.241C137.472 134.162 137.621 134.037 137.742 133.876C137.863 133.713 137.955 133.521 138.01 133.313C138.072 133.08 138.102 132.836 138.099 132.592C138.106 132.268 138.05 131.948 137.937 131.655ZM136.132 133.506C136.052 133.391 135.993 133.258 135.959 133.115C135.916 132.943 135.895 132.765 135.898 132.586C135.895 132.409 135.916 132.233 135.959 132.064C135.992 131.924 136.049 131.794 136.126 131.681C136.195 131.584 136.28 131.506 136.377 131.454C136.497 131.393 136.628 131.368 136.758 131.379C136.888 131.39 137.015 131.437 137.127 131.518C137.255 131.618 137.356 131.763 137.415 131.934C137.485 132.141 137.519 132.363 137.515 132.586C137.521 132.821 137.484 133.056 137.406 133.271C137.344 133.441 137.241 133.584 137.111 133.682C137.002 133.758 136.88 133.803 136.755 133.813C136.629 133.823 136.503 133.798 136.387 133.739C136.288 133.686 136.201 133.606 136.132 133.506Z" fill="white"/>
<path d="M137.46 131.91C137.398 131.728 137.291 131.573 137.154 131.466C137.017 131.365 136.858 131.312 136.698 131.315C136.581 131.314 136.465 131.343 136.358 131.4C136.254 131.455 136.162 131.538 136.088 131.643C136.007 131.762 135.947 131.899 135.911 132.046C135.867 132.221 135.846 132.403 135.847 132.586C135.846 132.771 135.867 132.955 135.911 133.133C135.948 133.284 136.01 133.424 136.094 133.545C136.168 133.651 136.262 133.736 136.367 133.793C136.49 133.857 136.624 133.885 136.758 133.874C136.891 133.864 137.021 133.816 137.136 133.733C137.276 133.629 137.385 133.477 137.451 133.296C137.601 132.853 137.605 132.357 137.46 131.91ZM136.704 133.756C136.602 133.757 136.501 133.732 136.407 133.683C136.315 133.633 136.234 133.559 136.169 133.467C136.094 133.358 136.039 133.232 136.006 133.097C135.965 132.931 135.946 132.759 135.948 132.586C135.946 132.415 135.965 132.246 136.006 132.082C136.038 131.95 136.091 131.827 136.163 131.72C136.227 131.63 136.308 131.558 136.398 131.509C136.492 131.46 136.594 131.435 136.698 131.436C136.84 131.433 136.979 131.479 137.101 131.568C137.221 131.662 137.315 131.799 137.369 131.959C137.501 132.374 137.498 132.833 137.361 133.245C137.303 133.404 137.208 133.538 137.086 133.631C136.971 133.714 136.839 133.757 136.704 133.756ZM137.46 131.91C137.398 131.728 137.291 131.573 137.154 131.466C137.017 131.365 136.858 131.312 136.698 131.315C136.581 131.314 136.465 131.343 136.358 131.4C136.254 131.455 136.162 131.538 136.088 131.643C136.007 131.762 135.947 131.899 135.911 132.046C135.867 132.221 135.846 132.403 135.847 132.586C135.846 132.771 135.867 132.955 135.911 133.133C135.948 133.284 136.01 133.424 136.094 133.545C136.168 133.651 136.262 133.736 136.367 133.793C136.49 133.857 136.624 133.885 136.758 133.874C136.891 133.864 137.021 133.816 137.136 133.733C137.276 133.629 137.385 133.477 137.451 133.296C137.601 132.853 137.605 132.357 137.46 131.91ZM136.704 133.756C136.602 133.757 136.501 133.732 136.407 133.683C136.315 133.633 136.234 133.559 136.169 133.467C136.094 133.358 136.039 133.232 136.006 133.097C135.965 132.931 135.946 132.759 135.948 132.586C135.946 132.415 135.965 132.246 136.006 132.082C136.038 131.95 136.091 131.827 136.163 131.72C136.227 131.63 136.308 131.558 136.398 131.509C136.492 131.46 136.594 131.435 136.698 131.436C136.84 131.433 136.979 131.479 137.101 131.568C137.221 131.662 137.315 131.799 137.369 131.959C137.501 132.374 137.498 132.833 137.361 133.245C137.303 133.404 137.208 133.538 137.086 133.631C136.971 133.714 136.839 133.757 136.704 133.756ZM137.46 131.91C137.398 131.728 137.291 131.573 137.154 131.466C137.017 131.365 136.858 131.312 136.698 131.315C136.581 131.314 136.465 131.343 136.358 131.4C136.254 131.455 136.162 131.538 136.088 131.643C136.007 131.762 135.947 131.899 135.911 132.046C135.867 132.221 135.846 132.403 135.847 132.586C135.846 132.771 135.867 132.955 135.911 133.133C135.948 133.284 136.01 133.424 136.094 133.545C136.168 133.651 136.262 133.736 136.367 133.793C136.49 133.857 136.624 133.885 136.758 133.874C136.891 133.864 137.021 133.816 137.136 133.733C137.276 133.629 137.385 133.477 137.451 133.296C137.601 132.853 137.605 132.357 137.46 131.91ZM136.704 133.756C136.602 133.757 136.501 133.732 136.407 133.683C136.315 133.633 136.234 133.559 136.169 133.467C136.094 133.358 136.039 133.232 136.006 133.097C135.965 132.931 135.946 132.759 135.948 132.586C135.946 132.415 135.965 132.246 136.006 132.082C136.038 131.95 136.091 131.827 136.163 131.72C136.227 131.63 136.308 131.558 136.398 131.509C136.492 131.46 136.594 131.435 136.698 131.436C136.84 131.433 136.979 131.479 137.101 131.568C137.221 131.662 137.315 131.799 137.369 131.959C137.501 132.374 137.498 132.833 137.361 133.245C137.303 133.404 137.208 133.538 137.086 133.631C136.971 133.714 136.839 133.757 136.704 133.756ZM137.46 131.91C137.398 131.728 137.291 131.573 137.154 131.466C137.017 131.365 136.858 131.312 136.698 131.315C136.581 131.314 136.465 131.343 136.358 131.4C136.254 131.455 136.162 131.538 136.088 131.643C136.007 131.762 135.947 131.899 135.911 132.046C135.867 132.221 135.846 132.403 135.847 132.586C135.846 132.771 135.867 132.955 135.911 133.133C135.948 133.284 136.01 133.424 136.094 133.545C136.168 133.651 136.262 133.736 136.367 133.793C136.49 133.857 136.624 133.885 136.758 133.874C136.891 133.864 137.021 133.816 137.136 133.733C137.276 133.629 137.385 133.477 137.451 133.296C137.601 132.853 137.605 132.357 137.46 131.91ZM136.704 133.756C136.602 133.757 136.501 133.732 136.407 133.683C136.315 133.633 136.234 133.559 136.169 133.467C136.094 133.358 136.039 133.232 136.006 133.097C135.965 132.931 135.946 132.759 135.948 132.586C135.946 132.415 135.965 132.246 136.006 132.082C136.038 131.95 136.091 131.827 136.163 131.72C136.227 131.63 136.308 131.558 136.398 131.509C136.492 131.46 136.594 131.435 136.698 131.436C136.84 131.433 136.979 131.479 137.101 131.568C137.221 131.662 137.315 131.799 137.369 131.959C137.501 132.374 137.498 132.833 137.361 133.245C137.303 133.404 137.208 133.538 137.086 133.631C136.971 133.714 136.839 133.757 136.704 133.756ZM137.982 131.629C137.873 131.358 137.699 131.134 137.481 130.988C137.24 130.833 136.97 130.756 136.698 130.764C136.492 130.761 136.288 130.804 136.096 130.891C135.924 130.972 135.77 131.098 135.643 131.26C135.516 131.428 135.42 131.627 135.36 131.842C135.294 132.082 135.262 132.333 135.263 132.586C135.262 132.836 135.293 133.085 135.357 133.323C135.414 133.54 135.508 133.741 135.633 133.912C135.76 134.08 135.917 134.21 136.093 134.293C136.289 134.385 136.498 134.431 136.709 134.427C136.919 134.431 137.127 134.387 137.323 134.297C137.498 134.214 137.654 134.083 137.78 133.917C137.905 133.747 138 133.548 138.058 133.332C138.121 133.093 138.152 132.843 138.15 132.592C138.156 132.259 138.099 131.93 137.982 131.629ZM136.709 134.306C136.511 134.31 136.314 134.268 136.13 134.182C135.969 134.105 135.824 133.986 135.708 133.832C135.591 133.673 135.504 133.487 135.451 133.285C135.392 133.059 135.362 132.823 135.363 132.586C135.362 132.347 135.392 132.109 135.454 131.881C135.509 131.681 135.599 131.497 135.717 131.342C135.833 131.192 135.975 131.077 136.133 131.003C136.313 130.921 136.505 130.881 136.698 130.885C136.953 130.876 137.207 130.948 137.432 131.093C137.632 131.228 137.793 131.433 137.892 131.681C138.002 131.966 138.056 132.278 138.05 132.592C138.052 132.83 138.023 133.067 137.964 133.294C137.91 133.494 137.822 133.679 137.706 133.836C137.59 133.99 137.446 134.109 137.286 134.186C137.102 134.27 136.906 134.311 136.709 134.306ZM137.154 131.466C137.017 131.365 136.858 131.312 136.698 131.315C136.581 131.314 136.465 131.343 136.358 131.4C136.254 131.455 136.162 131.538 136.088 131.643C136.007 131.762 135.947 131.899 135.911 132.046C135.867 132.221 135.846 132.403 135.847 132.586C135.846 132.771 135.867 132.955 135.911 133.133C135.948 133.284 136.01 133.424 136.094 133.545C136.168 133.651 136.262 133.736 136.367 133.793C136.49 133.857 136.624 133.885 136.758 133.874C136.891 133.864 137.021 133.816 137.136 133.733C137.276 133.629 137.385 133.477 137.451 133.296C137.601 132.853 137.605 132.357 137.46 131.91C137.398 131.728 137.291 131.573 137.154 131.466ZM136.704 133.756C136.602 133.757 136.501 133.732 136.407 133.683C136.315 133.633 136.234 133.559 136.169 133.467C136.094 133.358 136.039 133.232 136.006 133.097C135.965 132.931 135.946 132.759 135.948 132.586C135.946 132.415 135.965 132.246 136.006 132.082C136.038 131.95 136.091 131.827 136.163 131.72C136.227 131.63 136.308 131.558 136.398 131.509C136.492 131.46 136.594 131.435 136.698 131.436C136.84 131.433 136.979 131.479 137.101 131.568C137.221 131.662 137.315 131.799 137.369 131.959C137.501 132.374 137.498 132.833 137.361 133.245C137.303 133.404 137.208 133.538 137.086 133.631C136.971 133.714 136.839 133.757 136.704 133.756ZM137.46 131.91C137.398 131.728 137.291 131.573 137.154 131.466C137.017 131.365 136.858 131.312 136.698 131.315C136.581 131.314 136.465 131.343 136.358 131.4C136.254 131.455 136.162 131.538 136.088 131.643C136.007 131.762 135.947 131.899 135.911 132.046C135.867 132.221 135.846 132.403 135.847 132.586C135.846 132.771 135.867 132.955 135.911 133.133C135.948 133.284 136.01 133.424 136.094 133.545C136.168 133.651 136.262 133.736 136.367 133.793C136.49 133.857 136.624 133.885 136.758 133.874C136.891 133.864 137.021 133.816 137.136 133.733C137.276 133.629 137.385 133.477 137.451 133.296C137.601 132.853 137.605 132.357 137.46 131.91ZM136.704 133.756C136.602 133.757 136.501 133.732 136.407 133.683C136.315 133.633 136.234 133.559 136.169 133.467C136.094 133.358 136.039 133.232 136.006 133.097C135.965 132.931 135.946 132.759 135.948 132.586C135.946 132.415 135.965 132.246 136.006 132.082C136.038 131.95 136.091 131.827 136.163 131.72C136.227 131.63 136.308 131.558 136.398 131.509C136.492 131.46 136.594 131.435 136.698 131.436C136.84 131.433 136.979 131.479 137.101 131.568C137.221 131.662 137.315 131.799 137.369 131.959C137.501 132.374 137.498 132.833 137.361 133.245C137.303 133.404 137.208 133.538 137.086 133.631C136.971 133.714 136.839 133.757 136.704 133.756ZM137.46 131.91C137.398 131.728 137.291 131.573 137.154 131.466C137.017 131.365 136.858 131.312 136.698 131.315C136.581 131.314 136.465 131.343 136.358 131.4C136.254 131.455 136.162 131.538 136.088 131.643C136.007 131.762 135.947 131.899 135.911 132.046C135.867 132.221 135.846 132.403 135.847 132.586C135.846 132.771 135.867 132.955 135.911 133.133C135.948 133.284 136.01 133.424 136.094 133.545C136.168 133.651 136.262 133.736 136.367 133.793C136.49 133.857 136.624 133.885 136.758 133.874C136.891 133.864 137.021 133.816 137.136 133.733C137.276 133.629 137.385 133.477 137.451 133.296C137.601 132.853 137.605 132.357 137.46 131.91ZM136.704 133.756C136.602 133.757 136.501 133.732 136.407 133.683C136.315 133.633 136.234 133.559 136.169 133.467C136.094 133.358 136.039 133.232 136.006 133.097C135.965 132.931 135.946 132.759 135.948 132.586C135.946 132.415 135.965 132.246 136.006 132.082C136.038 131.95 136.091 131.827 136.163 131.72C136.227 131.63 136.308 131.558 136.398 131.509C136.492 131.46 136.594 131.435 136.698 131.436C136.84 131.433 136.979 131.479 137.101 131.568C137.221 131.662 137.315 131.799 137.369 131.959C137.501 132.374 137.498 132.833 137.361 133.245C137.303 133.404 137.208 133.538 137.086 133.631C136.971 133.714 136.839 133.757 136.704 133.756ZM137.46 131.91C137.398 131.728 137.291 131.573 137.154 131.466C137.017 131.365 136.858 131.312 136.698 131.315C136.581 131.314 136.465 131.343 136.358 131.4C136.254 131.455 136.162 131.538 136.088 131.643C136.007 131.762 135.947 131.899 135.911 132.046C135.867 132.221 135.846 132.403 135.847 132.586C135.846 132.771 135.867 132.955 135.911 133.133C135.948 133.284 136.01 133.424 136.094 133.545C136.168 133.651 136.262 133.736 136.367 133.793C136.49 133.857 136.624 133.885 136.758 133.874C136.891 133.864 137.021 133.816 137.136 133.733C137.276 133.629 137.385 133.477 137.451 133.296C137.601 132.853 137.605 132.357 137.46 131.91ZM136.704 133.756C136.602 133.757 136.501 133.732 136.407 133.683C136.315 133.633 136.234 133.559 136.169 133.467C136.094 133.358 136.039 133.232 136.006 133.097C135.965 132.931 135.946 132.759 135.948 132.586C135.946 132.415 135.965 132.246 136.006 132.082C136.038 131.95 136.091 131.827 136.163 131.72C136.227 131.63 136.308 131.558 136.398 131.509C136.492 131.46 136.594 131.435 136.698 131.436C136.84 131.433 136.979 131.479 137.101 131.568C137.221 131.662 137.315 131.799 137.369 131.959C137.501 132.374 137.498 132.833 137.361 133.245C137.303 133.404 137.208 133.538 137.086 133.631C136.971 133.714 136.839 133.757 136.704 133.756ZM137.46 131.91C137.398 131.728 137.291 131.573 137.154 131.466C137.017 131.365 136.858 131.312 136.698 131.315C136.581 131.314 136.465 131.343 136.358 131.4C136.254 131.455 136.162 131.538 136.088 131.643C136.007 131.762 135.947 131.899 135.911 132.046C135.867 132.221 135.846 132.403 135.847 132.586C135.846 132.771 135.867 132.955 135.911 133.133C135.948 133.284 136.01 133.424 136.094 133.545C136.168 133.651 136.262 133.736 136.367 133.793C136.49 133.857 136.624 133.885 136.758 133.874C136.891 133.864 137.021 133.816 137.136 133.733C137.276 133.629 137.385 133.477 137.451 133.296C137.601 132.853 137.605 132.357 137.46 131.91ZM136.704 133.756C136.602 133.757 136.501 133.732 136.407 133.683C136.315 133.633 136.234 133.559 136.169 133.467C136.094 133.358 136.039 133.232 136.006 133.097C135.965 132.931 135.946 132.759 135.948 132.586C135.946 132.415 135.965 132.246 136.006 132.082C136.038 131.95 136.091 131.827 136.163 131.72C136.227 131.63 136.308 131.558 136.398 131.509C136.492 131.46 136.594 131.435 136.698 131.436C136.84 131.433 136.979 131.479 137.101 131.568C137.221 131.662 137.315 131.799 137.369 131.959C137.501 132.374 137.498 132.833 137.361 133.245C137.303 133.404 137.208 133.538 137.086 133.631C136.971 133.714 136.839 133.757 136.704 133.756Z" fill="white"/>
<path d="M141.215 130.962C141.136 130.904 141.044 130.877 140.952 130.883H140.773C140.694 130.878 140.615 130.89 140.54 130.919C140.516 130.93 140.494 130.947 140.475 130.969C140.457 130.991 140.442 131.016 140.432 131.045C140.4 131.141 140.373 131.24 140.353 131.341L139.939 133.218L139.526 131.341C139.506 131.24 139.48 131.141 139.446 131.045C139.436 131.016 139.422 130.991 139.403 130.969C139.385 130.947 139.363 130.93 139.339 130.919C139.264 130.89 139.184 130.878 139.105 130.883H138.927C138.835 130.877 138.743 130.905 138.664 130.962C138.628 130.999 138.601 131.045 138.584 131.098C138.567 131.151 138.561 131.208 138.567 131.264V133.975C138.561 134.081 138.587 134.187 138.641 134.271C138.666 134.302 138.696 134.326 138.729 134.343C138.762 134.36 138.797 134.368 138.833 134.368C138.869 134.368 138.904 134.359 138.937 134.342C138.97 134.325 139 134.3 139.025 134.269C139.078 134.185 139.104 134.081 139.097 133.975V131.61L139.553 133.792C139.568 133.864 139.585 133.934 139.6 133.999C139.613 134.063 139.633 134.124 139.661 134.181C139.686 134.236 139.724 134.282 139.769 134.315C139.82 134.352 139.88 134.37 139.939 134.368C140.015 134.373 140.09 134.344 140.149 134.286C140.196 134.237 140.232 134.175 140.253 134.104C140.271 134.039 140.295 133.935 140.325 133.792L140.782 131.61V133.975C140.775 134.081 140.801 134.186 140.855 134.269C140.879 134.301 140.908 134.327 140.941 134.344C140.973 134.361 141.009 134.369 141.044 134.368C141.081 134.37 141.117 134.362 141.151 134.345C141.184 134.328 141.214 134.302 141.239 134.269C141.292 134.185 141.318 134.081 141.311 133.975V131.264C141.318 131.208 141.312 131.151 141.295 131.098C141.278 131.045 141.251 130.999 141.215 130.962Z" fill="white"/>
<path d="M141.242 130.912C141.155 130.848 141.053 130.817 140.952 130.823H140.773C140.688 130.818 140.602 130.831 140.521 130.862C140.461 130.891 140.413 130.947 140.387 131.018C140.352 131.118 140.325 131.22 140.304 131.325L139.939 132.983L139.574 131.326C139.553 131.221 139.526 131.118 139.492 131.018C139.466 130.947 139.417 130.891 139.357 130.862C139.276 130.831 139.19 130.818 139.105 130.823H138.926C138.824 130.817 138.723 130.848 138.636 130.912C138.593 130.954 138.56 131.008 138.539 131.07C138.519 131.131 138.511 131.198 138.517 131.264V133.975C138.51 134.096 138.541 134.216 138.604 134.311C138.633 134.348 138.669 134.377 138.708 134.397C138.748 134.417 138.79 134.427 138.833 134.427C138.875 134.427 138.918 134.417 138.957 134.396C138.996 134.376 139.032 134.347 139.061 134.309C139.123 134.214 139.153 134.095 139.146 133.975V132.095L139.505 133.807C139.521 133.879 139.536 133.949 139.551 134.015C139.565 134.083 139.587 134.149 139.616 134.21C139.647 134.274 139.69 134.327 139.742 134.366C139.802 134.408 139.87 134.429 139.939 134.427C140.027 134.432 140.114 134.398 140.182 134.33C140.235 134.275 140.276 134.203 140.299 134.123C140.319 134.057 140.343 133.95 140.373 133.807L140.731 132.095V133.975C140.725 134.096 140.755 134.215 140.818 134.309C140.846 134.348 140.881 134.378 140.92 134.398C140.959 134.419 141.001 134.428 141.044 134.427C141.087 134.429 141.13 134.42 141.17 134.399C141.21 134.379 141.246 134.348 141.275 134.309C141.337 134.214 141.367 134.095 141.36 133.975V131.264C141.367 131.198 141.359 131.131 141.339 131.07C141.318 131.008 141.285 130.954 141.242 130.912ZM141.261 133.975C141.268 134.066 141.246 134.156 141.2 134.229C141.18 134.254 141.156 134.273 141.13 134.286C141.103 134.3 141.075 134.307 141.046 134.307C141.017 134.307 140.989 134.3 140.962 134.286C140.936 134.273 140.912 134.254 140.892 134.229C140.846 134.156 140.824 134.066 140.831 133.975V131.124L140.276 133.778C140.248 133.917 140.223 134.021 140.205 134.085C140.187 134.145 140.156 134.199 140.115 134.241C140.065 134.288 140.002 134.312 139.939 134.307C139.888 134.309 139.838 134.294 139.795 134.264C139.757 134.236 139.725 134.197 139.703 134.15C139.678 134.097 139.659 134.041 139.646 133.983C139.631 133.918 139.616 133.849 139.601 133.778L139.047 131.124V133.975C139.053 134.066 139.032 134.156 138.987 134.229C138.968 134.255 138.943 134.276 138.916 134.289C138.889 134.303 138.86 134.309 138.831 134.307C138.802 134.308 138.774 134.302 138.747 134.289C138.721 134.275 138.697 134.256 138.677 134.23C138.632 134.157 138.611 134.066 138.618 133.975V131.264C138.612 131.218 138.616 131.171 138.629 131.127C138.642 131.082 138.664 131.043 138.692 131.012C138.763 130.961 138.844 130.938 138.926 130.944H139.105C139.178 130.939 139.25 130.949 139.32 130.974C139.356 130.992 139.385 131.026 139.401 131.07C139.433 131.163 139.458 131.259 139.477 131.357L139.939 133.452L140.401 131.356C140.42 131.258 140.445 131.163 140.477 131.07C140.493 131.026 140.522 130.992 140.559 130.974C140.628 130.949 140.701 130.938 140.773 130.944H140.952C141.034 130.938 141.115 130.961 141.187 131.012C141.215 131.043 141.237 131.083 141.25 131.127C141.263 131.171 141.267 131.218 141.261 131.264V133.975Z" fill="white"/>
<path d="M144.027 133.833C143.969 133.778 143.895 133.75 143.821 133.757H142.479V132.783H143.674C143.745 132.79 143.816 132.764 143.872 132.71C143.893 132.685 143.91 132.655 143.921 132.622C143.932 132.589 143.938 132.554 143.937 132.518C143.938 132.483 143.933 132.448 143.921 132.416C143.91 132.383 143.893 132.354 143.871 132.331C143.815 132.278 143.745 132.252 143.674 132.259H142.479V131.418H143.778C143.851 131.425 143.924 131.399 143.982 131.344C144.003 131.319 144.02 131.289 144.032 131.256C144.044 131.222 144.05 131.186 144.05 131.15C144.05 131.114 144.044 131.078 144.032 131.045C144.02 131.011 144.003 130.981 143.982 130.956C143.924 130.902 143.851 130.876 143.778 130.882H142.256C142.187 130.88 142.119 130.895 142.055 130.925C142.004 130.953 141.963 131.002 141.94 131.064C141.913 131.141 141.9 131.225 141.903 131.308V133.883C141.895 134 141.924 134.117 141.985 134.208C142.061 134.284 142.158 134.32 142.256 134.309H143.821C143.895 134.316 143.968 134.288 144.027 134.233C144.049 134.208 144.067 134.178 144.079 134.144C144.091 134.11 144.097 134.073 144.096 134.036C144.097 133.998 144.092 133.96 144.08 133.926C144.068 133.891 144.05 133.859 144.027 133.833Z" fill="white"/>
<path d="M144.06 133.789C143.993 133.723 143.908 133.69 143.822 133.697H142.529V132.843H143.674C143.759 132.85 143.842 132.818 143.907 132.753C143.933 132.722 143.954 132.686 143.967 132.646C143.981 132.605 143.988 132.562 143.986 132.518C143.987 132.475 143.981 132.432 143.967 132.392C143.953 132.352 143.932 132.316 143.906 132.286C143.84 132.223 143.758 132.192 143.674 132.199H142.529V131.478H143.778C143.864 131.485 143.949 131.453 144.016 131.389C144.043 131.358 144.063 131.32 144.078 131.279C144.092 131.238 144.099 131.195 144.099 131.15C144.099 131.106 144.092 131.062 144.078 131.021C144.063 130.98 144.043 130.943 144.016 130.911C143.949 130.848 143.864 130.816 143.778 130.823H142.256C142.18 130.82 142.105 130.837 142.035 130.871C141.973 130.905 141.923 130.964 141.894 131.038C141.865 131.123 141.851 131.216 141.853 131.308V133.883C141.844 134.016 141.879 134.148 141.95 134.251C142.035 134.338 142.145 134.38 142.256 134.369H143.822C143.908 134.376 143.993 134.343 144.06 134.277C144.088 134.247 144.11 134.209 144.125 134.168C144.139 134.126 144.146 134.081 144.145 134.036C144.147 133.99 144.14 133.944 144.125 133.901C144.11 133.859 144.088 133.82 144.06 133.789ZM143.822 134.248H142.256C142.214 134.26 142.171 134.258 142.13 134.244C142.089 134.229 142.051 134.203 142.021 134.166C141.991 134.13 141.969 134.085 141.957 134.035C141.945 133.986 141.944 133.934 141.953 133.883V131.308C141.95 131.233 141.961 131.158 141.985 131.089C142.003 131.041 142.036 131.002 142.076 130.981C142.133 130.953 142.195 130.941 142.256 130.943H143.778C143.839 130.937 143.899 130.957 143.948 131C143.965 131.019 143.979 131.042 143.988 131.068C143.996 131.093 144 131.121 143.999 131.149C144 131.177 143.996 131.205 143.988 131.231C143.979 131.257 143.966 131.281 143.948 131.3C143.899 131.344 143.839 131.365 143.778 131.358H142.43V132.32H143.674C143.733 132.313 143.791 132.333 143.838 132.375C143.854 132.393 143.867 132.415 143.876 132.44C143.884 132.465 143.888 132.491 143.887 132.518C143.888 132.545 143.885 132.573 143.876 132.598C143.867 132.624 143.854 132.646 143.838 132.665C143.791 132.709 143.733 132.729 143.674 132.722H142.43V133.817H143.822C143.883 133.811 143.944 133.832 143.993 133.878C144.011 133.898 144.025 133.922 144.034 133.95C144.044 133.977 144.048 134.006 144.046 134.036C144.047 134.064 144.043 134.093 144.034 134.119C144.025 134.146 144.011 134.169 143.993 134.189C143.944 134.234 143.883 134.255 143.822 134.248Z" fill="white"/>
<path d="M253.915 111.993V143.082C253.913 145.666 253.06 148.143 251.543 149.97C250.026 151.797 247.969 152.825 245.824 152.828H206.743C205.148 152.83 203.619 153.594 202.491 154.953C201.363 156.311 200.729 158.153 200.727 160.073V166.393H198.651V160.073C198.653 157.49 199.507 155.013 201.024 153.186C202.541 151.359 204.597 150.331 206.743 150.328H245.824C247.419 150.326 248.948 149.561 250.076 148.203C251.203 146.844 251.838 145.003 251.839 143.082V111.993H253.915Z" fill="#9CA3AF"/>
<path d="M256.251 119.701V124.683C256.251 125.254 256.063 125.802 255.727 126.206C255.392 126.61 254.937 126.837 254.463 126.837H251.291C251.033 126.837 250.777 126.77 250.542 126.639C250.307 126.509 250.098 126.318 249.931 126.08V126.08C249.654 125.691 249.503 125.195 249.503 124.683V119.701H256.251Z" fill="#4B5563"/>
<path d="M259.776 108.086V118.039C259.776 118.777 259.533 119.485 259.099 120.007C258.666 120.528 258.078 120.822 257.465 120.822H248.289C247.676 120.821 247.089 120.528 246.655 120.006C246.222 119.485 245.979 118.777 245.979 118.039V108.086H259.776Z" fill="#9CA3AF"/>
<path d="M260.242 108.086H245.512C245.337 108.086 245.169 108.003 245.046 107.854C244.922 107.705 244.853 107.503 244.853 107.293V106.689C244.853 106.478 244.922 106.276 245.046 106.128C245.169 105.979 245.337 105.895 245.512 105.895H260.242C260.416 105.895 260.584 105.979 260.707 106.128C260.831 106.276 260.9 106.478 260.9 106.689V107.293C260.9 107.503 260.831 107.705 260.707 107.854C260.584 108.003 260.416 108.086 260.242 108.086Z" fill="#6B7280"/>
<path d="M250.807 105.895H248.455V99.122C248.455 98.9361 248.485 98.752 248.545 98.5802C248.604 98.4084 248.69 98.2523 248.799 98.1208C248.909 97.9893 249.038 97.885 249.181 97.8138C249.324 97.7427 249.476 97.7061 249.631 97.7061C249.785 97.7061 249.938 97.7427 250.081 97.8138C250.223 97.885 250.353 97.9893 250.462 98.1208C250.571 98.2523 250.658 98.4084 250.717 98.5802C250.776 98.752 250.807 98.9361 250.807 99.122V105.895Z" fill="#374151"/>
<path d="M255.854 97.7061H256.392C256.633 97.7061 256.863 97.821 257.033 98.0258C257.203 98.2305 257.299 98.5081 257.299 98.7976V105.895H254.947V98.7976C254.947 98.5081 255.043 98.2304 255.213 98.0258C255.383 97.8211 255.613 97.7061 255.854 97.7061Z" fill="#374151"/>
<path d="M259.776 108.086V118.039C259.776 118.777 259.533 119.485 259.099 120.007C258.666 120.528 258.078 120.822 257.465 120.822H248.289C247.676 120.821 247.089 120.528 246.655 120.006C246.222 119.485 245.979 118.777 245.979 118.039C255.886 117.21 256.796 108.086 256.796 108.086H259.776Z" fill="#6B7280"/>
<path d="M259.776 108.086H245.979V108.889H259.776V108.086Z" fill="#374151"/>
<path d="M259.776 112.293V118.039C259.776 118.777 259.532 119.485 259.099 120.007C258.665 120.529 258.077 120.822 257.464 120.822H251.023C257.528 120.822 259.776 112.293 259.776 112.293Z" fill="#4B5563"/>
<path d="M256.251 120.822H249.503V121.342H256.251V120.822Z" fill="#1F2937"/>
<path d="M250.807 104.904H248.455V105.895H250.807V104.904Z" fill="#1F2937"/>
<path d="M257.299 104.904H254.947V105.895H257.299V104.904Z" fill="#1F2937"/>
<path d="M256.251 120.822V124.683C256.251 125.254 256.062 125.802 255.727 126.206C255.391 126.61 254.937 126.837 254.462 126.837H251.291C251.032 126.837 250.776 126.77 250.541 126.639C250.306 126.509 250.098 126.318 249.93 126.08V126.08C254.873 126.81 255.628 120.822 255.628 120.822H256.251Z" fill="#374151"/>
<path d="M322.267 22.2827V24.7832H259.932C258.337 24.7852 256.808 25.5492 255.68 26.9075C254.552 28.2658 253.918 30.1075 253.916 32.0285V64.8845H251.839V32.0285C251.842 29.4445 252.695 26.9673 254.212 25.1403C255.73 23.3132 257.787 22.2855 259.932 22.2827H322.267Z" fill="#4B5563"/>
<path d="M256.251 62.0708V57.0884C256.251 56.5172 256.063 55.9694 255.727 55.5655C255.392 55.1615 254.937 54.9346 254.463 54.9346H251.291C251.033 54.9342 250.777 55.0017 250.542 55.1324C250.307 55.263 250.098 55.4537 249.931 55.6911V55.6917C249.654 56.0809 249.503 56.5763 249.503 57.0884V62.0708H256.251Z" fill="#4B5563"/>
<path d="M259.776 73.6848V63.7326C259.776 63.3671 259.716 63.0051 259.6 62.6675C259.484 62.3298 259.314 62.0231 259.099 61.7646C258.885 61.5062 258.63 61.3013 258.349 61.1614C258.069 61.0216 257.769 60.9497 257.465 60.9497H248.289C247.676 60.9497 247.089 61.2429 246.655 61.7648C246.222 62.2867 245.979 62.9945 245.979 63.7326V73.6848H259.776Z" fill="#9CA3AF"/>
<path d="M260.242 75.876H245.512C245.337 75.876 245.169 75.7924 245.046 75.6436C244.922 75.4948 244.853 75.293 244.853 75.0826V74.4782C244.853 74.374 244.87 74.2708 244.903 74.1746C244.936 74.0783 244.985 73.9909 245.046 73.9172C245.107 73.8435 245.18 73.7851 245.26 73.7452C245.339 73.7053 245.425 73.6848 245.512 73.6848H260.242C260.416 73.6848 260.584 73.7684 260.707 73.9172C260.831 74.066 260.9 74.2678 260.9 74.4782V75.0826C260.9 75.293 260.831 75.4948 260.707 75.6436C260.584 75.7924 260.416 75.876 260.242 75.876Z" fill="#6B7280"/>
<path d="M259.776 73.6848V63.7326C259.776 63.3671 259.716 63.0051 259.6 62.6675C259.484 62.3298 259.314 62.0231 259.099 61.7646C258.885 61.5062 258.63 61.3013 258.349 61.1614C258.069 61.0216 257.769 60.9497 257.465 60.9497H248.289C247.676 60.9497 247.089 61.2429 246.655 61.7648C246.222 62.2867 245.979 62.9945 245.979 63.7326C255.886 64.5616 256.796 73.6848 256.796 73.6848H259.776Z" fill="#6B7280"/>
<path d="M259.776 72.8823H245.979V73.6848H259.776V72.8823Z" fill="#374151"/>
<path d="M259.776 69.4783V63.7326C259.776 63.3671 259.716 63.0051 259.6 62.6675C259.484 62.3298 259.313 62.0231 259.099 61.7646C258.884 61.5062 258.629 61.3013 258.349 61.1614C258.068 61.0216 257.768 60.9497 257.464 60.9497H251.023C257.528 60.9497 259.776 69.4783 259.776 69.4783Z" fill="#374151"/>
<path d="M256.251 60.4297H249.503V60.9498H256.251V60.4297Z" fill="#1F2937"/>
<path d="M256.251 60.9498V57.0884C256.251 56.5172 256.062 55.9694 255.727 55.5655C255.391 55.1615 254.937 54.9346 254.462 54.9346H251.291C251.032 54.9342 250.776 55.0017 250.541 55.1324C250.306 55.263 250.098 55.4537 249.93 55.6911V55.6917C254.873 54.9615 255.628 60.9498 255.628 60.9498H256.251Z" fill="#1F2937"/>
<path d="M234.779 84.566H230.507C230.351 84.566 230.201 84.4914 230.091 84.3585C229.981 84.2257 229.919 84.0455 229.919 83.8577C229.919 83.6698 229.981 83.4897 230.091 83.3569C230.201 83.224 230.351 83.1494 230.507 83.1494H234.779C234.935 83.1494 235.085 83.224 235.195 83.3569C235.306 83.4897 235.368 83.6698 235.368 83.8577C235.368 84.0455 235.306 84.2257 235.195 84.3585C235.085 84.4914 234.935 84.566 234.779 84.566Z" fill="#9CA3AF"/>
<path d="M240.201 78.0355C240.124 78.0355 240.048 78.0172 239.976 77.9816C239.905 77.946 239.84 77.8938 239.786 77.8281C239.731 77.7623 239.688 77.6842 239.658 77.5983C239.629 77.5124 239.613 77.4203 239.613 77.3272L239.613 72.1819C239.613 71.9941 239.675 71.8139 239.786 71.6811C239.896 71.5483 240.045 71.4736 240.201 71.4736C240.357 71.4736 240.507 71.5483 240.617 71.6811C240.728 71.8139 240.79 71.9941 240.79 72.1819V77.3272C240.79 77.4203 240.774 77.5124 240.745 77.5983C240.715 77.6842 240.672 77.7623 240.617 77.8281C240.563 77.8938 240.498 77.946 240.426 77.9816C240.355 78.0172 240.279 78.0355 240.201 78.0355Z" fill="#9CA3AF"/>
<path d="M236.282 79.8447C236.205 79.8448 236.128 79.8265 236.057 79.7909C235.985 79.7553 235.92 79.7031 235.866 79.6372L232.931 76.1027C232.821 75.9698 232.759 75.7897 232.759 75.6018C232.759 75.414 232.821 75.2338 232.931 75.101C233.041 74.9682 233.191 74.8936 233.347 74.8936C233.503 74.8936 233.652 74.9682 233.763 75.101L236.698 78.6356C236.78 78.7346 236.836 78.8608 236.859 78.9982C236.881 79.1356 236.87 79.278 236.825 79.4074C236.781 79.5369 236.705 79.6475 236.609 79.7253C236.512 79.8031 236.398 79.8447 236.282 79.8447Z" fill="#9CA3AF"/>
<path d="M270.975 100.501H275.248C275.404 100.501 275.553 100.576 275.664 100.708C275.774 100.841 275.836 101.021 275.836 101.209C275.836 101.397 275.774 101.577 275.664 101.71C275.553 101.843 275.404 101.918 275.248 101.918H270.975C270.819 101.918 270.67 101.843 270.559 101.71C270.449 101.577 270.387 101.397 270.387 101.209C270.387 101.021 270.449 100.841 270.559 100.708C270.67 100.576 270.819 100.501 270.975 100.501Z" fill="#9CA3AF"/>
<path d="M265.553 107.032C265.63 107.032 265.707 107.05 265.778 107.086C265.849 107.121 265.914 107.173 265.969 107.239C266.023 107.305 266.067 107.383 266.096 107.469C266.126 107.555 266.141 107.647 266.141 107.74V112.885C266.141 113.073 266.079 113.253 265.969 113.386C265.859 113.519 265.709 113.594 265.553 113.594C265.397 113.594 265.247 113.519 265.137 113.386C265.027 113.253 264.965 113.073 264.965 112.885V107.74C264.965 107.552 265.027 107.372 265.137 107.239C265.247 107.106 265.397 107.032 265.553 107.032Z" fill="#9CA3AF"/>
<path d="M269.473 105.223C269.551 105.223 269.627 105.241 269.698 105.276C269.77 105.312 269.835 105.364 269.889 105.43L272.824 108.965C272.934 109.098 272.996 109.278 272.996 109.465C272.996 109.653 272.934 109.833 272.824 109.966C272.713 110.098 272.564 110.173 272.408 110.173C272.252 110.173 272.103 110.099 271.992 109.966L269.058 106.432C268.975 106.333 268.919 106.207 268.897 106.069C268.874 105.932 268.886 105.789 268.93 105.66C268.975 105.53 269.05 105.42 269.147 105.342C269.243 105.264 269.357 105.223 269.473 105.223Z" fill="#9CA3AF"/>
<path d="M181.513 177.015H213.464C214.253 177.015 215.009 177.393 215.567 178.065C216.125 178.736 216.439 179.648 216.439 180.598V181.051C216.439 182.002 216.125 182.913 215.567 183.585C215.009 184.257 214.253 184.634 213.464 184.634H181.513C180.724 184.634 179.967 184.257 179.409 183.585C178.851 182.913 178.538 182.002 178.538 181.051V180.598C178.538 179.648 178.851 178.736 179.409 178.065C179.967 177.393 180.724 177.015 181.513 177.015Z" fill="#F9FAFB"/>
<path d="M322.512 12.2187C321.798 11.0919 320.875 10.1804 319.818 9.55585C318.761 8.93133 317.598 8.61091 316.421 8.61981H78.8702C76.209 8.61981 73.867 10.2209 72.5376 12.6294C71.7788 13.9902 71.3737 15.5923 71.374 17.2315V158.171C71.3737 159.811 71.7788 161.413 72.5376 162.774C72.6159 162.915 72.6977 163.054 72.7829 163.19C73.4973 164.316 74.4189 165.226 75.4753 165.85C76.5316 166.474 77.6937 166.794 78.8702 166.785H316.421C317.532 166.792 318.631 166.507 319.641 165.949C320.65 165.391 321.547 164.574 322.267 163.555C322.352 163.434 322.434 163.31 322.512 163.184C323.422 161.742 323.915 159.982 323.917 158.171V17.2315C323.915 15.4208 323.422 13.6605 322.512 12.2187ZM321.544 158.171C321.544 161.417 319.245 164.057 316.421 164.057H78.8702C76.0466 164.057 73.7472 161.417 73.7472 158.171V17.2315C73.7472 13.9863 76.0466 11.3461 78.8702 11.3461H316.421C319.245 11.3461 321.544 13.9863 321.544 17.2315V158.171Z" fill="#4B5563"/>
<path d="M70.6997 238.006C70.3998 238.005 70.1041 237.921 69.8363 237.758C69.5685 237.595 69.3361 237.359 69.1577 237.069C68.9793 236.778 68.8599 236.441 68.809 236.085C68.7582 235.729 68.7773 235.364 68.8648 235.019L89.9171 152.211C89.9907 151.921 90.1111 151.651 90.2713 151.417C90.4316 151.183 90.6287 150.989 90.8512 150.846C91.0737 150.704 91.3173 150.616 91.5682 150.587C91.8191 150.558 92.0722 150.589 92.3132 150.677C92.5541 150.766 92.7782 150.911 92.9725 151.105C93.1669 151.298 93.3278 151.535 93.4459 151.803C93.564 152.071 93.6372 152.365 93.6611 152.667C93.685 152.969 93.6593 153.274 93.5853 153.564L72.5331 236.371C72.4129 236.844 72.17 237.258 71.84 237.552C71.51 237.846 71.1103 238.005 70.6997 238.006Z" fill="#F3F4F6"/>
<path d="M85.3597 238.006C85.0598 238.005 84.7641 237.92 84.4963 237.758C84.2285 237.595 83.9962 237.359 83.8178 237.069C83.6394 236.778 83.52 236.441 83.4692 236.085C83.4183 235.729 83.4375 235.364 83.525 235.019L104.577 152.211C104.651 151.921 104.771 151.651 104.932 151.417C105.092 151.183 105.289 150.989 105.512 150.847C105.734 150.704 105.978 150.616 106.229 150.587C106.479 150.558 106.732 150.589 106.973 150.678C107.214 150.767 107.438 150.912 107.633 151.105C107.827 151.298 107.988 151.536 108.106 151.804C108.224 152.072 108.297 152.365 108.321 152.667C108.345 152.969 108.32 153.274 108.246 153.564L87.1933 236.371C87.0731 236.844 86.8301 237.258 86.5 237.552C86.17 237.846 85.7703 238.005 85.3597 238.006Z" fill="#F3F4F6"/>
<path d="M103.579 166.337H88.9187C88.41 166.337 87.9221 166.093 87.5623 165.66C87.2026 165.227 87.0005 164.639 87.0005 164.027C87.0005 163.414 87.2026 162.826 87.5623 162.393C87.9221 161.96 88.41 161.716 88.9187 161.716H103.579C104.088 161.716 104.576 161.96 104.936 162.393C105.295 162.826 105.498 163.414 105.498 164.027C105.498 164.639 105.295 165.227 104.936 165.66C104.576 166.093 104.088 166.337 103.579 166.337Z" fill="#F3F4F6"/>
<path d="M100.027 179.258H85.8162C85.3168 179.241 84.8427 178.99 84.4946 178.559C84.1464 178.127 83.9517 177.549 83.9517 176.948C83.9517 176.346 84.1464 175.768 84.4946 175.337C84.8427 174.906 85.3168 174.655 85.8162 174.638H100.027C100.526 174.655 101 174.906 101.348 175.337C101.697 175.768 101.891 176.346 101.891 176.948C101.891 177.549 101.697 178.127 101.348 178.559C101 178.99 100.526 179.241 100.027 179.258Z" fill="#F3F4F6"/>
<path d="M96.9961 192.18H82.5576C82.053 192.172 81.5712 191.926 81.2166 191.493C80.8619 191.061 80.6631 190.478 80.6631 189.87C80.6631 189.262 80.8619 188.679 81.2166 188.246C81.5712 187.814 82.053 187.567 82.5576 187.56H96.9961C97.5007 187.567 97.9825 187.814 98.3372 188.246C98.6918 188.679 98.8906 189.262 98.8906 189.87C98.8906 190.478 98.6918 191.061 98.3372 191.493C97.9825 191.926 97.5007 192.172 96.9961 192.18Z" fill="#F3F4F6"/>
<path d="M93.7161 205.102H79.097C78.5882 205.102 78.1003 204.858 77.7405 204.425C77.3808 203.992 77.1787 203.404 77.1787 202.792C77.1787 202.179 77.3808 201.591 77.7405 201.158C78.1003 200.725 78.5882 200.481 79.097 200.481H93.7161C94.2248 200.481 94.7127 200.725 95.0725 201.158C95.4322 201.591 95.6343 202.179 95.6343 202.792C95.6343 203.404 95.4322 203.992 95.0725 204.425C94.7127 204.858 94.2248 205.102 93.7161 205.102Z" fill="#F3F4F6"/>
<path d="M90.3895 218.024H75.7703C75.2615 218.024 74.7736 217.78 74.4139 217.347C74.0542 216.914 73.8521 216.326 73.8521 215.714C73.8521 215.101 74.0542 214.513 74.4139 214.08C74.7736 213.647 75.2615 213.403 75.7703 213.403H90.3895C90.8982 213.403 91.3861 213.647 91.7459 214.08C92.1056 214.513 92.3077 215.101 92.3077 215.714C92.3077 216.326 92.1056 216.914 91.7459 217.347C91.3861 217.78 90.8982 218.024 90.3895 218.024Z" fill="#F3F4F6"/>
<path d="M86.8858 230.925H72.9122C71.8996 230.925 71.0786 229.89 71.0786 228.614C71.0786 227.339 71.8996 226.304 72.9122 226.304H86.8858C87.8984 226.304 88.7194 227.339 88.7194 228.614C88.7194 229.89 87.8984 230.925 86.8858 230.925Z" fill="#F3F4F6"/>
<path d="M394.833 238.791H375.207C374.899 238.791 374.605 238.644 374.387 238.382C374.17 238.12 374.048 237.765 374.048 237.395C374.048 237.025 374.17 236.67 374.387 236.408C374.605 236.147 374.899 236 375.207 236H394.833C395.14 236 395.435 236.147 395.653 236.408C395.87 236.67 395.992 237.025 395.992 237.395C395.992 237.765 395.87 238.12 395.653 238.382C395.435 238.644 395.14 238.791 394.833 238.791Z" fill="#1F2937"/>
<path d="M375.316 238.791H1.15896C0.851585 238.791 0.5568 238.644 0.339454 238.382C0.122108 238.12 0 237.765 0 237.395C0 237.025 0.122108 236.67 0.339454 236.408C0.5568 236.147 0.851585 236 1.15896 236H375.316C375.623 236 375.918 236.147 376.135 236.408C376.352 236.67 376.475 237.025 376.475 237.395C376.475 237.765 376.352 238.12 376.135 238.382C375.918 238.644 375.623 238.791 375.316 238.791Z" fill="#1F2937"/>
<path d="M398.841 238.791H379.215C378.908 238.791 378.613 238.644 378.396 238.382C378.178 238.12 378.056 237.765 378.056 237.395C378.056 237.025 378.178 236.67 378.396 236.408C378.613 236.147 378.908 236 379.215 236H398.841C399.149 236 399.443 236.147 399.661 236.408C399.878 236.67 400 237.025 400 237.395C400 237.765 399.878 238.12 399.661 238.382C399.443 238.644 399.149 238.791 398.841 238.791Z" fill="#1F2937"/>
<path d="M382.252 198.8V227.425C382.252 227.747 382.235 228.069 382.203 228.389C382.152 228.892 382.062 229.388 381.933 229.871C380.986 233.428 378.024 236.022 374.515 236.022H362.327C358.053 236.022 354.591 232.173 354.591 227.425V198.8H382.252Z" fill="#9CA3AF"/>
<path d="M385.301 205.087C384.316 204.702 383.287 204.506 382.252 204.507C381.81 204.507 381.369 204.543 380.931 204.614C378.562 204.999 376.389 206.406 374.815 208.574C373.242 210.742 372.375 213.524 372.375 216.403C372.375 219.283 373.242 222.065 374.815 224.232C376.389 226.4 378.562 227.807 380.931 228.193C381.353 228.262 381.777 228.297 382.203 228.3H382.252C384.604 228.299 386.879 227.288 388.667 225.448C390.455 223.608 391.64 221.06 392.007 218.262C392.375 215.464 391.901 212.599 390.672 210.184C389.443 207.769 387.538 205.962 385.301 205.087ZM385.301 224.415C384.344 224.942 383.304 225.215 382.252 225.213C381.809 225.213 381.367 225.166 380.931 225.071C379.248 224.698 377.727 223.627 376.632 222.044C375.537 220.461 374.937 218.465 374.937 216.404C374.937 214.344 375.537 212.348 376.632 210.765C377.727 209.181 379.248 208.11 380.931 207.738C381.367 207.643 381.809 207.595 382.252 207.595C383.921 207.596 385.539 208.283 386.839 209.544C388.139 210.805 389.042 212.563 389.398 214.527C389.754 216.49 389.542 218.542 388.796 220.34C388.051 222.139 386.818 223.576 385.301 224.415Z" fill="#9CA3AF"/>
<path d="M382.251 198.8V227.425C382.251 227.747 382.234 228.069 382.202 228.389C382.151 228.892 382.061 229.388 381.932 229.871C380.985 233.428 378.023 236.022 374.514 236.022H368.419V198.8H382.251Z" fill="#4B5563"/>
<g style="mix-blend-mode:multiply" opacity="0.5">
<path d="M385.301 205.087V208.394C384.344 207.866 383.303 207.594 382.251 207.595V204.507C383.286 204.506 384.316 204.702 385.301 205.087Z" fill="#4B5563"/>
</g>
<g style="mix-blend-mode:multiply" opacity="0.5">
<path d="M382.251 225.213C383.303 225.214 384.344 224.942 385.301 224.415V227.72C384.316 228.105 383.286 228.301 382.251 228.299H382.202C382.235 227.953 382.251 227.604 382.251 227.255V225.213Z" fill="#4B5563"/>
</g>
<path d="M383.399 176.524C383.399 176.207 383.347 175.893 383.246 175.6C383.146 175.307 382.998 175.041 382.812 174.817C382.626 174.593 382.405 174.415 382.162 174.293C381.918 174.172 381.658 174.11 381.394 174.11H369.109C368.646 174.11 368.201 173.888 367.874 173.494C367.546 173.099 367.362 172.564 367.362 172.006C367.362 171.73 367.407 171.456 367.495 171.201C367.583 170.946 367.712 170.714 367.874 170.518C368.036 170.323 368.229 170.168 368.441 170.062C368.653 169.957 368.88 169.902 369.109 169.902H372.087C372.279 169.902 372.469 169.857 372.646 169.768C372.823 169.68 372.985 169.55 373.12 169.387C373.256 169.224 373.363 169.03 373.437 168.816C373.51 168.603 373.548 168.374 373.548 168.143C373.548 167.912 373.51 167.683 373.437 167.47C373.363 167.257 373.256 167.063 373.12 166.899C372.985 166.736 372.823 166.607 372.646 166.518C372.469 166.43 372.279 166.384 372.087 166.384H360.66C360.468 166.384 360.279 166.43 360.101 166.518C359.924 166.607 359.763 166.736 359.627 166.899C359.492 167.063 359.384 167.257 359.311 167.47C359.237 167.683 359.2 167.912 359.2 168.143C359.2 168.374 359.237 168.603 359.311 168.816C359.384 169.03 359.492 169.224 359.627 169.387C359.763 169.55 359.924 169.68 360.101 169.768C360.279 169.857 360.468 169.902 360.66 169.902H361.684C361.914 169.902 362.141 169.957 362.353 170.062C362.565 170.168 362.757 170.323 362.92 170.518C363.082 170.714 363.21 170.946 363.298 171.201C363.386 171.456 363.431 171.73 363.431 172.006C363.431 172.282 363.386 172.556 363.298 172.811C363.21 173.066 363.082 173.298 362.92 173.494C362.757 173.689 362.565 173.844 362.353 173.95C362.141 174.055 361.914 174.11 361.684 174.11H359C358.737 174.11 358.476 174.172 358.233 174.293C357.99 174.415 357.769 174.593 357.583 174.817C357.397 175.041 357.249 175.307 357.148 175.6C357.047 175.893 356.996 176.207 356.996 176.524C356.996 176.841 357.047 177.155 357.148 177.448C357.249 177.741 357.397 178.007 357.583 178.231C357.769 178.455 357.99 178.633 358.233 178.754C358.476 178.876 358.737 178.938 359 178.938H368.796C368.991 178.938 369.185 178.984 369.365 179.074C369.546 179.165 369.709 179.296 369.848 179.463C369.986 179.629 370.095 179.827 370.17 180.044C370.245 180.261 370.283 180.494 370.283 180.729C370.283 181.205 370.127 181.66 369.848 181.996C369.569 182.332 369.19 182.521 368.796 182.521H361.387C361.129 182.521 360.874 182.582 360.635 182.701C360.397 182.82 360.18 182.994 359.998 183.214C359.815 183.434 359.671 183.695 359.572 183.982C359.473 184.269 359.422 184.577 359.422 184.887C359.422 185.198 359.473 185.506 359.572 185.793C359.671 186.08 359.815 186.341 359.998 186.561C360.18 186.781 360.397 186.955 360.635 187.074C360.874 187.193 361.129 187.254 361.387 187.254H363.82C364.109 187.254 364.386 187.392 364.59 187.638C364.794 187.884 364.909 188.218 364.909 188.566V189.611C364.909 189.875 364.952 190.135 365.035 190.378C365.119 190.621 365.242 190.842 365.396 191.029C365.551 191.215 365.734 191.362 365.936 191.463C366.138 191.564 366.354 191.615 366.573 191.615C366.791 191.615 367.008 191.564 367.21 191.463C367.412 191.362 367.595 191.215 367.75 191.029C367.904 190.842 368.027 190.621 368.11 190.378C368.194 190.135 368.237 189.875 368.237 189.611V188.565C368.237 188.217 368.352 187.884 368.556 187.638C368.76 187.392 369.037 187.254 369.325 187.254L376.582 187.249C377.102 187.249 377.601 187 377.968 186.557C378.336 186.114 378.542 185.514 378.542 184.887C378.542 184.26 378.336 183.659 377.968 183.215C377.599 182.772 377.1 182.522 376.579 182.522C376.215 182.521 375.84 182.521 375.492 182.521C375.098 182.521 374.72 182.332 374.441 181.997C374.163 181.661 374.006 181.206 374.006 180.731V180.731C374.006 180.495 374.044 180.262 374.119 180.045C374.194 179.827 374.303 179.63 374.441 179.463C374.579 179.297 374.743 179.165 374.924 179.075C375.104 178.985 375.298 178.938 375.493 178.938H381.394C381.658 178.938 381.918 178.876 382.162 178.754C382.405 178.633 382.626 178.455 382.812 178.231C382.998 178.007 383.146 177.741 383.246 177.448C383.347 177.155 383.399 176.841 383.399 176.524Z" fill="#D1D5DB"/>
<path d="M93.524 108.847C93.4672 108.274 93.2233 107.829 92.7924 107.512C92.3616 107.194 91.7768 107.036 91.0382 107.036C90.5363 107.036 90.1125 107.107 89.7669 107.249C89.4212 107.386 89.1561 107.578 88.9714 107.824C88.7915 108.07 88.7015 108.35 88.7015 108.662C88.6921 108.923 88.7465 109.15 88.8649 109.344C88.988 109.538 89.1561 109.706 89.3691 109.848C89.5822 109.985 89.8284 110.106 90.1078 110.21C90.3871 110.31 90.6854 110.395 91.0027 110.466L92.3095 110.779C92.944 110.921 93.5263 111.11 94.0566 111.347C94.5869 111.584 95.0462 111.875 95.4345 112.22C95.8227 112.566 96.1234 112.973 96.3365 113.442C96.5543 113.911 96.6655 114.448 96.6703 115.054C96.6655 115.944 96.4383 116.716 95.9885 117.369C95.5434 118.018 94.8994 118.522 94.0566 118.882C93.2186 119.237 92.2077 119.415 91.024 119.415C89.8497 119.415 88.827 119.235 87.9558 118.875C87.0893 118.515 86.4122 117.983 85.9245 117.277C85.4416 116.567 85.1883 115.689 85.1646 114.642H88.1404C88.1736 115.13 88.3133 115.537 88.5595 115.864C88.8104 116.186 89.1442 116.43 89.5609 116.595C89.9823 116.756 90.4582 116.837 90.9885 116.837C91.5093 116.837 91.9615 116.761 92.345 116.61C92.7333 116.458 93.0339 116.247 93.247 115.977C93.4601 115.708 93.5666 115.397 93.5666 115.047C93.5666 114.72 93.4695 114.446 93.2754 114.223C93.086 114.001 92.8066 113.811 92.4373 113.655C92.0727 113.499 91.6253 113.357 91.095 113.229L89.5112 112.831C88.2849 112.533 87.3166 112.066 86.6064 111.432C85.8961 110.798 85.5434 109.943 85.5481 108.868C85.5434 107.987 85.7778 107.218 86.2512 106.56C86.7295 105.902 87.3852 105.388 88.2186 105.019C89.0519 104.649 89.9989 104.465 91.0595 104.465C92.139 104.465 93.0813 104.649 93.8862 105.019C94.6958 105.388 95.3256 105.902 95.7754 106.56C96.2252 107.218 96.4572 107.98 96.4714 108.847H93.524ZM105.654 119.422C104.531 119.422 103.566 119.195 102.756 118.74C101.951 118.281 101.331 117.632 100.895 116.794C100.459 115.951 100.242 114.955 100.242 113.804C100.242 112.682 100.459 111.697 100.895 110.85C101.331 110.002 101.944 109.342 102.735 108.868C103.53 108.395 104.463 108.158 105.533 108.158C106.253 108.158 106.923 108.274 107.543 108.506C108.168 108.733 108.712 109.076 109.176 109.536C109.645 109.995 110.01 110.573 110.27 111.269C110.53 111.96 110.661 112.77 110.661 113.698V114.529H101.449V112.654H107.813C107.813 112.218 107.718 111.832 107.529 111.496C107.339 111.16 107.076 110.897 106.74 110.708C106.409 110.513 106.023 110.416 105.583 110.416C105.123 110.416 104.716 110.523 104.361 110.736C104.011 110.944 103.736 111.226 103.537 111.581C103.338 111.932 103.236 112.322 103.232 112.753V114.536C103.232 115.075 103.331 115.542 103.53 115.935C103.734 116.328 104.02 116.631 104.389 116.844C104.759 117.057 105.197 117.164 105.703 117.164C106.039 117.164 106.347 117.116 106.627 117.021C106.906 116.927 107.145 116.785 107.344 116.595C107.543 116.406 107.694 116.174 107.798 115.899L110.597 116.084C110.455 116.756 110.164 117.343 109.723 117.845C109.288 118.343 108.724 118.731 108.033 119.01C107.346 119.285 106.553 119.422 105.654 119.422ZM114.635 119.209V108.3H117.568V110.203H117.682C117.881 109.526 118.215 109.015 118.683 108.669C119.152 108.319 119.692 108.144 120.303 108.144C120.454 108.144 120.618 108.153 120.793 108.172C120.968 108.191 121.122 108.217 121.254 108.25V110.935C121.112 110.892 120.916 110.854 120.665 110.821C120.414 110.788 120.184 110.771 119.976 110.771C119.531 110.771 119.133 110.869 118.783 111.063C118.437 111.252 118.163 111.517 117.959 111.858C117.76 112.199 117.661 112.592 117.661 113.037V119.209H114.635ZM135.321 108.3L131.507 119.209H128.098L124.284 108.3H127.48L129.746 116.105H129.86L132.118 108.3H135.321ZM143.49 119.422C142.367 119.422 141.401 119.195 140.592 118.74C139.787 118.281 139.167 117.632 138.731 116.794C138.295 115.951 138.078 114.955 138.078 113.804C138.078 112.682 138.295 111.697 138.731 110.85C139.167 110.002 139.78 109.342 140.57 108.868C141.366 108.395 142.299 108.158 143.369 108.158C144.088 108.158 144.758 108.274 145.379 108.506C146.004 108.733 146.548 109.076 147.012 109.536C147.481 109.995 147.846 110.573 148.106 111.269C148.366 111.96 148.497 112.77 148.497 113.698V114.529H139.285V112.654H145.649C145.649 112.218 145.554 111.832 145.365 111.496C145.175 111.16 144.912 110.897 144.576 110.708C144.245 110.513 143.859 110.416 143.419 110.416C142.959 110.416 142.552 110.523 142.197 110.736C141.847 110.944 141.572 111.226 141.373 111.581C141.174 111.932 141.072 112.322 141.068 112.753V114.536C141.068 115.075 141.167 115.542 141.366 115.935C141.57 116.328 141.856 116.631 142.225 116.844C142.595 117.057 143.033 117.164 143.539 117.164C143.875 117.164 144.183 117.116 144.463 117.021C144.742 116.927 144.981 116.785 145.18 116.595C145.379 116.406 145.53 116.174 145.634 115.899L148.433 116.084C148.291 116.756 147.999 117.343 147.559 117.845C147.124 118.343 146.56 118.731 145.869 119.01C145.182 119.285 144.389 119.422 143.49 119.422ZM152.471 119.209V108.3H155.404V110.203H155.518C155.717 109.526 156.051 109.015 156.519 108.669C156.988 108.319 157.528 108.144 158.139 108.144C158.29 108.144 158.454 108.153 158.629 108.172C158.804 108.191 158.958 108.217 159.09 108.25V110.935C158.948 110.892 158.752 110.854 158.501 110.821C158.25 110.788 158.02 110.771 157.812 110.771C157.367 110.771 156.969 110.869 156.619 111.063C156.273 111.252 155.999 111.517 155.795 111.858C155.596 112.199 155.497 112.592 155.497 113.037V119.209H152.471ZM169.34 119.209V104.664H179.142V107.199H172.416V110.665H178.637V113.2H172.416V116.673H179.17V119.209H169.34ZM183.53 119.209V108.3H186.463V110.203H186.577C186.775 109.526 187.109 109.015 187.578 108.669C188.047 108.319 188.586 108.144 189.197 108.144C189.349 108.144 189.512 108.153 189.687 108.172C189.863 108.191 190.016 108.217 190.149 108.25V110.935C190.007 110.892 189.81 110.854 189.559 110.821C189.309 110.788 189.079 110.771 188.871 110.771C188.425 110.771 188.028 110.869 187.677 111.063C187.332 111.252 187.057 111.517 186.854 111.858C186.655 112.199 186.555 112.592 186.555 113.037V119.209H183.53ZM193.713 119.209V108.3H196.646V110.203H196.76C196.959 109.526 197.293 109.015 197.762 108.669C198.23 108.319 198.77 108.144 199.381 108.144C199.532 108.144 199.696 108.153 199.871 108.172C200.046 108.191 200.2 108.217 200.333 108.25V110.935C200.191 110.892 199.994 110.854 199.743 110.821C199.492 110.788 199.262 110.771 199.054 110.771C198.609 110.771 198.211 110.869 197.861 111.063C197.515 111.252 197.241 111.517 197.037 111.858C196.838 112.199 196.739 112.592 196.739 113.037V119.209H193.713ZM208.318 119.422C207.215 119.422 206.261 119.188 205.456 118.719C204.656 118.245 204.038 117.587 203.602 116.744C203.166 115.897 202.949 114.914 202.949 113.797C202.949 112.67 203.166 111.685 203.602 110.843C204.038 109.995 204.656 109.337 205.456 108.868C206.261 108.395 207.215 108.158 208.318 108.158C209.421 108.158 210.373 108.395 211.173 108.868C211.978 109.337 212.598 109.995 213.034 110.843C213.47 111.685 213.687 112.67 213.687 113.797C213.687 114.914 213.47 115.897 213.034 116.744C212.598 117.587 211.978 118.245 211.173 118.719C210.373 119.188 209.421 119.422 208.318 119.422ZM208.332 117.078C208.834 117.078 209.253 116.936 209.589 116.652C209.925 116.363 210.179 115.97 210.349 115.473C210.524 114.976 210.612 114.41 210.612 113.776C210.612 113.141 210.524 112.575 210.349 112.078C210.179 111.581 209.925 111.188 209.589 110.899C209.253 110.61 208.834 110.466 208.332 110.466C207.826 110.466 207.399 110.61 207.054 110.899C206.713 111.188 206.455 111.581 206.28 112.078C206.109 112.575 206.024 113.141 206.024 113.776C206.024 114.41 206.109 114.976 206.28 115.473C206.455 115.97 206.713 116.363 207.054 116.652C207.399 116.936 207.826 117.078 208.332 117.078ZM217.655 119.209V108.3H220.588V110.203H220.702C220.9 109.526 221.234 109.015 221.703 108.669C222.172 108.319 222.711 108.144 223.322 108.144C223.474 108.144 223.637 108.153 223.812 108.172C223.988 108.191 224.141 108.217 224.274 108.25V110.935C224.132 110.892 223.935 110.854 223.684 110.821C223.434 110.788 223.204 110.771 222.996 110.771C222.55 110.771 222.153 110.869 221.802 111.063C221.457 111.252 221.182 111.517 220.979 111.858C220.78 112.199 220.68 112.592 220.68 113.037V119.209H217.655Z" fill="black"/>
<path d="M145.039 94.3603C158.616 94.3603 169.622 83.3541 169.622 69.7773C169.622 56.2005 158.616 45.1943 145.039 45.1943C131.462 45.1943 120.456 56.2005 120.456 69.7773C120.456 83.3541 131.462 94.3603 145.039 94.3603Z" fill="black"/>
<path d="M145.038 67.5363V71.1185M136.152 74.343C135.325 75.7758 136.359 77.5663 138.013 77.5663H152.064C153.718 77.5663 154.752 75.7758 153.925 74.343L146.9 62.1661C146.073 60.7324 144.004 60.7324 143.177 62.1661L136.152 74.343ZM145.038 73.9842H145.046V73.9913H145.038V73.9842Z" stroke="white" stroke-width="1.5" stroke-linecap="round" stroke-linejoin="round"/>
</svg>
