<svg width="284" height="203" viewBox="0 0 284 203" fill="none" xmlns="http://www.w3.org/2000/svg">
<path d="M231.514 0H58.2614C50.2877 0 43.8237 6.46397 43.8237 14.4377V187.69C43.8237 195.664 50.2877 202.128 58.2614 202.128H231.514C239.487 202.128 245.951 195.664 245.951 187.69V14.4377C245.951 6.46397 239.487 0 231.514 0Z" fill="url(#paint0_linear_88_14906)"/>
<g filter="url(#filter0_d_88_14906)">
<path d="M75.5865 77.9634H270.495C272.41 77.9634 274.246 78.7239 275.6 80.0777C276.954 81.4315 277.714 83.2677 277.714 85.1822V121.276C277.714 123.191 276.954 125.027 275.6 126.381C274.246 127.735 272.41 128.495 270.495 128.495H75.5865C73.672 128.495 71.8358 127.735 70.482 126.381C69.1282 125.027 68.3677 123.191 68.3677 121.276V85.1822C68.3677 83.2677 69.1282 81.4315 70.482 80.0777C71.8358 78.7239 73.672 77.9634 75.5865 77.9634V77.9634Z" fill="white"/>
</g>
<path d="M182.425 89.5137H144.887C142.495 89.5137 140.556 91.4529 140.556 93.845C140.556 96.2371 142.495 98.1763 144.887 98.1763H182.425C184.818 98.1763 186.757 96.2371 186.757 93.845C186.757 91.4529 184.818 89.5137 182.425 89.5137Z" fill="#6B7280"/>
<path d="M208.413 108.283H144.887C142.495 108.283 140.556 110.222 140.556 112.614C140.556 115.006 142.495 116.945 144.887 116.945H208.413C210.805 116.945 212.745 115.006 212.745 112.614C212.745 110.222 210.805 108.283 208.413 108.283Z" fill="#D1D5DB"/>
<path d="M112.403 116.945C119.978 116.945 126.119 110.805 126.119 103.229C126.119 95.6544 119.978 89.5137 112.403 89.5137C104.828 89.5137 98.687 95.6544 98.687 103.229C98.687 110.805 104.828 116.945 112.403 116.945Z" fill="black"/>
<path d="M107.875 105.908V105.84C107.88 105.4 107.924 105.05 108.006 104.789C108.092 104.529 108.212 104.318 108.369 104.157C108.525 103.996 108.713 103.849 108.933 103.717C109.075 103.627 109.203 103.526 109.317 103.415C109.43 103.304 109.52 103.176 109.587 103.031C109.653 102.887 109.686 102.727 109.686 102.552C109.686 102.341 109.636 102.159 109.537 102.005C109.438 101.851 109.305 101.733 109.139 101.65C108.976 101.565 108.794 101.522 108.592 101.522C108.41 101.522 108.236 101.56 108.07 101.636C107.905 101.712 107.767 101.83 107.658 101.991C107.549 102.15 107.487 102.354 107.47 102.605H106.391C106.407 102.179 106.515 101.819 106.714 101.526C106.913 101.23 107.175 101.006 107.502 100.855C107.831 100.703 108.195 100.627 108.592 100.627C109.028 100.627 109.409 100.709 109.736 100.872C110.063 101.033 110.316 101.259 110.496 101.551C110.678 101.839 110.769 102.177 110.769 102.563C110.769 102.828 110.728 103.067 110.645 103.28C110.562 103.491 110.444 103.679 110.29 103.845C110.138 104.01 109.956 104.157 109.743 104.285C109.542 104.41 109.378 104.541 109.253 104.676C109.13 104.811 109.04 104.97 108.983 105.155C108.926 105.34 108.895 105.568 108.891 105.84V105.908H107.875ZM108.411 108.067C108.217 108.067 108.05 107.998 107.911 107.861C107.771 107.721 107.701 107.553 107.701 107.357C107.701 107.163 107.771 106.997 107.911 106.86C108.05 106.72 108.217 106.65 108.411 106.65C108.603 106.65 108.769 106.72 108.908 106.86C109.05 106.997 109.121 107.163 109.121 107.357C109.121 107.487 109.088 107.607 109.022 107.715C108.958 107.822 108.873 107.907 108.766 107.971C108.66 108.035 108.541 108.067 108.411 108.067ZM113.129 105.908V105.84C113.134 105.4 113.177 105.05 113.26 104.789C113.346 104.529 113.466 104.318 113.623 104.157C113.779 103.996 113.967 103.849 114.187 103.717C114.329 103.627 114.457 103.526 114.571 103.415C114.684 103.304 114.774 103.176 114.841 103.031C114.907 102.887 114.94 102.727 114.94 102.552C114.94 102.341 114.89 102.159 114.791 102.005C114.691 101.851 114.559 101.733 114.393 101.65C114.23 101.565 114.047 101.522 113.846 101.522C113.664 101.522 113.49 101.56 113.324 101.636C113.158 101.712 113.021 101.83 112.912 101.991C112.803 102.15 112.741 102.354 112.724 102.605H111.645C111.661 102.179 111.769 101.819 111.968 101.526C112.167 101.23 112.429 101.006 112.756 100.855C113.085 100.703 113.449 100.627 113.846 100.627C114.282 100.627 114.663 100.709 114.99 100.872C115.316 101.033 115.57 101.259 115.75 101.551C115.932 101.839 116.023 102.177 116.023 102.563C116.023 102.828 115.982 103.067 115.899 103.28C115.816 103.491 115.698 103.679 115.544 103.845C115.392 104.01 115.21 104.157 114.997 104.285C114.796 104.41 114.632 104.541 114.507 104.676C114.384 104.811 114.294 104.97 114.237 105.155C114.18 105.34 114.149 105.568 114.145 105.84V105.908H113.129ZM113.665 108.067C113.471 108.067 113.304 107.998 113.164 107.861C113.025 107.721 112.955 107.553 112.955 107.357C112.955 107.163 113.025 106.997 113.164 106.86C113.304 106.72 113.471 106.65 113.665 106.65C113.857 106.65 114.023 106.72 114.162 106.86C114.304 106.997 114.375 107.163 114.375 107.357C114.375 107.487 114.342 107.607 114.276 107.715C114.212 107.822 114.127 107.907 114.02 107.971C113.914 108.035 113.795 108.067 113.665 108.067Z" fill="white"/>
<g filter="url(#filter1_d_88_14906)">
<path d="M13.5045 140.046H208.413C210.328 140.046 212.164 140.806 213.518 142.16C214.872 143.514 215.632 145.35 215.632 147.265V183.359C215.632 185.274 214.872 187.11 213.518 188.463C212.164 189.817 210.328 190.578 208.413 190.578H13.5045C11.5899 190.578 9.75379 189.817 8.4 188.463C7.0462 187.11 6.28564 185.274 6.28564 183.359V147.265C6.28564 145.35 7.0462 143.514 8.4 142.16C9.75379 140.806 11.5899 140.046 13.5045 140.046V140.046Z" fill="white"/>
</g>
<path d="M120.343 151.596H82.8054C80.4133 151.596 78.4741 153.535 78.4741 155.927C78.4741 158.32 80.4133 160.259 82.8054 160.259H120.343C122.736 160.259 124.675 158.32 124.675 155.927C124.675 153.535 122.736 151.596 120.343 151.596Z" fill="#6B7280"/>
<path d="M146.331 170.365H82.8054C80.4133 170.365 78.4741 172.304 78.4741 174.697C78.4741 177.089 80.4133 179.028 82.8054 179.028H146.331C148.723 179.028 150.663 177.089 150.663 174.697C150.663 172.304 148.723 170.365 146.331 170.365Z" fill="#D1D5DB"/>
<path d="M31.5517 179.028C39.1268 179.028 45.2675 172.887 45.2675 165.312C45.2675 157.737 39.1268 151.596 31.5517 151.596C23.9767 151.596 17.8359 157.737 17.8359 165.312C17.8359 172.887 23.9767 179.028 31.5517 179.028Z" fill="black"/>
<path d="M27.875 167.908V167.841C27.8797 167.401 27.9235 167.05 28.0064 166.79C28.0916 166.529 28.2124 166.319 28.3686 166.158C28.5249 165.997 28.7131 165.85 28.9332 165.717C29.0753 165.627 29.2031 165.527 29.3168 165.415C29.4304 165.304 29.5204 165.176 29.5866 165.032C29.6529 164.888 29.6861 164.728 29.6861 164.553C29.6861 164.342 29.6364 164.16 29.5369 164.006C29.4375 163.852 29.3049 163.733 29.1392 163.651C28.9759 163.565 28.7936 163.523 28.5923 163.523C28.41 163.523 28.236 163.561 28.0703 163.636C27.9046 163.712 27.7673 163.83 27.6584 163.991C27.5495 164.15 27.4867 164.355 27.4702 164.606H26.3906C26.4072 164.18 26.5149 163.82 26.7138 163.526C26.9126 163.23 27.1754 163.007 27.5021 162.855C27.8312 162.704 28.1946 162.628 28.5923 162.628C29.0279 162.628 29.4091 162.71 29.7358 162.873C30.0625 163.034 30.3158 163.26 30.4957 163.551C30.678 163.84 30.7692 164.177 30.7692 164.563C30.7692 164.828 30.7277 165.067 30.6449 165.281C30.562 165.491 30.4437 165.679 30.2898 165.845C30.1383 166.011 29.956 166.158 29.7429 166.286C29.5417 166.411 29.3783 166.541 29.2528 166.676C29.1297 166.811 29.0398 166.971 28.983 167.156C28.9261 167.34 28.8954 167.569 28.8906 167.841V167.908H27.875ZM28.4112 170.067C28.2171 170.067 28.0502 169.999 27.9105 169.862C27.7708 169.722 27.701 169.554 27.701 169.357C27.701 169.163 27.7708 168.997 27.9105 168.86C28.0502 168.72 28.2171 168.651 28.4112 168.651C28.603 168.651 28.7687 168.72 28.9084 168.86C29.0504 168.997 29.1214 169.163 29.1214 169.357C29.1214 169.487 29.0883 169.607 29.022 169.716C28.9581 169.822 28.8729 169.908 28.7663 169.972C28.6598 170.036 28.5414 170.067 28.4112 170.067ZM33.1289 167.908V167.841C33.1336 167.401 33.1774 167.05 33.2603 166.79C33.3455 166.529 33.4663 166.319 33.6225 166.158C33.7788 165.997 33.967 165.85 34.1871 165.717C34.3292 165.627 34.457 165.527 34.5707 165.415C34.6843 165.304 34.7743 165.176 34.8406 165.032C34.9068 164.888 34.94 164.728 34.94 164.553C34.94 164.342 34.8903 164.16 34.7908 164.006C34.6914 163.852 34.5588 163.733 34.3931 163.651C34.2298 163.565 34.0475 163.523 33.8462 163.523C33.6639 163.523 33.4899 163.561 33.3242 163.636C33.1585 163.712 33.0212 163.83 32.9123 163.991C32.8034 164.15 32.7406 164.355 32.7241 164.606H31.6445C31.6611 164.18 31.7688 163.82 31.9677 163.526C32.1665 163.23 32.4293 163.007 32.756 162.855C33.0851 162.704 33.4485 162.628 33.8462 162.628C34.2818 162.628 34.663 162.71 34.9897 162.873C35.3164 163.034 35.5697 163.26 35.7496 163.551C35.9319 163.84 36.0231 164.177 36.0231 164.563C36.0231 164.828 35.9817 165.067 35.8988 165.281C35.8159 165.491 35.6976 165.679 35.5437 165.845C35.3922 166.011 35.2099 166.158 34.9968 166.286C34.7956 166.411 34.6322 166.541 34.5067 166.676C34.3836 166.811 34.2937 166.971 34.2369 167.156C34.18 167.34 34.1493 167.569 34.1445 167.841V167.908H33.1289ZM33.6651 170.067C33.471 170.067 33.3041 169.999 33.1644 169.862C33.0247 169.722 32.9549 169.554 32.9549 169.357C32.9549 169.163 33.0247 168.997 33.1644 168.86C33.3041 168.72 33.471 168.651 33.6651 168.651C33.8569 168.651 34.0226 168.72 34.1623 168.86C34.3043 168.997 34.3754 169.163 34.3754 169.357C34.3754 169.487 34.3422 169.607 34.2759 169.716C34.212 169.822 34.1268 169.908 34.0202 169.972C33.9137 170.036 33.7953 170.067 33.6651 170.067Z" fill="white"/>
<g filter="url(#filter2_d_88_14906)">
<path d="M208.413 15.8813H13.5045C9.51763 15.8813 6.28564 19.1133 6.28564 23.1002V59.1944C6.28564 63.1813 9.51763 66.4133 13.5045 66.4133H208.413C212.4 66.4133 215.632 63.1813 215.632 59.1944V23.1002C215.632 19.1133 212.4 15.8813 208.413 15.8813Z" fill="white"/>
</g>
<path d="M117.456 27.4316H79.918C77.5259 27.4316 75.5867 29.3708 75.5867 31.7629C75.5867 34.1551 77.5259 36.0943 79.918 36.0943H117.456C119.848 36.0943 121.787 34.1551 121.787 31.7629C121.787 29.3708 119.848 27.4316 117.456 27.4316Z" fill="#6B7280"/>
<path d="M143.444 46.2012H79.918C77.5259 46.2012 75.5867 48.1404 75.5867 50.5325C75.5867 52.9246 77.5259 54.8638 79.918 54.8638H143.444C145.836 54.8638 147.775 52.9246 147.775 50.5325C147.775 48.1404 145.836 46.2012 143.444 46.2012Z" fill="#D1D5DB"/>
<path d="M50.3205 54.8642C57.8956 54.8642 64.0363 48.7235 64.0363 41.1484C64.0363 33.5734 57.8956 27.4326 50.3205 27.4326C42.7455 27.4326 36.6047 33.5734 36.6047 41.1484C36.6047 48.7235 42.7455 54.8642 50.3205 54.8642Z" fill="black"/>
<path d="M46.2198 43.0036V42.9361C46.2246 42.4958 46.2684 42.1454 46.3512 41.885C46.4364 41.6246 46.5572 41.4139 46.7134 41.2529C46.8697 41.0919 47.0579 40.9451 47.2781 40.8125C47.4201 40.7226 47.5479 40.622 47.6616 40.5107C47.7752 40.3994 47.8652 40.2716 47.9315 40.1272C47.9978 39.9828 48.0309 39.823 48.0309 39.6478C48.0309 39.4371 47.9812 39.2548 47.8818 39.1009C47.7823 38.947 47.6497 38.8286 47.484 38.7458C47.3207 38.6606 47.1384 38.6179 46.9372 38.6179C46.7549 38.6179 46.5809 38.6558 46.4151 38.7316C46.2494 38.8073 46.1121 38.9257 46.0032 39.0867C45.8943 39.2453 45.8316 39.4501 45.815 39.701H44.7354C44.752 39.2749 44.8597 38.9151 45.0586 38.6215C45.2575 38.3256 45.5202 38.1018 45.847 37.9503C46.176 37.7988 46.5394 37.7231 46.9372 37.7231C47.3728 37.7231 47.7539 37.8047 48.0806 37.9681C48.4073 38.1291 48.6606 38.3552 48.8406 38.6464C49.0229 38.9352 49.114 39.2725 49.114 39.6584C49.114 39.9236 49.0726 40.1627 48.9897 40.3758C48.9068 40.5865 48.7885 40.7747 48.6346 40.9404C48.4831 41.1061 48.3008 41.2529 48.0877 41.3807C47.8865 41.5062 47.7231 41.6364 47.5977 41.7714C47.4746 41.9063 47.3846 42.0661 47.3278 42.2508C47.271 42.4354 47.2402 42.6639 47.2354 42.9361V43.0036H46.2198ZM46.756 45.1627C46.5619 45.1627 46.395 45.094 46.2553 44.9567C46.1157 44.817 46.0458 44.649 46.0458 44.4525C46.0458 44.2583 46.1157 44.0926 46.2553 43.9553C46.395 43.8156 46.5619 43.7458 46.756 43.7458C46.9478 43.7458 47.1135 43.8156 47.2532 43.9553C47.3952 44.0926 47.4663 44.2583 47.4663 44.4525C47.4663 44.5827 47.4331 44.7022 47.3668 44.8111C47.3029 44.9177 47.2177 45.0029 47.1112 45.0668C47.0046 45.1307 46.8863 45.1627 46.756 45.1627ZM51.4737 43.0036V42.9361C51.4785 42.4958 51.5223 42.1454 51.6051 41.885C51.6903 41.6246 51.8111 41.4139 51.9673 41.2529C52.1236 41.0919 52.3118 40.9451 52.532 40.8125C52.674 40.7226 52.8019 40.622 52.9155 40.5107C53.0291 40.3994 53.1191 40.2716 53.1854 40.1272C53.2517 39.9828 53.2848 39.823 53.2848 39.6478C53.2848 39.4371 53.2351 39.2548 53.1357 39.1009C53.0362 38.947 52.9037 38.8286 52.7379 38.7458C52.5746 38.6606 52.3923 38.6179 52.1911 38.6179C52.0088 38.6179 51.8348 38.6558 51.669 38.7316C51.5033 38.8073 51.366 38.9257 51.2571 39.0867C51.1482 39.2453 51.0855 39.4501 51.0689 39.701H49.9894C50.0059 39.2749 50.1136 38.9151 50.3125 38.6215C50.5114 38.3256 50.7742 38.1018 51.1009 37.9503C51.4299 37.7988 51.7933 37.7231 52.1911 37.7231C52.6267 37.7231 53.0078 37.8047 53.3345 37.9681C53.6612 38.1291 53.9145 38.3552 54.0945 38.6464C54.2768 38.9352 54.3679 39.2725 54.3679 39.6584C54.3679 39.9236 54.3265 40.1627 54.2436 40.3758C54.1608 40.5865 54.0424 40.7747 53.8885 40.9404C53.737 41.1061 53.5547 41.2529 53.3416 41.3807C53.1404 41.5062 52.977 41.6364 52.8516 41.7714C52.7285 41.9063 52.6385 42.0661 52.5817 42.2508C52.5249 42.4354 52.4941 42.6639 52.4894 42.9361V43.0036H51.4737ZM52.0099 45.1627C51.8158 45.1627 51.6489 45.094 51.5092 44.9567C51.3696 44.817 51.2997 44.649 51.2997 44.4525C51.2997 44.2583 51.3696 44.0926 51.5092 43.9553C51.6489 43.8156 51.8158 43.7458 52.0099 43.7458C52.2017 43.7458 52.3674 43.8156 52.5071 43.9553C52.6492 44.0926 52.7202 44.2583 52.7202 44.4525C52.7202 44.5827 52.687 44.7022 52.6207 44.8111C52.5568 44.9177 52.4716 45.0029 52.3651 45.0668C52.2585 45.1307 52.1402 45.1627 52.0099 45.1627Z" fill="white"/>
<defs>
<filter id="filter0_d_88_14906" x="62.3677" y="74.9634" width="221.346" height="62.5317" filterUnits="userSpaceOnUse" color-interpolation-filters="sRGB">
<feFlood flood-opacity="0" result="BackgroundImageFix"/>
<feColorMatrix in="SourceAlpha" type="matrix" values="0 0 0 0 0 0 0 0 0 0 0 0 0 0 0 0 0 0 127 0" result="hardAlpha"/>
<feOffset dy="3"/>
<feGaussianBlur stdDeviation="3"/>
<feColorMatrix type="matrix" values="0 0 0 0 0 0 0 0 0 0 0 0 0 0 0 0 0 0 0.161 0"/>
<feBlend mode="normal" in2="BackgroundImageFix" result="effect1_dropShadow_88_14906"/>
<feBlend mode="normal" in="SourceGraphic" in2="effect1_dropShadow_88_14906" result="shape"/>
</filter>
<filter id="filter1_d_88_14906" x="0.285645" y="137.046" width="221.346" height="62.5317" filterUnits="userSpaceOnUse" color-interpolation-filters="sRGB">
<feFlood flood-opacity="0" result="BackgroundImageFix"/>
<feColorMatrix in="SourceAlpha" type="matrix" values="0 0 0 0 0 0 0 0 0 0 0 0 0 0 0 0 0 0 127 0" result="hardAlpha"/>
<feOffset dy="3"/>
<feGaussianBlur stdDeviation="3"/>
<feColorMatrix type="matrix" values="0 0 0 0 0 0 0 0 0 0 0 0 0 0 0 0 0 0 0.161 0"/>
<feBlend mode="normal" in2="BackgroundImageFix" result="effect1_dropShadow_88_14906"/>
<feBlend mode="normal" in="SourceGraphic" in2="effect1_dropShadow_88_14906" result="shape"/>
</filter>
<filter id="filter2_d_88_14906" x="0.285645" y="12.8813" width="221.346" height="62.5317" filterUnits="userSpaceOnUse" color-interpolation-filters="sRGB">
<feFlood flood-opacity="0" result="BackgroundImageFix"/>
<feColorMatrix in="SourceAlpha" type="matrix" values="0 0 0 0 0 0 0 0 0 0 0 0 0 0 0 0 0 0 127 0" result="hardAlpha"/>
<feOffset dy="3"/>
<feGaussianBlur stdDeviation="3"/>
<feColorMatrix type="matrix" values="0 0 0 0 0 0 0 0 0 0 0 0 0 0 0 0 0 0 0.161 0"/>
<feBlend mode="normal" in2="BackgroundImageFix" result="effect1_dropShadow_88_14906"/>
<feBlend mode="normal" in="SourceGraphic" in2="effect1_dropShadow_88_14906" result="shape"/>
</filter>
<linearGradient id="paint0_linear_88_14906" x1="144.888" y1="0" x2="144.888" y2="202.128" gradientUnits="userSpaceOnUse">
<stop stop-color="#EBEBEC"/>
<stop offset="1" stop-color="#BCC2CC"/>
</linearGradient>
</defs>
</svg>
